%TF.GenerationSoftware,KiCad,Pcbnew,(6.0.1)*%
%TF.CreationDate,2022-06-09T19:08:29-07:00*%
%TF.ProjectId,artemis-65,61727465-6d69-4732-9d36-352e6b696361,rev?*%
%TF.SameCoordinates,Original*%
%TF.FileFunction,Soldermask,Bot*%
%TF.FilePolarity,Negative*%
%FSLAX46Y46*%
G04 Gerber Fmt 4.6, Leading zero omitted, Abs format (unit mm)*
G04 Created by KiCad (PCBNEW (6.0.1)) date 2022-06-09 19:08:29*
%MOMM*%
%LPD*%
G01*
G04 APERTURE LIST*
G04 Aperture macros list*
%AMRoundRect*
0 Rectangle with rounded corners*
0 $1 Rounding radius*
0 $2 $3 $4 $5 $6 $7 $8 $9 X,Y pos of 4 corners*
0 Add a 4 corners polygon primitive as box body*
4,1,4,$2,$3,$4,$5,$6,$7,$8,$9,$2,$3,0*
0 Add four circle primitives for the rounded corners*
1,1,$1+$1,$2,$3*
1,1,$1+$1,$4,$5*
1,1,$1+$1,$6,$7*
1,1,$1+$1,$8,$9*
0 Add four rect primitives between the rounded corners*
20,1,$1+$1,$2,$3,$4,$5,0*
20,1,$1+$1,$4,$5,$6,$7,0*
20,1,$1+$1,$6,$7,$8,$9,0*
20,1,$1+$1,$8,$9,$2,$3,0*%
%AMHorizOval*
0 Thick line with rounded ends*
0 $1 width*
0 $2 $3 position (X,Y) of the first rounded end (center of the circle)*
0 $4 $5 position (X,Y) of the second rounded end (center of the circle)*
0 Add line between two ends*
20,1,$1,$2,$3,$4,$5,0*
0 Add two circle primitives to create the rounded ends*
1,1,$1,$2,$3*
1,1,$1,$4,$5*%
%AMRotRect*
0 Rectangle, with rotation*
0 The origin of the aperture is its center*
0 $1 length*
0 $2 width*
0 $3 Rotation angle, in degrees counterclockwise*
0 Add horizontal line*
21,1,$1,$2,0,0,$3*%
G04 Aperture macros list end*
%ADD10C,3.987800*%
%ADD11C,1.750000*%
%ADD12HorizOval,2.250000X0.655001X0.730000X-0.655001X-0.730000X0*%
%ADD13C,2.250000*%
%ADD14HorizOval,2.250000X0.020000X0.290000X-0.020000X-0.290000X0*%
%ADD15C,3.048000*%
%ADD16C,1.700000*%
%ADD17R,1.700000X1.700000*%
%ADD18R,1.200000X0.900000*%
%ADD19RoundRect,0.250000X0.475000X-0.250000X0.475000X0.250000X-0.475000X0.250000X-0.475000X-0.250000X0*%
%ADD20RoundRect,0.250000X0.450000X-0.262500X0.450000X0.262500X-0.450000X0.262500X-0.450000X-0.262500X0*%
%ADD21R,1.100000X1.800000*%
%ADD22RoundRect,0.150000X0.150000X-0.512500X0.150000X0.512500X-0.150000X0.512500X-0.150000X-0.512500X0*%
%ADD23R,1.500000X0.550000*%
%ADD24R,0.550000X1.500000*%
%ADD25RotRect,1.400000X1.200000X40.000000*%
%ADD26RoundRect,0.250000X0.250000X0.475000X-0.250000X0.475000X-0.250000X-0.475000X0.250000X-0.475000X0*%
%ADD27RoundRect,0.250000X0.262500X0.450000X-0.262500X0.450000X-0.262500X-0.450000X0.262500X-0.450000X0*%
%ADD28RoundRect,0.250000X0.375000X0.625000X-0.375000X0.625000X-0.375000X-0.625000X0.375000X-0.625000X0*%
%ADD29RoundRect,0.250000X-0.250000X-0.475000X0.250000X-0.475000X0.250000X0.475000X-0.250000X0.475000X0*%
%ADD30RoundRect,0.250000X-0.475000X0.250000X-0.475000X-0.250000X0.475000X-0.250000X0.475000X0.250000X0*%
%ADD31R,1.800000X1.200000*%
%ADD32R,1.550000X0.600000*%
G04 APERTURE END LIST*
D10*
%TO.C,MX38*%
X177006250Y-64293750D03*
D11*
X182086250Y-64293750D03*
X171926250Y-64293750D03*
D12*
X173851251Y-61023750D03*
D13*
X174506250Y-60293750D03*
X179546250Y-59213750D03*
D14*
X179526250Y-59503750D03*
%TD*%
D10*
%TO.C,MX20*%
X96043750Y-45243750D03*
D11*
X101123750Y-45243750D03*
X90963750Y-45243750D03*
D12*
X92888751Y-41973750D03*
D13*
X93543750Y-41243750D03*
X98583750Y-40163750D03*
D14*
X98563750Y-40453750D03*
%TD*%
D11*
%TO.C,MX8*%
X38576250Y-64293750D03*
X48736250Y-64293750D03*
D10*
X43656250Y-64293750D03*
D12*
X40501251Y-61023750D03*
D13*
X41156250Y-60293750D03*
D14*
X46176250Y-59503750D03*
D13*
X46196250Y-59213750D03*
%TD*%
D11*
%TO.C,MX44*%
X200501250Y-83343750D03*
D10*
X205581250Y-83343750D03*
D11*
X210661250Y-83343750D03*
D13*
X203081250Y-79343750D03*
D12*
X202426251Y-80073750D03*
D13*
X208121250Y-78263750D03*
D14*
X208101250Y-78553750D03*
%TD*%
D15*
%TO.C,MX61*%
X279431750Y-19208750D03*
D11*
X272573750Y-26193750D03*
D10*
X255555750Y-34448750D03*
X279431750Y-34448750D03*
X267493750Y-26193750D03*
D15*
X255555750Y-19208750D03*
D11*
X262413750Y-26193750D03*
D13*
X264993750Y-22193750D03*
D12*
X264338751Y-22923750D03*
D14*
X270013750Y-21403750D03*
D13*
X270033750Y-21113750D03*
%TD*%
D11*
%TO.C,MX28*%
X129698750Y-26193750D03*
X119538750Y-26193750D03*
D10*
X124618750Y-26193750D03*
D12*
X121463751Y-22923750D03*
D13*
X122118750Y-22193750D03*
X127158750Y-21113750D03*
D14*
X127138750Y-21403750D03*
%TD*%
D11*
%TO.C,MX47*%
X205263750Y-45243750D03*
X215423750Y-45243750D03*
D10*
X210343750Y-45243750D03*
D12*
X207188751Y-41973750D03*
D13*
X207843750Y-41243750D03*
D14*
X212863750Y-40453750D03*
D13*
X212883750Y-40163750D03*
%TD*%
D11*
%TO.C,MX62*%
X267176250Y-45243750D03*
X277336250Y-45243750D03*
D10*
X272256250Y-45243750D03*
D13*
X269756250Y-41243750D03*
D12*
X269101251Y-41973750D03*
D14*
X274776250Y-40453750D03*
D13*
X274796250Y-40163750D03*
%TD*%
D11*
%TO.C,MX58*%
X270192500Y-64293750D03*
D10*
X277050500Y-72548750D03*
D15*
X253174500Y-57308750D03*
D10*
X265112500Y-64293750D03*
X253174500Y-72548750D03*
D11*
X260032500Y-64293750D03*
D15*
X277050500Y-57308750D03*
D12*
X261957501Y-61023750D03*
D13*
X262612500Y-60293750D03*
X267652500Y-59213750D03*
D14*
X267632500Y-59503750D03*
%TD*%
D11*
%TO.C,MX63*%
X290988750Y-45243750D03*
D10*
X296068750Y-45243750D03*
D11*
X301148750Y-45243750D03*
D12*
X292913751Y-41973750D03*
D13*
X293568750Y-41243750D03*
X298608750Y-40163750D03*
D14*
X298588750Y-40453750D03*
%TD*%
D10*
%TO.C,MX37*%
X172243750Y-45243750D03*
D11*
X177323750Y-45243750D03*
X167163750Y-45243750D03*
D12*
X169088751Y-41973750D03*
D13*
X169743750Y-41243750D03*
D14*
X174763750Y-40453750D03*
D13*
X174783750Y-40163750D03*
%TD*%
D10*
%TO.C,MX59*%
X277018750Y-83343750D03*
D11*
X282098750Y-83343750D03*
X271938750Y-83343750D03*
D12*
X273863751Y-80073750D03*
D13*
X274518750Y-79343750D03*
D14*
X279538750Y-78553750D03*
D13*
X279558750Y-78263750D03*
%TD*%
D11*
%TO.C,MX56*%
X243998750Y-26193750D03*
X233838750Y-26193750D03*
D10*
X238918750Y-26193750D03*
D13*
X236418750Y-22193750D03*
D12*
X235763751Y-22923750D03*
D13*
X241458750Y-21113750D03*
D14*
X241438750Y-21403750D03*
%TD*%
D11*
%TO.C,MX64*%
X301148750Y-64293750D03*
D10*
X296068750Y-64293750D03*
D11*
X290988750Y-64293750D03*
D12*
X292913751Y-61023750D03*
D13*
X293568750Y-60293750D03*
D14*
X298588750Y-59503750D03*
D13*
X298608750Y-59213750D03*
%TD*%
D11*
%TO.C,MX32*%
X138588750Y-26193750D03*
D10*
X143668750Y-26193750D03*
D11*
X148748750Y-26193750D03*
D13*
X141168750Y-22193750D03*
D12*
X140513751Y-22923750D03*
D13*
X146208750Y-21113750D03*
D14*
X146188750Y-21403750D03*
%TD*%
D11*
%TO.C,MX46*%
X195738750Y-26193750D03*
X205898750Y-26193750D03*
D10*
X200818750Y-26193750D03*
D13*
X198318750Y-22193750D03*
D12*
X197663751Y-22923750D03*
D14*
X203338750Y-21403750D03*
D13*
X203358750Y-21113750D03*
%TD*%
D11*
%TO.C,MX50*%
X252888750Y-102393750D03*
D10*
X257968750Y-102393750D03*
D11*
X263048750Y-102393750D03*
D12*
X254813751Y-99123750D03*
D13*
X255468750Y-98393750D03*
D14*
X260488750Y-97603750D03*
D13*
X260508750Y-97313750D03*
%TD*%
D10*
%TO.C,MX49*%
X224631250Y-83343750D03*
D11*
X229711250Y-83343750D03*
X219551250Y-83343750D03*
D12*
X221476251Y-80073750D03*
D13*
X222131250Y-79343750D03*
D14*
X227151250Y-78553750D03*
D13*
X227171250Y-78263750D03*
%TD*%
D11*
%TO.C,MX23*%
X110648750Y-26193750D03*
D10*
X105568750Y-26193750D03*
D11*
X100488750Y-26193750D03*
D12*
X102413751Y-22923750D03*
D13*
X103068750Y-22193750D03*
X108108750Y-21113750D03*
D14*
X108088750Y-21403750D03*
%TD*%
D11*
%TO.C,MX15*%
X62388750Y-26193750D03*
X72548750Y-26193750D03*
D10*
X67468750Y-26193750D03*
D12*
X64313751Y-22923750D03*
D13*
X64968750Y-22193750D03*
X70008750Y-21113750D03*
D14*
X69988750Y-21403750D03*
%TD*%
D11*
%TO.C,MX5*%
X17780000Y-102393750D03*
X7620000Y-102393750D03*
D10*
X12700000Y-102393750D03*
D12*
X9545001Y-99123750D03*
D13*
X10200000Y-98393750D03*
D14*
X15220000Y-97603750D03*
D13*
X15240000Y-97313750D03*
%TD*%
D10*
%TO.C,MX33*%
X153193750Y-45243750D03*
D11*
X158273750Y-45243750D03*
X148113750Y-45243750D03*
D12*
X150038751Y-41973750D03*
D13*
X150693750Y-41243750D03*
X155733750Y-40163750D03*
D14*
X155713750Y-40453750D03*
%TD*%
D11*
%TO.C,MX2*%
X20161250Y-45243750D03*
D10*
X15081250Y-45243750D03*
D11*
X10001250Y-45243750D03*
D13*
X12581250Y-41243750D03*
D12*
X11926251Y-41973750D03*
D14*
X17601250Y-40453750D03*
D13*
X17621250Y-40163750D03*
%TD*%
D10*
%TO.C,MX57*%
X248443750Y-45243750D03*
D11*
X253523750Y-45243750D03*
X243363750Y-45243750D03*
D12*
X245288751Y-41973750D03*
D13*
X245943750Y-41243750D03*
X250983750Y-40163750D03*
D14*
X250963750Y-40453750D03*
%TD*%
D11*
%TO.C,MX31*%
X143351250Y-83343750D03*
X153511250Y-83343750D03*
D10*
X148431250Y-83343750D03*
D13*
X145931250Y-79343750D03*
D12*
X145276251Y-80073750D03*
D14*
X150951250Y-78553750D03*
D13*
X150971250Y-78263750D03*
%TD*%
D11*
%TO.C,MX21*%
X105886250Y-64293750D03*
X95726250Y-64293750D03*
D10*
X100806250Y-64293750D03*
D12*
X97651251Y-61023750D03*
D13*
X98306250Y-60293750D03*
X103346250Y-59213750D03*
D14*
X103326250Y-59503750D03*
%TD*%
D10*
%TO.C,MX29*%
X134143750Y-45243750D03*
D11*
X129063750Y-45243750D03*
X139223750Y-45243750D03*
D13*
X131643750Y-41243750D03*
D12*
X130988751Y-41973750D03*
D13*
X136683750Y-40163750D03*
D14*
X136663750Y-40453750D03*
%TD*%
D11*
%TO.C,MX22*%
X115411250Y-83343750D03*
D10*
X110331250Y-83343750D03*
D11*
X105251250Y-83343750D03*
D13*
X107831250Y-79343750D03*
D12*
X107176251Y-80073750D03*
D13*
X112871250Y-78263750D03*
D14*
X112851250Y-78553750D03*
%TD*%
D11*
%TO.C,MX18*%
X86201250Y-83343750D03*
D10*
X91281250Y-83343750D03*
D11*
X96361250Y-83343750D03*
D12*
X88126251Y-80073750D03*
D13*
X88781250Y-79343750D03*
D14*
X93801250Y-78553750D03*
D13*
X93821250Y-78263750D03*
%TD*%
D11*
%TO.C,MX10*%
X60642500Y-102393750D03*
D10*
X55562500Y-102393750D03*
D11*
X50482500Y-102393750D03*
D12*
X52407501Y-99123750D03*
D13*
X53062500Y-98393750D03*
D14*
X58082500Y-97603750D03*
D13*
X58102500Y-97313750D03*
%TD*%
D11*
%TO.C,MX55*%
X271938750Y-102393750D03*
D10*
X277018750Y-102393750D03*
D11*
X282098750Y-102393750D03*
D12*
X273863751Y-99123750D03*
D13*
X274518750Y-98393750D03*
X279558750Y-97313750D03*
D14*
X279538750Y-97603750D03*
%TD*%
D10*
%TO.C,MX27*%
X127000000Y-102393750D03*
X77000100Y-94138750D03*
D15*
X176999900Y-109378750D03*
X77000100Y-109378750D03*
D11*
X132080000Y-102393750D03*
X121920000Y-102393750D03*
D10*
X176999900Y-94138750D03*
D13*
X124500000Y-98393750D03*
D12*
X123845001Y-99123750D03*
D13*
X129540000Y-97313750D03*
D14*
X129520000Y-97603750D03*
%TD*%
D11*
%TO.C,MX3*%
X22542500Y-64293750D03*
D10*
X17462500Y-64293750D03*
D11*
X12382500Y-64293750D03*
D13*
X14962500Y-60293750D03*
D12*
X14307501Y-61023750D03*
D13*
X20002500Y-59213750D03*
D14*
X19982500Y-59503750D03*
%TD*%
D11*
%TO.C,MX6*%
X34448750Y-26193750D03*
X24288750Y-26193750D03*
D10*
X29368750Y-26193750D03*
D12*
X26213751Y-22923750D03*
D13*
X26868750Y-22193750D03*
X31908750Y-21113750D03*
D14*
X31888750Y-21403750D03*
%TD*%
D11*
%TO.C,MX45*%
X241617500Y-102393750D03*
X231457500Y-102393750D03*
D10*
X236537500Y-102393750D03*
D13*
X234037500Y-98393750D03*
D12*
X233382501Y-99123750D03*
D14*
X239057500Y-97603750D03*
D13*
X239077500Y-97313750D03*
%TD*%
D11*
%TO.C,MX16*%
X82073750Y-45243750D03*
D10*
X76993750Y-45243750D03*
D11*
X71913750Y-45243750D03*
D12*
X73838751Y-41973750D03*
D13*
X74493750Y-41243750D03*
D14*
X79513750Y-40453750D03*
D13*
X79533750Y-40163750D03*
%TD*%
D11*
%TO.C,MX53*%
X239236250Y-64293750D03*
X229076250Y-64293750D03*
D10*
X234156250Y-64293750D03*
D12*
X231001251Y-61023750D03*
D13*
X231656250Y-60293750D03*
X236696250Y-59213750D03*
D14*
X236676250Y-59503750D03*
%TD*%
D10*
%TO.C,MX39*%
X186531250Y-83343750D03*
D11*
X181451250Y-83343750D03*
X191611250Y-83343750D03*
D13*
X184031250Y-79343750D03*
D12*
X183376251Y-80073750D03*
D13*
X189071250Y-78263750D03*
D14*
X189051250Y-78553750D03*
%TD*%
D11*
%TO.C,MX30*%
X133826250Y-64293750D03*
D10*
X138906250Y-64293750D03*
D11*
X143986250Y-64293750D03*
D13*
X136406250Y-60293750D03*
D12*
X135751251Y-61023750D03*
D14*
X141426250Y-59503750D03*
D13*
X141446250Y-59213750D03*
%TD*%
D11*
%TO.C,MX14*%
X67151250Y-83343750D03*
D10*
X72231250Y-83343750D03*
D11*
X77311250Y-83343750D03*
D12*
X69076251Y-80073750D03*
D13*
X69731250Y-79343750D03*
X74771250Y-78263750D03*
D14*
X74751250Y-78553750D03*
%TD*%
D11*
%TO.C,MX60*%
X290988750Y-102393750D03*
X301148750Y-102393750D03*
D10*
X296068750Y-102393750D03*
D13*
X293568750Y-98393750D03*
D12*
X292913751Y-99123750D03*
D14*
X298588750Y-97603750D03*
D13*
X298608750Y-97313750D03*
%TD*%
D11*
%TO.C,MX36*%
X167798750Y-26193750D03*
X157638750Y-26193750D03*
D10*
X162718750Y-26193750D03*
D13*
X160218750Y-22193750D03*
D12*
X159563751Y-22923750D03*
D14*
X165238750Y-21403750D03*
D13*
X165258750Y-21113750D03*
%TD*%
D15*
%TO.C,MX4*%
X34163000Y-90328750D03*
D11*
X27305000Y-83343750D03*
D10*
X10287000Y-75088750D03*
D11*
X17145000Y-83343750D03*
D15*
X10287000Y-90328750D03*
D10*
X34163000Y-75088750D03*
X22225000Y-83343750D03*
D12*
X19070001Y-80073750D03*
D13*
X19725000Y-79343750D03*
X24765000Y-78263750D03*
D14*
X24745000Y-78553750D03*
%TD*%
D16*
%TO.C,J1*%
X111810800Y-103694300D03*
X114350800Y-103694300D03*
X111810800Y-106234300D03*
X114350800Y-106234300D03*
X111810800Y-108774300D03*
D17*
X114350800Y-108774300D03*
%TD*%
D10*
%TO.C,MX19*%
X86518750Y-26193750D03*
D11*
X91598750Y-26193750D03*
X81438750Y-26193750D03*
D13*
X84018750Y-22193750D03*
D12*
X83363751Y-22923750D03*
D14*
X89038750Y-21403750D03*
D13*
X89058750Y-21113750D03*
%TD*%
D10*
%TO.C,MX48*%
X215106250Y-64293750D03*
D11*
X210026250Y-64293750D03*
X220186250Y-64293750D03*
D13*
X212606250Y-60293750D03*
D12*
X211951251Y-61023750D03*
D13*
X217646250Y-59213750D03*
D14*
X217626250Y-59503750D03*
%TD*%
D10*
%TO.C,MX24*%
X115093750Y-45243750D03*
D11*
X110013750Y-45243750D03*
X120173750Y-45243750D03*
D13*
X112593750Y-41243750D03*
D12*
X111938751Y-41973750D03*
D14*
X117613750Y-40453750D03*
D13*
X117633750Y-40163750D03*
%TD*%
D11*
%TO.C,MX17*%
X76676250Y-64293750D03*
X86836250Y-64293750D03*
D10*
X81756250Y-64293750D03*
D12*
X78601251Y-61023750D03*
D13*
X79256250Y-60293750D03*
D14*
X84276250Y-59503750D03*
D13*
X84296250Y-59213750D03*
%TD*%
D11*
%TO.C,MX9*%
X58261250Y-83343750D03*
D10*
X53181250Y-83343750D03*
D11*
X48101250Y-83343750D03*
D12*
X50026251Y-80073750D03*
D13*
X50681250Y-79343750D03*
D14*
X55701250Y-78553750D03*
D13*
X55721250Y-78263750D03*
%TD*%
D11*
%TO.C,MX35*%
X172561250Y-83343750D03*
X162401250Y-83343750D03*
D10*
X167481250Y-83343750D03*
D12*
X164326251Y-80073750D03*
D13*
X164981250Y-79343750D03*
D14*
X170001250Y-78553750D03*
D13*
X170021250Y-78263750D03*
%TD*%
D11*
%TO.C,MX13*%
X57626250Y-64293750D03*
D10*
X62706250Y-64293750D03*
D11*
X67786250Y-64293750D03*
D12*
X59551251Y-61023750D03*
D13*
X60206250Y-60293750D03*
X65246250Y-59213750D03*
D14*
X65226250Y-59503750D03*
%TD*%
D10*
%TO.C,MX51*%
X219868750Y-26193750D03*
D11*
X224948750Y-26193750D03*
X214788750Y-26193750D03*
D13*
X217368750Y-22193750D03*
D12*
X216713751Y-22923750D03*
D13*
X222408750Y-21113750D03*
D14*
X222388750Y-21403750D03*
%TD*%
D10*
%TO.C,MX42*%
X191293750Y-45243750D03*
D11*
X186213750Y-45243750D03*
X196373750Y-45243750D03*
D13*
X188793750Y-41243750D03*
D12*
X188138751Y-41973750D03*
D14*
X193813750Y-40453750D03*
D13*
X193833750Y-40163750D03*
%TD*%
D11*
%TO.C,MX40*%
X203517500Y-102393750D03*
D10*
X198437500Y-102393750D03*
D11*
X193357500Y-102393750D03*
D13*
X195937500Y-98393750D03*
D12*
X195282501Y-99123750D03*
D13*
X200977500Y-97313750D03*
D14*
X200957500Y-97603750D03*
%TD*%
D10*
%TO.C,MX1*%
X10318750Y-26193750D03*
D11*
X15398750Y-26193750D03*
X5238750Y-26193750D03*
D13*
X7818750Y-22193750D03*
D12*
X7163751Y-22923750D03*
D13*
X12858750Y-21113750D03*
D14*
X12838750Y-21403750D03*
%TD*%
D10*
%TO.C,MX65*%
X296068750Y-83343750D03*
D11*
X290988750Y-83343750D03*
X301148750Y-83343750D03*
D12*
X292913751Y-80073750D03*
D13*
X293568750Y-79343750D03*
X298608750Y-78263750D03*
D14*
X298588750Y-78553750D03*
%TD*%
D10*
%TO.C,MX54*%
X250825000Y-83343750D03*
D11*
X245745000Y-83343750D03*
X255905000Y-83343750D03*
D13*
X248325000Y-79343750D03*
D12*
X247670001Y-80073750D03*
D13*
X253365000Y-78263750D03*
D14*
X253345000Y-78553750D03*
%TD*%
D11*
%TO.C,MX12*%
X63023750Y-45243750D03*
D10*
X57943750Y-45243750D03*
D11*
X52863750Y-45243750D03*
D13*
X55443750Y-41243750D03*
D12*
X54788751Y-41973750D03*
D13*
X60483750Y-40163750D03*
D14*
X60463750Y-40453750D03*
%TD*%
D11*
%TO.C,MX11*%
X43338750Y-26193750D03*
D10*
X48418750Y-26193750D03*
D11*
X53498750Y-26193750D03*
D13*
X45918750Y-22193750D03*
D12*
X45263751Y-22923750D03*
D13*
X50958750Y-21113750D03*
D14*
X50938750Y-21403750D03*
%TD*%
D11*
%TO.C,MX41*%
X186848750Y-26193750D03*
X176688750Y-26193750D03*
D10*
X181768750Y-26193750D03*
D12*
X178613751Y-22923750D03*
D13*
X179268750Y-22193750D03*
X184308750Y-21113750D03*
D14*
X184288750Y-21403750D03*
%TD*%
D10*
%TO.C,MX34*%
X157956250Y-64293750D03*
D11*
X163036250Y-64293750D03*
X152876250Y-64293750D03*
D12*
X154801251Y-61023750D03*
D13*
X155456250Y-60293750D03*
D14*
X160476250Y-59503750D03*
D13*
X160496250Y-59213750D03*
%TD*%
D11*
%TO.C,MX26*%
X134461250Y-83343750D03*
D10*
X129381250Y-83343750D03*
D11*
X124301250Y-83343750D03*
D13*
X126881250Y-79343750D03*
D12*
X126226251Y-80073750D03*
D13*
X131921250Y-78263750D03*
D14*
X131901250Y-78553750D03*
%TD*%
D11*
%TO.C,MX43*%
X201136250Y-64293750D03*
D10*
X196056250Y-64293750D03*
D11*
X190976250Y-64293750D03*
D13*
X193556250Y-60293750D03*
D12*
X192901251Y-61023750D03*
D13*
X198596250Y-59213750D03*
D14*
X198576250Y-59503750D03*
%TD*%
D11*
%TO.C,MX7*%
X43973750Y-45243750D03*
D10*
X38893750Y-45243750D03*
D11*
X33813750Y-45243750D03*
D13*
X36393750Y-41243750D03*
D12*
X35738751Y-41973750D03*
D13*
X41433750Y-40163750D03*
D14*
X41413750Y-40453750D03*
%TD*%
D11*
%TO.C,MX25*%
X114776250Y-64293750D03*
D10*
X119856250Y-64293750D03*
D11*
X124936250Y-64293750D03*
D13*
X117356250Y-60293750D03*
D12*
X116701251Y-61023750D03*
D13*
X122396250Y-59213750D03*
D14*
X122376250Y-59503750D03*
%TD*%
D11*
%TO.C,MX52*%
X234473750Y-45243750D03*
X224313750Y-45243750D03*
D10*
X229393750Y-45243750D03*
D12*
X226238751Y-41973750D03*
D13*
X226893750Y-41243750D03*
D14*
X231913750Y-40453750D03*
D13*
X231933750Y-40163750D03*
%TD*%
D18*
%TO.C,D62*%
X280193750Y-46893750D03*
X280193750Y-43593750D03*
%TD*%
%TO.C,D20*%
X103981250Y-46893750D03*
X103981250Y-43593750D03*
%TD*%
%TO.C,D17*%
X89693750Y-65943750D03*
X89693750Y-62643750D03*
%TD*%
%TO.C,D5*%
X20637500Y-104043750D03*
X20637500Y-100743750D03*
%TD*%
%TO.C,D55*%
X284956250Y-104043750D03*
X284956250Y-100743750D03*
%TD*%
%TO.C,D27*%
X134937500Y-104043750D03*
X134937500Y-100743750D03*
%TD*%
D19*
%TO.C,C2*%
X99060000Y-89347000D03*
X99060000Y-91247000D03*
%TD*%
D18*
%TO.C,D11*%
X56356250Y-27843750D03*
X56356250Y-24543750D03*
%TD*%
%TO.C,D31*%
X156368750Y-84993750D03*
X156368750Y-81693750D03*
%TD*%
%TO.C,D16*%
X84931250Y-46893750D03*
X84931250Y-43593750D03*
%TD*%
D20*
%TO.C,R4*%
X98298000Y-106779700D03*
X98298000Y-104954700D03*
%TD*%
D18*
%TO.C,D3*%
X25400000Y-65943750D03*
X25400000Y-62643750D03*
%TD*%
%TO.C,D46*%
X208756250Y-27843750D03*
X208756250Y-24543750D03*
%TD*%
D21*
%TO.C,SW1*%
X105329600Y-110135600D03*
X101629600Y-103935600D03*
X101629600Y-110135600D03*
X105329600Y-103935600D03*
%TD*%
D18*
%TO.C,D35*%
X175418750Y-84993750D03*
X175418750Y-81693750D03*
%TD*%
D19*
%TO.C,C5*%
X95250000Y-108646000D03*
X95250000Y-106746000D03*
%TD*%
D22*
%TO.C,U2*%
X110017600Y-93974500D03*
X109067600Y-93974500D03*
X108117600Y-93974500D03*
X108117600Y-91699500D03*
X109067600Y-91699500D03*
X110017600Y-91699500D03*
%TD*%
D18*
%TO.C,D50*%
X265906250Y-104043750D03*
X265906250Y-100743750D03*
%TD*%
%TO.C,D52*%
X237331250Y-46893750D03*
X237331250Y-43593750D03*
%TD*%
%TO.C,D23*%
X113506250Y-27843750D03*
X113506250Y-24543750D03*
%TD*%
%TO.C,D49*%
X232568750Y-84993750D03*
X232568750Y-81693750D03*
%TD*%
%TO.C,D54*%
X258762500Y-84993750D03*
X258762500Y-81693750D03*
%TD*%
%TO.C,D29*%
X142081250Y-46893750D03*
X142081250Y-43593750D03*
%TD*%
%TO.C,D9*%
X61118750Y-84993750D03*
X61118750Y-81693750D03*
%TD*%
%TO.C,D57*%
X256381250Y-46893750D03*
X256381250Y-43593750D03*
%TD*%
D23*
%TO.C,U1*%
X96981250Y-93409000D03*
X96981250Y-94209000D03*
X96981250Y-95009000D03*
X96981250Y-95809000D03*
X96981250Y-96609000D03*
X96981250Y-97409000D03*
X96981250Y-98209000D03*
X96981250Y-99009000D03*
X96981250Y-99809000D03*
X96981250Y-100609000D03*
X96981250Y-101409000D03*
D24*
X95281250Y-103109000D03*
X94481250Y-103109000D03*
X93681250Y-103109000D03*
X92881250Y-103109000D03*
X92081250Y-103109000D03*
X91281250Y-103109000D03*
X90481250Y-103109000D03*
X89681250Y-103109000D03*
X88881250Y-103109000D03*
X88081250Y-103109000D03*
X87281250Y-103109000D03*
D23*
X85581250Y-101409000D03*
X85581250Y-100609000D03*
X85581250Y-99809000D03*
X85581250Y-99009000D03*
X85581250Y-98209000D03*
X85581250Y-97409000D03*
X85581250Y-96609000D03*
X85581250Y-95809000D03*
X85581250Y-95009000D03*
X85581250Y-94209000D03*
X85581250Y-93409000D03*
D24*
X87281250Y-91709000D03*
X88081250Y-91709000D03*
X88881250Y-91709000D03*
X89681250Y-91709000D03*
X90481250Y-91709000D03*
X91281250Y-91709000D03*
X92081250Y-91709000D03*
X92881250Y-91709000D03*
X93681250Y-91709000D03*
X94481250Y-91709000D03*
X95281250Y-91709000D03*
%TD*%
D18*
%TO.C,D34*%
X165893750Y-65943750D03*
X165893750Y-62643750D03*
%TD*%
%TO.C,D32*%
X151606250Y-27843750D03*
X151606250Y-24543750D03*
%TD*%
%TO.C,D41*%
X189706250Y-27843750D03*
X189706250Y-24543750D03*
%TD*%
%TO.C,D24*%
X123031250Y-46893750D03*
X123031250Y-43593750D03*
%TD*%
%TO.C,D21*%
X108743750Y-65943750D03*
X108743750Y-62643750D03*
%TD*%
%TO.C,D61*%
X275431250Y-27843750D03*
X275431250Y-24543750D03*
%TD*%
D25*
%TO.C,Y1*%
X90050982Y-107751929D03*
X91736279Y-106337796D03*
X92829018Y-107640071D03*
X91143721Y-109054204D03*
%TD*%
D18*
%TO.C,D44*%
X213518750Y-84993750D03*
X213518750Y-81693750D03*
%TD*%
%TO.C,D37*%
X180181250Y-46893750D03*
X180181250Y-43593750D03*
%TD*%
%TO.C,D58*%
X273050000Y-65943750D03*
X273050000Y-62643750D03*
%TD*%
%TO.C,D6*%
X37306250Y-27843750D03*
X37306250Y-24543750D03*
%TD*%
%TO.C,D40*%
X206375000Y-104043750D03*
X206375000Y-100743750D03*
%TD*%
%TO.C,D43*%
X203993750Y-65943750D03*
X203993750Y-62643750D03*
%TD*%
%TO.C,D1*%
X18256250Y-27843750D03*
X18256250Y-24543750D03*
%TD*%
%TO.C,D36*%
X170656250Y-27843750D03*
X170656250Y-24543750D03*
%TD*%
%TO.C,D56*%
X246856250Y-27843750D03*
X246856250Y-24543750D03*
%TD*%
%TO.C,D63*%
X301117000Y-50672000D03*
X301117000Y-47372000D03*
%TD*%
%TO.C,D51*%
X227806250Y-27843750D03*
X227806250Y-24543750D03*
%TD*%
%TO.C,D30*%
X146843750Y-65943750D03*
X146843750Y-62643750D03*
%TD*%
D20*
%TO.C,R3*%
X83058000Y-92149300D03*
X83058000Y-90324300D03*
%TD*%
D18*
%TO.C,D64*%
X301117000Y-69849000D03*
X301117000Y-66549000D03*
%TD*%
%TO.C,D45*%
X244475000Y-104043750D03*
X244475000Y-100743750D03*
%TD*%
D19*
%TO.C,C6*%
X87630000Y-108773000D03*
X87630000Y-106873000D03*
%TD*%
D18*
%TO.C,D33*%
X161131250Y-46893750D03*
X161131250Y-43593750D03*
%TD*%
%TO.C,D18*%
X99218750Y-84993750D03*
X99218750Y-81693750D03*
%TD*%
%TO.C,D65*%
X301117000Y-88899000D03*
X301117000Y-85599000D03*
%TD*%
%TO.C,D13*%
X70643750Y-65943750D03*
X70643750Y-62643750D03*
%TD*%
%TO.C,D59*%
X284956250Y-84993750D03*
X284956250Y-81693750D03*
%TD*%
%TO.C,D60*%
X301117000Y-104649000D03*
X301117000Y-107949000D03*
%TD*%
%TO.C,D28*%
X132556250Y-27843750D03*
X132556250Y-24543750D03*
%TD*%
%TO.C,D26*%
X137318750Y-84993750D03*
X137318750Y-81693750D03*
%TD*%
%TO.C,D12*%
X65881250Y-46893750D03*
X65881250Y-43593750D03*
%TD*%
%TO.C,D2*%
X23018750Y-46893750D03*
X23018750Y-43593750D03*
%TD*%
%TO.C,D48*%
X223043750Y-65943750D03*
X223043750Y-62643750D03*
%TD*%
%TO.C,D4*%
X30162500Y-84993750D03*
X30162500Y-81693750D03*
%TD*%
D26*
%TO.C,C7*%
X102301000Y-98044000D03*
X104201000Y-98044000D03*
%TD*%
D18*
%TO.C,D47*%
X218281250Y-46893750D03*
X218281250Y-43593750D03*
%TD*%
D27*
%TO.C,R1*%
X104163500Y-93980000D03*
X102338500Y-93980000D03*
%TD*%
D18*
%TO.C,D7*%
X46831250Y-46893750D03*
X46831250Y-43593750D03*
%TD*%
%TO.C,D38*%
X184943750Y-65943750D03*
X184943750Y-62643750D03*
%TD*%
%TO.C,D53*%
X242093750Y-65943750D03*
X242093750Y-62643750D03*
%TD*%
%TO.C,D14*%
X80168750Y-84993750D03*
X80168750Y-81693750D03*
%TD*%
D28*
%TO.C,F1*%
X106296000Y-97155000D03*
X109096000Y-97155000D03*
%TD*%
D18*
%TO.C,D15*%
X75406250Y-27843750D03*
X75406250Y-24543750D03*
%TD*%
D29*
%TO.C,C1*%
X102301000Y-100584000D03*
X104201000Y-100584000D03*
%TD*%
D18*
%TO.C,D22*%
X118268750Y-85056250D03*
X118268750Y-81756250D03*
%TD*%
%TO.C,D25*%
X127793750Y-65943750D03*
X127793750Y-62643750D03*
%TD*%
D30*
%TO.C,C4*%
X82143600Y-100142000D03*
X82143600Y-102042000D03*
%TD*%
D18*
%TO.C,D19*%
X94456250Y-27843750D03*
X94456250Y-24543750D03*
%TD*%
%TO.C,D10*%
X63500000Y-104043750D03*
X63500000Y-100743750D03*
%TD*%
%TO.C,D39*%
X194468750Y-84993750D03*
X194468750Y-81693750D03*
%TD*%
%TO.C,D8*%
X51593750Y-65943750D03*
X51593750Y-62643750D03*
%TD*%
D29*
%TO.C,C3*%
X86781600Y-89154000D03*
X88681600Y-89154000D03*
%TD*%
D31*
%TO.C,J2*%
X118336000Y-90037000D03*
X118336000Y-95637000D03*
D32*
X114461000Y-91337000D03*
X114461000Y-92337000D03*
X114461000Y-93337000D03*
X114461000Y-94337000D03*
%TD*%
D18*
%TO.C,D42*%
X199231250Y-46893750D03*
X199231250Y-43593750D03*
%TD*%
D27*
%TO.C,R2*%
X104163500Y-91948000D03*
X102338500Y-91948000D03*
%TD*%
M02*
