M48
; DRILL file {KiCad (6.0.1)} date Fri Jun 10 16:34:40 2022
; FORMAT={-:-/ absolute / metric / decimal}
; #@! TF.CreationDate,2022-06-10T16:34:40-07:00
; #@! TF.GenerationSoftware,Kicad,Pcbnew,(6.0.1)
; #@! TF.FileFunction,NonPlated,1,2,NPTH
FMAT,2
METRIC
; #@! TA.AperFunction,NonPlated,NPTH,ComponentDrill
T1C1.750
; #@! TA.AperFunction,NonPlated,NPTH,ComponentDrill
T2C3.048
; #@! TA.AperFunction,NonPlated,NPTH,ComponentDrill
T3C3.988
%
G90
G05
T1
X5.239Y-26.194
X7.62Y-102.394
X10.001Y-45.244
X12.383Y-64.294
X15.399Y-26.194
X17.145Y-83.344
X17.78Y-102.394
X20.161Y-45.244
X22.543Y-64.294
X24.289Y-26.194
X27.305Y-83.344
X33.814Y-45.244
X34.449Y-26.194
X38.576Y-64.294
X43.339Y-26.194
X43.974Y-45.244
X48.101Y-83.344
X48.736Y-64.294
X50.482Y-102.394
X52.864Y-45.244
X53.499Y-26.194
X57.626Y-64.294
X58.261Y-83.344
X60.642Y-102.394
X62.389Y-26.194
X63.024Y-45.244
X67.151Y-83.344
X67.786Y-64.294
X71.914Y-45.244
X72.549Y-26.194
X76.676Y-64.294
X77.311Y-83.344
X81.439Y-26.194
X82.074Y-45.244
X86.201Y-83.344
X86.836Y-64.294
X90.964Y-45.244
X91.599Y-26.194
X95.726Y-64.294
X96.361Y-83.344
X100.489Y-26.194
X101.124Y-45.244
X105.251Y-83.344
X105.886Y-64.294
X110.014Y-45.244
X110.649Y-26.194
X114.776Y-64.294
X115.411Y-83.344
X119.539Y-26.194
X120.174Y-45.244
X121.92Y-102.394
X124.301Y-83.344
X124.936Y-64.294
X129.064Y-45.244
X129.699Y-26.194
X132.08Y-102.394
X133.826Y-64.294
X134.461Y-83.344
X138.589Y-26.194
X139.224Y-45.244
X143.351Y-83.344
X143.986Y-64.294
X148.114Y-45.244
X148.749Y-26.194
X152.876Y-64.294
X153.511Y-83.344
X157.639Y-26.194
X158.274Y-45.244
X162.401Y-83.344
X163.036Y-64.294
X167.164Y-45.244
X167.799Y-26.194
X171.926Y-64.294
X172.561Y-83.344
X176.689Y-26.194
X177.324Y-45.244
X181.451Y-83.344
X182.086Y-64.294
X186.214Y-45.244
X186.849Y-26.194
X190.976Y-64.294
X191.611Y-83.344
X193.357Y-102.394
X195.739Y-26.194
X196.374Y-45.244
X200.501Y-83.344
X201.136Y-64.294
X203.517Y-102.394
X205.264Y-45.244
X205.899Y-26.194
X210.026Y-64.294
X210.661Y-83.344
X214.789Y-26.194
X215.424Y-45.244
X219.551Y-83.344
X220.186Y-64.294
X224.314Y-45.244
X224.949Y-26.194
X229.076Y-64.294
X229.711Y-83.344
X231.457Y-102.394
X233.839Y-26.194
X234.474Y-45.244
X239.236Y-64.294
X241.617Y-102.394
X243.364Y-45.244
X243.999Y-26.194
X245.745Y-83.344
X252.889Y-102.394
X253.524Y-45.244
X255.905Y-83.344
X260.032Y-64.294
X262.414Y-26.194
X263.049Y-102.394
X267.176Y-45.244
X270.192Y-64.294
X271.939Y-83.344
X271.939Y-102.394
X272.574Y-26.194
X277.336Y-45.244
X282.099Y-83.344
X282.099Y-102.394
X290.989Y-45.244
X290.989Y-64.294
X290.989Y-83.344
X290.989Y-102.394
X301.149Y-45.244
X301.149Y-64.294
X301.149Y-83.344
X301.149Y-102.394
T2
X10.287Y-90.329
X34.163Y-90.329
X77.0Y-109.379
X177.0Y-109.379
X253.174Y-57.309
X255.556Y-19.209
X277.05Y-57.309
X279.432Y-19.209
T3
X10.287Y-75.089
X10.319Y-26.194
X12.7Y-102.394
X15.081Y-45.244
X17.462Y-64.294
X22.225Y-83.344
X29.369Y-26.194
X34.163Y-75.089
X38.894Y-45.244
X43.656Y-64.294
X48.419Y-26.194
X53.181Y-83.344
X55.562Y-102.394
X57.944Y-45.244
X62.706Y-64.294
X67.469Y-26.194
X72.231Y-83.344
X76.994Y-45.244
X77.0Y-94.139
X81.756Y-64.294
X86.519Y-26.194
X91.281Y-83.344
X96.044Y-45.244
X100.806Y-64.294
X105.569Y-26.194
X110.331Y-83.344
X115.094Y-45.244
X119.856Y-64.294
X124.619Y-26.194
X127.0Y-102.394
X129.381Y-83.344
X134.144Y-45.244
X138.906Y-64.294
X143.669Y-26.194
X148.431Y-83.344
X153.194Y-45.244
X157.956Y-64.294
X162.719Y-26.194
X167.481Y-83.344
X172.244Y-45.244
X177.0Y-94.139
X177.006Y-64.294
X181.769Y-26.194
X186.531Y-83.344
X191.294Y-45.244
X196.056Y-64.294
X198.438Y-102.394
X200.819Y-26.194
X205.581Y-83.344
X210.344Y-45.244
X215.106Y-64.294
X219.869Y-26.194
X224.631Y-83.344
X229.394Y-45.244
X234.156Y-64.294
X236.537Y-102.394
X238.919Y-26.194
X248.444Y-45.244
X250.825Y-83.344
X253.174Y-72.549
X255.556Y-34.449
X257.969Y-102.394
X265.113Y-64.294
X267.494Y-26.194
X272.256Y-45.244
X277.019Y-83.344
X277.019Y-102.394
X277.05Y-72.549
X279.432Y-34.449
X296.069Y-45.244
X296.069Y-64.294
X296.069Y-83.344
X296.069Y-102.394
T0
M30
