G04 #@! TF.GenerationSoftware,KiCad,Pcbnew,(6.0.1)*
G04 #@! TF.CreationDate,2022-06-10T16:34:35-07:00*
G04 #@! TF.ProjectId,artemis-65,61727465-6d69-4732-9d36-352e6b696361,rev?*
G04 #@! TF.SameCoordinates,Original*
G04 #@! TF.FileFunction,Soldermask,Bot*
G04 #@! TF.FilePolarity,Negative*
%FSLAX46Y46*%
G04 Gerber Fmt 4.6, Leading zero omitted, Abs format (unit mm)*
G04 Created by KiCad (PCBNEW (6.0.1)) date 2022-06-10 16:34:35*
%MOMM*%
%LPD*%
G01*
G04 APERTURE LIST*
G04 Aperture macros list*
%AMRoundRect*
0 Rectangle with rounded corners*
0 $1 Rounding radius*
0 $2 $3 $4 $5 $6 $7 $8 $9 X,Y pos of 4 corners*
0 Add a 4 corners polygon primitive as box body*
4,1,4,$2,$3,$4,$5,$6,$7,$8,$9,$2,$3,0*
0 Add four circle primitives for the rounded corners*
1,1,$1+$1,$2,$3*
1,1,$1+$1,$4,$5*
1,1,$1+$1,$6,$7*
1,1,$1+$1,$8,$9*
0 Add four rect primitives between the rounded corners*
20,1,$1+$1,$2,$3,$4,$5,0*
20,1,$1+$1,$4,$5,$6,$7,0*
20,1,$1+$1,$6,$7,$8,$9,0*
20,1,$1+$1,$8,$9,$2,$3,0*%
%AMHorizOval*
0 Thick line with rounded ends*
0 $1 width*
0 $2 $3 position (X,Y) of the first rounded end (center of the circle)*
0 $4 $5 position (X,Y) of the second rounded end (center of the circle)*
0 Add line between two ends*
20,1,$1,$2,$3,$4,$5,0*
0 Add two circle primitives to create the rounded ends*
1,1,$1,$2,$3*
1,1,$1,$4,$5*%
G04 Aperture macros list end*
%ADD10RoundRect,0.300000X0.250000X0.475000X-0.250000X0.475000X-0.250000X-0.475000X0.250000X-0.475000X0*%
%ADD11RoundRect,0.300000X-0.250000X-0.475000X0.250000X-0.475000X0.250000X0.475000X-0.250000X0.475000X0*%
%ADD12RoundRect,0.112500X0.475000X0.062500X-0.475000X0.062500X-0.475000X-0.062500X0.475000X-0.062500X0*%
%ADD13RoundRect,0.112500X0.062500X0.475000X-0.062500X0.475000X-0.062500X-0.475000X0.062500X-0.475000X0*%
%ADD14RoundRect,0.050000X2.600000X2.600000X-2.600000X2.600000X-2.600000X-2.600000X2.600000X-2.600000X0*%
%ADD15C,4.087800*%
%ADD16C,1.850000*%
%ADD17HorizOval,2.350000X0.655001X0.730000X-0.655001X-0.730000X0*%
%ADD18C,2.350000*%
%ADD19HorizOval,2.350000X0.020000X0.290000X-0.020000X-0.290000X0*%
%ADD20C,3.148000*%
%ADD21C,1.800000*%
%ADD22RoundRect,0.050000X-0.850000X-0.850000X0.850000X-0.850000X0.850000X0.850000X-0.850000X0.850000X0*%
%ADD23RoundRect,0.050000X0.600000X-0.450000X0.600000X0.450000X-0.600000X0.450000X-0.600000X-0.450000X0*%
%ADD24RoundRect,0.300000X0.475000X-0.250000X0.475000X0.250000X-0.475000X0.250000X-0.475000X-0.250000X0*%
%ADD25RoundRect,0.300000X-0.262500X-0.450000X0.262500X-0.450000X0.262500X0.450000X-0.262500X0.450000X0*%
%ADD26RoundRect,0.050000X-0.550000X0.900000X-0.550000X-0.900000X0.550000X-0.900000X0.550000X0.900000X0*%
%ADD27RoundRect,0.200000X0.150000X-0.512500X0.150000X0.512500X-0.150000X0.512500X-0.150000X-0.512500X0*%
%ADD28RoundRect,0.050000X-0.150559X-0.909578X0.921904X-0.009675X0.150559X0.909578X-0.921904X0.009675X0*%
%ADD29RoundRect,0.300000X0.450000X-0.262500X0.450000X0.262500X-0.450000X0.262500X-0.450000X-0.262500X0*%
%ADD30RoundRect,0.300000X0.262500X0.450000X-0.262500X0.450000X-0.262500X-0.450000X0.262500X-0.450000X0*%
%ADD31RoundRect,0.300000X0.375000X0.625000X-0.375000X0.625000X-0.375000X-0.625000X0.375000X-0.625000X0*%
%ADD32RoundRect,0.300000X-0.475000X0.250000X-0.475000X-0.250000X0.475000X-0.250000X0.475000X0.250000X0*%
%ADD33RoundRect,0.050000X-0.900000X0.600000X-0.900000X-0.600000X0.900000X-0.600000X0.900000X0.600000X0*%
%ADD34RoundRect,0.050000X-0.775000X0.300000X-0.775000X-0.300000X0.775000X-0.300000X0.775000X0.300000X0*%
G04 APERTURE END LIST*
D10*
X97216000Y-90297000D03*
X95316000Y-90297000D03*
D11*
X89215000Y-90297000D03*
X87315000Y-90297000D03*
D12*
X94986500Y-93400000D03*
X94986500Y-93900000D03*
X94986500Y-94400000D03*
X94986500Y-94900000D03*
X94986500Y-95400000D03*
X94986500Y-95900000D03*
X94986500Y-96400000D03*
X94986500Y-96900000D03*
X94986500Y-97400000D03*
X94986500Y-97900000D03*
X94986500Y-98400000D03*
D13*
X94149000Y-99237500D03*
X93649000Y-99237500D03*
X93149000Y-99237500D03*
X92649000Y-99237500D03*
X92149000Y-99237500D03*
X91649000Y-99237500D03*
X91149000Y-99237500D03*
X90649000Y-99237500D03*
X90149000Y-99237500D03*
X89649000Y-99237500D03*
X89149000Y-99237500D03*
D12*
X88311500Y-98400000D03*
X88311500Y-97900000D03*
X88311500Y-97400000D03*
X88311500Y-96900000D03*
X88311500Y-96400000D03*
X88311500Y-95900000D03*
X88311500Y-95400000D03*
X88311500Y-94900000D03*
X88311500Y-94400000D03*
X88311500Y-93900000D03*
X88311500Y-93400000D03*
D13*
X89149000Y-92562500D03*
X89649000Y-92562500D03*
X90149000Y-92562500D03*
X90649000Y-92562500D03*
X91149000Y-92562500D03*
X91649000Y-92562500D03*
X92149000Y-92562500D03*
X92649000Y-92562500D03*
X93149000Y-92562500D03*
X93649000Y-92562500D03*
X94149000Y-92562500D03*
D14*
X91649000Y-95900000D03*
D15*
X177006250Y-64293750D03*
D16*
X182086250Y-64293750D03*
X171926250Y-64293750D03*
D17*
X173851251Y-61023750D03*
D18*
X174506250Y-60293750D03*
X179546250Y-59213750D03*
D19*
X179526250Y-59503750D03*
D15*
X96043750Y-45243750D03*
D16*
X101123750Y-45243750D03*
X90963750Y-45243750D03*
D17*
X92888751Y-41973750D03*
D18*
X93543750Y-41243750D03*
X98583750Y-40163750D03*
D19*
X98563750Y-40453750D03*
D16*
X38576250Y-64293750D03*
X48736250Y-64293750D03*
D15*
X43656250Y-64293750D03*
D17*
X40501251Y-61023750D03*
D18*
X41156250Y-60293750D03*
D19*
X46176250Y-59503750D03*
D18*
X46196250Y-59213750D03*
D16*
X200501250Y-83343750D03*
D15*
X205581250Y-83343750D03*
D16*
X210661250Y-83343750D03*
D18*
X203081250Y-79343750D03*
D17*
X202426251Y-80073750D03*
D18*
X208121250Y-78263750D03*
D19*
X208101250Y-78553750D03*
D20*
X279431750Y-19208750D03*
D16*
X272573750Y-26193750D03*
D15*
X255555750Y-34448750D03*
X279431750Y-34448750D03*
X267493750Y-26193750D03*
D20*
X255555750Y-19208750D03*
D16*
X262413750Y-26193750D03*
D18*
X264993750Y-22193750D03*
D17*
X264338751Y-22923750D03*
D19*
X270013750Y-21403750D03*
D18*
X270033750Y-21113750D03*
D16*
X129698750Y-26193750D03*
X119538750Y-26193750D03*
D15*
X124618750Y-26193750D03*
D17*
X121463751Y-22923750D03*
D18*
X122118750Y-22193750D03*
X127158750Y-21113750D03*
D19*
X127138750Y-21403750D03*
D16*
X205263750Y-45243750D03*
X215423750Y-45243750D03*
D15*
X210343750Y-45243750D03*
D17*
X207188751Y-41973750D03*
D18*
X207843750Y-41243750D03*
D19*
X212863750Y-40453750D03*
D18*
X212883750Y-40163750D03*
D16*
X267176250Y-45243750D03*
X277336250Y-45243750D03*
D15*
X272256250Y-45243750D03*
D18*
X269756250Y-41243750D03*
D17*
X269101251Y-41973750D03*
D19*
X274776250Y-40453750D03*
D18*
X274796250Y-40163750D03*
D16*
X270192500Y-64293750D03*
D15*
X277050500Y-72548750D03*
D20*
X253174500Y-57308750D03*
D15*
X265112500Y-64293750D03*
X253174500Y-72548750D03*
D16*
X260032500Y-64293750D03*
D20*
X277050500Y-57308750D03*
D17*
X261957501Y-61023750D03*
D18*
X262612500Y-60293750D03*
X267652500Y-59213750D03*
D19*
X267632500Y-59503750D03*
D16*
X290988750Y-45243750D03*
D15*
X296068750Y-45243750D03*
D16*
X301148750Y-45243750D03*
D17*
X292913751Y-41973750D03*
D18*
X293568750Y-41243750D03*
X298608750Y-40163750D03*
D19*
X298588750Y-40453750D03*
D15*
X172243750Y-45243750D03*
D16*
X177323750Y-45243750D03*
X167163750Y-45243750D03*
D17*
X169088751Y-41973750D03*
D18*
X169743750Y-41243750D03*
D19*
X174763750Y-40453750D03*
D18*
X174783750Y-40163750D03*
D15*
X277018750Y-83343750D03*
D16*
X282098750Y-83343750D03*
X271938750Y-83343750D03*
D17*
X273863751Y-80073750D03*
D18*
X274518750Y-79343750D03*
D19*
X279538750Y-78553750D03*
D18*
X279558750Y-78263750D03*
D16*
X243998750Y-26193750D03*
X233838750Y-26193750D03*
D15*
X238918750Y-26193750D03*
D18*
X236418750Y-22193750D03*
D17*
X235763751Y-22923750D03*
D18*
X241458750Y-21113750D03*
D19*
X241438750Y-21403750D03*
D16*
X301148750Y-64293750D03*
D15*
X296068750Y-64293750D03*
D16*
X290988750Y-64293750D03*
D17*
X292913751Y-61023750D03*
D18*
X293568750Y-60293750D03*
D19*
X298588750Y-59503750D03*
D18*
X298608750Y-59213750D03*
D16*
X138588750Y-26193750D03*
D15*
X143668750Y-26193750D03*
D16*
X148748750Y-26193750D03*
D18*
X141168750Y-22193750D03*
D17*
X140513751Y-22923750D03*
D18*
X146208750Y-21113750D03*
D19*
X146188750Y-21403750D03*
D16*
X195738750Y-26193750D03*
X205898750Y-26193750D03*
D15*
X200818750Y-26193750D03*
D18*
X198318750Y-22193750D03*
D17*
X197663751Y-22923750D03*
D19*
X203338750Y-21403750D03*
D18*
X203358750Y-21113750D03*
D16*
X252888750Y-102393750D03*
D15*
X257968750Y-102393750D03*
D16*
X263048750Y-102393750D03*
D17*
X254813751Y-99123750D03*
D18*
X255468750Y-98393750D03*
D19*
X260488750Y-97603750D03*
D18*
X260508750Y-97313750D03*
D15*
X224631250Y-83343750D03*
D16*
X229711250Y-83343750D03*
X219551250Y-83343750D03*
D17*
X221476251Y-80073750D03*
D18*
X222131250Y-79343750D03*
D19*
X227151250Y-78553750D03*
D18*
X227171250Y-78263750D03*
D16*
X110648750Y-26193750D03*
D15*
X105568750Y-26193750D03*
D16*
X100488750Y-26193750D03*
D17*
X102413751Y-22923750D03*
D18*
X103068750Y-22193750D03*
X108108750Y-21113750D03*
D19*
X108088750Y-21403750D03*
D16*
X62388750Y-26193750D03*
X72548750Y-26193750D03*
D15*
X67468750Y-26193750D03*
D17*
X64313751Y-22923750D03*
D18*
X64968750Y-22193750D03*
X70008750Y-21113750D03*
D19*
X69988750Y-21403750D03*
D16*
X17780000Y-102393750D03*
X7620000Y-102393750D03*
D15*
X12700000Y-102393750D03*
D17*
X9545001Y-99123750D03*
D18*
X10200000Y-98393750D03*
D19*
X15220000Y-97603750D03*
D18*
X15240000Y-97313750D03*
D15*
X153193750Y-45243750D03*
D16*
X158273750Y-45243750D03*
X148113750Y-45243750D03*
D17*
X150038751Y-41973750D03*
D18*
X150693750Y-41243750D03*
X155733750Y-40163750D03*
D19*
X155713750Y-40453750D03*
D16*
X20161250Y-45243750D03*
D15*
X15081250Y-45243750D03*
D16*
X10001250Y-45243750D03*
D18*
X12581250Y-41243750D03*
D17*
X11926251Y-41973750D03*
D19*
X17601250Y-40453750D03*
D18*
X17621250Y-40163750D03*
D15*
X248443750Y-45243750D03*
D16*
X253523750Y-45243750D03*
X243363750Y-45243750D03*
D17*
X245288751Y-41973750D03*
D18*
X245943750Y-41243750D03*
X250983750Y-40163750D03*
D19*
X250963750Y-40453750D03*
D16*
X143351250Y-83343750D03*
X153511250Y-83343750D03*
D15*
X148431250Y-83343750D03*
D18*
X145931250Y-79343750D03*
D17*
X145276251Y-80073750D03*
D19*
X150951250Y-78553750D03*
D18*
X150971250Y-78263750D03*
D16*
X105886250Y-64293750D03*
X95726250Y-64293750D03*
D15*
X100806250Y-64293750D03*
D17*
X97651251Y-61023750D03*
D18*
X98306250Y-60293750D03*
X103346250Y-59213750D03*
D19*
X103326250Y-59503750D03*
D15*
X134143750Y-45243750D03*
D16*
X129063750Y-45243750D03*
X139223750Y-45243750D03*
D18*
X131643750Y-41243750D03*
D17*
X130988751Y-41973750D03*
D18*
X136683750Y-40163750D03*
D19*
X136663750Y-40453750D03*
D16*
X115411250Y-83343750D03*
D15*
X110331250Y-83343750D03*
D16*
X105251250Y-83343750D03*
D18*
X107831250Y-79343750D03*
D17*
X107176251Y-80073750D03*
D18*
X112871250Y-78263750D03*
D19*
X112851250Y-78553750D03*
D16*
X86201250Y-83343750D03*
D15*
X91281250Y-83343750D03*
D16*
X96361250Y-83343750D03*
D17*
X88126251Y-80073750D03*
D18*
X88781250Y-79343750D03*
D19*
X93801250Y-78553750D03*
D18*
X93821250Y-78263750D03*
D16*
X60642500Y-102393750D03*
D15*
X55562500Y-102393750D03*
D16*
X50482500Y-102393750D03*
D17*
X52407501Y-99123750D03*
D18*
X53062500Y-98393750D03*
D19*
X58082500Y-97603750D03*
D18*
X58102500Y-97313750D03*
D16*
X271938750Y-102393750D03*
D15*
X277018750Y-102393750D03*
D16*
X282098750Y-102393750D03*
D17*
X273863751Y-99123750D03*
D18*
X274518750Y-98393750D03*
X279558750Y-97313750D03*
D19*
X279538750Y-97603750D03*
D15*
X127000000Y-102393750D03*
X77000100Y-94138750D03*
D20*
X176999900Y-109378750D03*
X77000100Y-109378750D03*
D16*
X132080000Y-102393750D03*
X121920000Y-102393750D03*
D15*
X176999900Y-94138750D03*
D18*
X124500000Y-98393750D03*
D17*
X123845001Y-99123750D03*
D18*
X129540000Y-97313750D03*
D19*
X129520000Y-97603750D03*
D16*
X22542500Y-64293750D03*
D15*
X17462500Y-64293750D03*
D16*
X12382500Y-64293750D03*
D18*
X14962500Y-60293750D03*
D17*
X14307501Y-61023750D03*
D18*
X20002500Y-59213750D03*
D19*
X19982500Y-59503750D03*
D16*
X34448750Y-26193750D03*
X24288750Y-26193750D03*
D15*
X29368750Y-26193750D03*
D17*
X26213751Y-22923750D03*
D18*
X26868750Y-22193750D03*
X31908750Y-21113750D03*
D19*
X31888750Y-21403750D03*
D16*
X241617500Y-102393750D03*
X231457500Y-102393750D03*
D15*
X236537500Y-102393750D03*
D18*
X234037500Y-98393750D03*
D17*
X233382501Y-99123750D03*
D19*
X239057500Y-97603750D03*
D18*
X239077500Y-97313750D03*
D16*
X82073750Y-45243750D03*
D15*
X76993750Y-45243750D03*
D16*
X71913750Y-45243750D03*
D17*
X73838751Y-41973750D03*
D18*
X74493750Y-41243750D03*
D19*
X79513750Y-40453750D03*
D18*
X79533750Y-40163750D03*
D16*
X239236250Y-64293750D03*
X229076250Y-64293750D03*
D15*
X234156250Y-64293750D03*
D17*
X231001251Y-61023750D03*
D18*
X231656250Y-60293750D03*
X236696250Y-59213750D03*
D19*
X236676250Y-59503750D03*
D15*
X186531250Y-83343750D03*
D16*
X181451250Y-83343750D03*
X191611250Y-83343750D03*
D18*
X184031250Y-79343750D03*
D17*
X183376251Y-80073750D03*
D18*
X189071250Y-78263750D03*
D19*
X189051250Y-78553750D03*
D16*
X133826250Y-64293750D03*
D15*
X138906250Y-64293750D03*
D16*
X143986250Y-64293750D03*
D18*
X136406250Y-60293750D03*
D17*
X135751251Y-61023750D03*
D19*
X141426250Y-59503750D03*
D18*
X141446250Y-59213750D03*
D16*
X67151250Y-83343750D03*
D15*
X72231250Y-83343750D03*
D16*
X77311250Y-83343750D03*
D17*
X69076251Y-80073750D03*
D18*
X69731250Y-79343750D03*
X74771250Y-78263750D03*
D19*
X74751250Y-78553750D03*
D16*
X290988750Y-102393750D03*
X301148750Y-102393750D03*
D15*
X296068750Y-102393750D03*
D18*
X293568750Y-98393750D03*
D17*
X292913751Y-99123750D03*
D19*
X298588750Y-97603750D03*
D18*
X298608750Y-97313750D03*
D16*
X167798750Y-26193750D03*
X157638750Y-26193750D03*
D15*
X162718750Y-26193750D03*
D18*
X160218750Y-22193750D03*
D17*
X159563751Y-22923750D03*
D19*
X165238750Y-21403750D03*
D18*
X165258750Y-21113750D03*
D20*
X34163000Y-90328750D03*
D16*
X27305000Y-83343750D03*
D15*
X10287000Y-75088750D03*
D16*
X17145000Y-83343750D03*
D20*
X10287000Y-90328750D03*
D15*
X34163000Y-75088750D03*
X22225000Y-83343750D03*
D17*
X19070001Y-80073750D03*
D18*
X19725000Y-79343750D03*
X24765000Y-78263750D03*
D19*
X24745000Y-78553750D03*
D21*
X111810800Y-103694300D03*
X114350800Y-103694300D03*
X111810800Y-106234300D03*
X114350800Y-106234300D03*
X111810800Y-108774300D03*
D22*
X114350800Y-108774300D03*
D15*
X86518750Y-26193750D03*
D16*
X91598750Y-26193750D03*
X81438750Y-26193750D03*
D18*
X84018750Y-22193750D03*
D17*
X83363751Y-22923750D03*
D19*
X89038750Y-21403750D03*
D18*
X89058750Y-21113750D03*
D15*
X215106250Y-64293750D03*
D16*
X210026250Y-64293750D03*
X220186250Y-64293750D03*
D18*
X212606250Y-60293750D03*
D17*
X211951251Y-61023750D03*
D18*
X217646250Y-59213750D03*
D19*
X217626250Y-59503750D03*
D15*
X115093750Y-45243750D03*
D16*
X110013750Y-45243750D03*
X120173750Y-45243750D03*
D18*
X112593750Y-41243750D03*
D17*
X111938751Y-41973750D03*
D19*
X117613750Y-40453750D03*
D18*
X117633750Y-40163750D03*
D16*
X76676250Y-64293750D03*
X86836250Y-64293750D03*
D15*
X81756250Y-64293750D03*
D17*
X78601251Y-61023750D03*
D18*
X79256250Y-60293750D03*
D19*
X84276250Y-59503750D03*
D18*
X84296250Y-59213750D03*
D16*
X58261250Y-83343750D03*
D15*
X53181250Y-83343750D03*
D16*
X48101250Y-83343750D03*
D17*
X50026251Y-80073750D03*
D18*
X50681250Y-79343750D03*
D19*
X55701250Y-78553750D03*
D18*
X55721250Y-78263750D03*
D16*
X172561250Y-83343750D03*
X162401250Y-83343750D03*
D15*
X167481250Y-83343750D03*
D17*
X164326251Y-80073750D03*
D18*
X164981250Y-79343750D03*
D19*
X170001250Y-78553750D03*
D18*
X170021250Y-78263750D03*
D16*
X57626250Y-64293750D03*
D15*
X62706250Y-64293750D03*
D16*
X67786250Y-64293750D03*
D17*
X59551251Y-61023750D03*
D18*
X60206250Y-60293750D03*
X65246250Y-59213750D03*
D19*
X65226250Y-59503750D03*
D15*
X219868750Y-26193750D03*
D16*
X224948750Y-26193750D03*
X214788750Y-26193750D03*
D18*
X217368750Y-22193750D03*
D17*
X216713751Y-22923750D03*
D18*
X222408750Y-21113750D03*
D19*
X222388750Y-21403750D03*
D15*
X191293750Y-45243750D03*
D16*
X186213750Y-45243750D03*
X196373750Y-45243750D03*
D18*
X188793750Y-41243750D03*
D17*
X188138751Y-41973750D03*
D19*
X193813750Y-40453750D03*
D18*
X193833750Y-40163750D03*
D16*
X203517500Y-102393750D03*
D15*
X198437500Y-102393750D03*
D16*
X193357500Y-102393750D03*
D18*
X195937500Y-98393750D03*
D17*
X195282501Y-99123750D03*
D18*
X200977500Y-97313750D03*
D19*
X200957500Y-97603750D03*
D15*
X10318750Y-26193750D03*
D16*
X15398750Y-26193750D03*
X5238750Y-26193750D03*
D18*
X7818750Y-22193750D03*
D17*
X7163751Y-22923750D03*
D18*
X12858750Y-21113750D03*
D19*
X12838750Y-21403750D03*
D15*
X296068750Y-83343750D03*
D16*
X290988750Y-83343750D03*
X301148750Y-83343750D03*
D17*
X292913751Y-80073750D03*
D18*
X293568750Y-79343750D03*
X298608750Y-78263750D03*
D19*
X298588750Y-78553750D03*
D15*
X250825000Y-83343750D03*
D16*
X245745000Y-83343750D03*
X255905000Y-83343750D03*
D18*
X248325000Y-79343750D03*
D17*
X247670001Y-80073750D03*
D18*
X253365000Y-78263750D03*
D19*
X253345000Y-78553750D03*
D16*
X63023750Y-45243750D03*
D15*
X57943750Y-45243750D03*
D16*
X52863750Y-45243750D03*
D18*
X55443750Y-41243750D03*
D17*
X54788751Y-41973750D03*
D18*
X60483750Y-40163750D03*
D19*
X60463750Y-40453750D03*
D16*
X43338750Y-26193750D03*
D15*
X48418750Y-26193750D03*
D16*
X53498750Y-26193750D03*
D18*
X45918750Y-22193750D03*
D17*
X45263751Y-22923750D03*
D18*
X50958750Y-21113750D03*
D19*
X50938750Y-21403750D03*
D16*
X186848750Y-26193750D03*
X176688750Y-26193750D03*
D15*
X181768750Y-26193750D03*
D17*
X178613751Y-22923750D03*
D18*
X179268750Y-22193750D03*
X184308750Y-21113750D03*
D19*
X184288750Y-21403750D03*
D15*
X157956250Y-64293750D03*
D16*
X163036250Y-64293750D03*
X152876250Y-64293750D03*
D17*
X154801251Y-61023750D03*
D18*
X155456250Y-60293750D03*
D19*
X160476250Y-59503750D03*
D18*
X160496250Y-59213750D03*
D16*
X134461250Y-83343750D03*
D15*
X129381250Y-83343750D03*
D16*
X124301250Y-83343750D03*
D18*
X126881250Y-79343750D03*
D17*
X126226251Y-80073750D03*
D18*
X131921250Y-78263750D03*
D19*
X131901250Y-78553750D03*
D16*
X201136250Y-64293750D03*
D15*
X196056250Y-64293750D03*
D16*
X190976250Y-64293750D03*
D18*
X193556250Y-60293750D03*
D17*
X192901251Y-61023750D03*
D18*
X198596250Y-59213750D03*
D19*
X198576250Y-59503750D03*
D16*
X43973750Y-45243750D03*
D15*
X38893750Y-45243750D03*
D16*
X33813750Y-45243750D03*
D18*
X36393750Y-41243750D03*
D17*
X35738751Y-41973750D03*
D18*
X41433750Y-40163750D03*
D19*
X41413750Y-40453750D03*
D16*
X114776250Y-64293750D03*
D15*
X119856250Y-64293750D03*
D16*
X124936250Y-64293750D03*
D18*
X117356250Y-60293750D03*
D17*
X116701251Y-61023750D03*
D18*
X122396250Y-59213750D03*
D19*
X122376250Y-59503750D03*
D16*
X234473750Y-45243750D03*
X224313750Y-45243750D03*
D15*
X229393750Y-45243750D03*
D17*
X226238751Y-41973750D03*
D18*
X226893750Y-41243750D03*
D19*
X231913750Y-40453750D03*
D18*
X231933750Y-40163750D03*
D23*
X280193750Y-46893750D03*
X280193750Y-43593750D03*
X103981250Y-46893750D03*
X103981250Y-43593750D03*
X89693750Y-65943750D03*
X89693750Y-62643750D03*
X20637500Y-104043750D03*
X20637500Y-100743750D03*
X284956250Y-104043750D03*
X284956250Y-100743750D03*
X134937500Y-104043750D03*
X134937500Y-100743750D03*
D24*
X97917000Y-92141000D03*
X97917000Y-94041000D03*
D23*
X56356250Y-27843750D03*
X56356250Y-24543750D03*
X156368750Y-84993750D03*
X156368750Y-81693750D03*
X84931250Y-46893750D03*
X84931250Y-43593750D03*
D25*
X97004500Y-105156000D03*
X98829500Y-105156000D03*
D23*
X25400000Y-65943750D03*
X25400000Y-62643750D03*
X208756250Y-27843750D03*
X208756250Y-24543750D03*
D26*
X105329600Y-110135600D03*
X101629600Y-103935600D03*
X101629600Y-110135600D03*
X105329600Y-103935600D03*
D23*
X175418750Y-84993750D03*
X175418750Y-81693750D03*
D24*
X95123000Y-106746000D03*
X95123000Y-108646000D03*
D27*
X110017600Y-93974500D03*
X109067600Y-93974500D03*
X108117600Y-93974500D03*
X108117600Y-91699500D03*
X109067600Y-91699500D03*
X110017600Y-91699500D03*
D23*
X265906250Y-104043750D03*
X265906250Y-100743750D03*
X237331250Y-46893750D03*
X237331250Y-43593750D03*
X113506250Y-27843750D03*
X113506250Y-24543750D03*
X232568750Y-84993750D03*
X232568750Y-81693750D03*
X258762500Y-84993750D03*
X258762500Y-81693750D03*
X142081250Y-46893750D03*
X142081250Y-43593750D03*
X61118750Y-84993750D03*
X61118750Y-81693750D03*
X256381250Y-46893750D03*
X256381250Y-43593750D03*
X165893750Y-65943750D03*
X165893750Y-62643750D03*
X151606250Y-27843750D03*
X151606250Y-24543750D03*
X189706250Y-27843750D03*
X189706250Y-24543750D03*
X123031250Y-46893750D03*
X123031250Y-43593750D03*
X108743750Y-65943750D03*
X108743750Y-62643750D03*
X275431250Y-27843750D03*
X275431250Y-24543750D03*
D28*
X90050982Y-107751929D03*
X91736279Y-106337796D03*
X92829018Y-107640071D03*
X91143721Y-109054204D03*
D23*
X213518750Y-84993750D03*
X213518750Y-81693750D03*
X180181250Y-46893750D03*
X180181250Y-43593750D03*
X273050000Y-65943750D03*
X273050000Y-62643750D03*
X37306250Y-27843750D03*
X37306250Y-24543750D03*
X206375000Y-104043750D03*
X206375000Y-100743750D03*
X203993750Y-65943750D03*
X203993750Y-62643750D03*
X18256250Y-27843750D03*
X18256250Y-24543750D03*
X170656250Y-27843750D03*
X170656250Y-24543750D03*
X246856250Y-27843750D03*
X246856250Y-24543750D03*
X301117000Y-50672000D03*
X301117000Y-47372000D03*
X227806250Y-27843750D03*
X227806250Y-24543750D03*
X146843750Y-65943750D03*
X146843750Y-62643750D03*
D29*
X84582000Y-92860500D03*
X84582000Y-91035500D03*
D23*
X301117000Y-69849000D03*
X301117000Y-66549000D03*
X244475000Y-104043750D03*
X244475000Y-100743750D03*
D24*
X87757000Y-108773000D03*
X87757000Y-106873000D03*
D23*
X161131250Y-46893750D03*
X161131250Y-43593750D03*
X99218750Y-84993750D03*
X99218750Y-81693750D03*
X301117000Y-88899000D03*
X301117000Y-85599000D03*
X70643750Y-65943750D03*
X70643750Y-62643750D03*
X284956250Y-84993750D03*
X284956250Y-81693750D03*
X301117000Y-107949000D03*
X301117000Y-104649000D03*
X132556250Y-27843750D03*
X132556250Y-24543750D03*
X137318750Y-84993750D03*
X137318750Y-81693750D03*
X65881250Y-46893750D03*
X65881250Y-43593750D03*
X23018750Y-46893750D03*
X23018750Y-43593750D03*
X223043750Y-65943750D03*
X223043750Y-62643750D03*
X30162500Y-84993750D03*
X30162500Y-81693750D03*
D10*
X104201000Y-98044000D03*
X102301000Y-98044000D03*
D23*
X218281250Y-46893750D03*
X218281250Y-43593750D03*
D30*
X104163500Y-93980000D03*
X102338500Y-93980000D03*
D23*
X46831250Y-46893750D03*
X46831250Y-43593750D03*
X184943750Y-65943750D03*
X184943750Y-62643750D03*
X242093750Y-65943750D03*
X242093750Y-62643750D03*
X80168750Y-84993750D03*
X80168750Y-81693750D03*
D31*
X109096000Y-97155000D03*
X106296000Y-97155000D03*
D23*
X75406250Y-27843750D03*
X75406250Y-24543750D03*
D11*
X102301000Y-100584000D03*
X104201000Y-100584000D03*
D23*
X118268750Y-85056250D03*
X118268750Y-81756250D03*
X127793750Y-65943750D03*
X127793750Y-62643750D03*
D32*
X85471000Y-98110000D03*
X85471000Y-100010000D03*
D23*
X94456250Y-27843750D03*
X94456250Y-24543750D03*
X63500000Y-104043750D03*
X63500000Y-100743750D03*
X194468750Y-84993750D03*
X194468750Y-81693750D03*
X51593750Y-65943750D03*
X51593750Y-62643750D03*
D10*
X93030000Y-102997000D03*
X94930000Y-102997000D03*
D33*
X118336000Y-90037000D03*
X118336000Y-95637000D03*
D34*
X114461000Y-91337000D03*
X114461000Y-92337000D03*
X114461000Y-93337000D03*
X114461000Y-94337000D03*
D23*
X199231250Y-46893750D03*
X199231250Y-43593750D03*
D30*
X104163500Y-91948000D03*
X102338500Y-91948000D03*
M02*
