M48
; DRILL file {KiCad (6.0.1)} date Fri Jun 10 16:34:40 2022
; FORMAT={-:-/ absolute / metric / decimal}
; #@! TF.CreationDate,2022-06-10T16:34:40-07:00
; #@! TF.GenerationSoftware,Kicad,Pcbnew,(6.0.1)
; #@! TF.FileFunction,Plated,1,2,PTH
FMAT,2
METRIC
; #@! TA.AperFunction,Plated,PTH,ViaDrill
T1C0.400
; #@! TA.AperFunction,Plated,PTH,ComponentDrill
T2C1.000
; #@! TA.AperFunction,Plated,PTH,ComponentDrill
T3C1.470
%
G90
G05
T1
X3.556Y-19.558
X58.801Y-29.718
X67.437Y-87.249
X67.945Y-48.641
X72.39Y-67.437
X73.279Y-103.124
X78.105Y-97.536
X78.232Y-86.36
X81.534Y-105.156
X81.915Y-92.964
X81.915Y-94.107
X81.915Y-95.25
X81.915Y-96.393
X82.677Y-77.216
X84.049Y-99.314
X88.011Y-101.219
X88.011Y-102.743
X88.011Y-104.14
X88.773Y-88.773
X89.662Y-93.98
X89.662Y-95.758
X89.662Y-97.79
X91.694Y-93.98
X91.694Y-95.758
X91.694Y-97.79
X93.726Y-93.9
X93.726Y-95.758
X93.726Y-97.79
X94.107Y-101.473
X96.266Y-103.759
X96.393Y-92.202
X96.52Y-101.092
X97.155Y-103.124
X98.742Y-90.614
X99.695Y-93.853
X99.695Y-96.52
X99.695Y-99.314
X100.711Y-100.203
X101.092Y-98.044
X105.283Y-98.933
X106.172Y-89.789
X106.553Y-95.25
X106.934Y-104.902
X107.823Y-106.23
X108.966Y-89.789
X109.601Y-105.156
X110.744Y-96.52
X113.919Y-102.108
X144.78Y-89.662
X163.068Y-89.281
X224.409Y-88.519
X303.022Y-109.347
T2
X111.811Y-103.694
X111.811Y-106.234
X111.811Y-108.774
X114.351Y-103.694
X114.351Y-106.234
X114.351Y-108.774
T3
X6.509Y-23.654
X7.819Y-22.194
X8.89Y-99.854
X10.2Y-98.394
X11.271Y-42.704
X12.581Y-41.244
X12.819Y-21.694
X12.859Y-21.114
X13.652Y-61.754
X14.962Y-60.294
X15.2Y-97.894
X15.24Y-97.314
X17.581Y-40.744
X17.621Y-40.164
X18.415Y-80.804
X19.725Y-79.344
X19.962Y-59.794
X20.002Y-59.214
X24.725Y-78.844
X24.765Y-78.264
X25.559Y-23.654
X26.869Y-22.194
X31.869Y-21.694
X31.909Y-21.114
X35.084Y-42.704
X36.394Y-41.244
X39.846Y-61.754
X41.156Y-60.294
X41.394Y-40.744
X41.434Y-40.164
X44.609Y-23.654
X45.919Y-22.194
X46.156Y-59.794
X46.196Y-59.214
X49.371Y-80.804
X50.681Y-79.344
X50.919Y-21.694
X50.959Y-21.114
X51.752Y-99.854
X53.062Y-98.394
X54.134Y-42.704
X55.444Y-41.244
X55.681Y-78.844
X55.721Y-78.264
X58.062Y-97.894
X58.102Y-97.314
X58.896Y-61.754
X60.206Y-60.294
X60.444Y-40.744
X60.484Y-40.164
X63.659Y-23.654
X64.969Y-22.194
X65.206Y-59.794
X65.246Y-59.214
X68.421Y-80.804
X69.731Y-79.344
X69.969Y-21.694
X70.009Y-21.114
X73.184Y-42.704
X74.494Y-41.244
X74.731Y-78.844
X74.771Y-78.264
X77.946Y-61.754
X79.256Y-60.294
X79.494Y-40.744
X79.534Y-40.164
X82.709Y-23.654
X84.019Y-22.194
X84.256Y-59.794
X84.296Y-59.214
X87.471Y-80.804
X88.781Y-79.344
X89.019Y-21.694
X89.059Y-21.114
X92.234Y-42.704
X93.544Y-41.244
X93.781Y-78.844
X93.821Y-78.264
X96.996Y-61.754
X98.306Y-60.294
X98.544Y-40.744
X98.584Y-40.164
X101.759Y-23.654
X103.069Y-22.194
X103.306Y-59.794
X103.346Y-59.214
X106.521Y-80.804
X107.831Y-79.344
X108.069Y-21.694
X108.109Y-21.114
X111.284Y-42.704
X112.594Y-41.244
X112.831Y-78.844
X112.871Y-78.264
X116.046Y-61.754
X117.356Y-60.294
X117.594Y-40.744
X117.634Y-40.164
X120.809Y-23.654
X122.119Y-22.194
X122.356Y-59.794
X122.396Y-59.214
X123.19Y-99.854
X124.5Y-98.394
X125.571Y-80.804
X126.881Y-79.344
X127.119Y-21.694
X127.159Y-21.114
X129.5Y-97.894
X129.54Y-97.314
X130.334Y-42.704
X131.644Y-41.244
X131.881Y-78.844
X131.921Y-78.264
X135.096Y-61.754
X136.406Y-60.294
X136.644Y-40.744
X136.684Y-40.164
X139.859Y-23.654
X141.169Y-22.194
X141.406Y-59.794
X141.446Y-59.214
X144.621Y-80.804
X145.931Y-79.344
X146.169Y-21.694
X146.209Y-21.114
X149.384Y-42.704
X150.694Y-41.244
X150.931Y-78.844
X150.971Y-78.264
X154.146Y-61.754
X155.456Y-60.294
X155.694Y-40.744
X155.734Y-40.164
X158.909Y-23.654
X160.219Y-22.194
X160.456Y-59.794
X160.496Y-59.214
X163.671Y-80.804
X164.981Y-79.344
X165.219Y-21.694
X165.259Y-21.114
X168.434Y-42.704
X169.744Y-41.244
X169.981Y-78.844
X170.021Y-78.264
X173.196Y-61.754
X174.506Y-60.294
X174.744Y-40.744
X174.784Y-40.164
X177.959Y-23.654
X179.269Y-22.194
X179.506Y-59.794
X179.546Y-59.214
X182.721Y-80.804
X184.031Y-79.344
X184.269Y-21.694
X184.309Y-21.114
X187.484Y-42.704
X188.794Y-41.244
X189.031Y-78.844
X189.071Y-78.264
X192.246Y-61.754
X193.556Y-60.294
X193.794Y-40.744
X193.834Y-40.164
X194.627Y-99.854
X195.938Y-98.394
X197.009Y-23.654
X198.319Y-22.194
X198.556Y-59.794
X198.596Y-59.214
X200.938Y-97.894
X200.977Y-97.314
X201.771Y-80.804
X203.081Y-79.344
X203.319Y-21.694
X203.359Y-21.114
X206.534Y-42.704
X207.844Y-41.244
X208.081Y-78.844
X208.121Y-78.264
X211.296Y-61.754
X212.606Y-60.294
X212.844Y-40.744
X212.884Y-40.164
X216.059Y-23.654
X217.369Y-22.194
X217.606Y-59.794
X217.646Y-59.214
X220.821Y-80.804
X222.131Y-79.344
X222.369Y-21.694
X222.409Y-21.114
X225.584Y-42.704
X226.894Y-41.244
X227.131Y-78.844
X227.171Y-78.264
X230.346Y-61.754
X231.656Y-60.294
X231.894Y-40.744
X231.934Y-40.164
X232.727Y-99.854
X234.037Y-98.394
X235.109Y-23.654
X236.419Y-22.194
X236.656Y-59.794
X236.696Y-59.214
X239.037Y-97.894
X239.077Y-97.314
X241.419Y-21.694
X241.459Y-21.114
X244.634Y-42.704
X245.944Y-41.244
X247.015Y-80.804
X248.325Y-79.344
X250.944Y-40.744
X250.984Y-40.164
X253.325Y-78.844
X253.365Y-78.264
X254.159Y-99.854
X255.469Y-98.394
X260.469Y-97.894
X260.509Y-97.314
X261.303Y-61.754
X262.613Y-60.294
X263.684Y-23.654
X264.994Y-22.194
X267.613Y-59.794
X267.652Y-59.214
X268.446Y-42.704
X269.756Y-41.244
X269.994Y-21.694
X270.034Y-21.114
X273.209Y-80.804
X273.209Y-99.854
X274.519Y-79.344
X274.519Y-98.394
X274.756Y-40.744
X274.796Y-40.164
X279.519Y-78.844
X279.519Y-97.894
X279.559Y-78.264
X279.559Y-97.314
X292.259Y-42.704
X292.259Y-61.754
X292.259Y-80.804
X292.259Y-99.854
X293.569Y-41.244
X293.569Y-60.294
X293.569Y-79.344
X293.569Y-98.394
X298.569Y-40.744
X298.569Y-59.794
X298.569Y-78.844
X298.569Y-97.894
X298.609Y-40.164
X298.609Y-59.214
X298.609Y-78.264
X298.609Y-97.314
T0
M30
