G04 #@! TF.GenerationSoftware,KiCad,Pcbnew,(6.0.1)*
G04 #@! TF.CreationDate,2022-06-10T16:34:35-07:00*
G04 #@! TF.ProjectId,artemis-65,61727465-6d69-4732-9d36-352e6b696361,rev?*
G04 #@! TF.SameCoordinates,Original*
G04 #@! TF.FileFunction,Profile,NP*
%FSLAX46Y46*%
G04 Gerber Fmt 4.6, Leading zero omitted, Abs format (unit mm)*
G04 Created by KiCad (PCBNEW (6.0.1)) date 2022-06-10 16:34:35*
%MOMM*%
%LPD*%
G01*
G04 APERTURE LIST*
G04 #@! TA.AperFunction,Profile*
%ADD10C,0.050000*%
G04 #@! TD*
G04 APERTURE END LIST*
D10*
X193294000Y-111760000D02*
X208026000Y-111762223D01*
X24384000Y-109601000D02*
X24384000Y-94869000D01*
X305409600Y-109601000D02*
X305435000Y-38100000D01*
X70358000Y-110871000D02*
G75*
G03*
X64516000Y-110871000I-2921000J-889835D01*
G01*
X3177644Y-111757356D02*
X22225000Y-111760000D01*
X224790000Y-109601000D02*
G75*
G03*
X226949000Y-111760000I2158998J-2D01*
G01*
X24064631Y-16891000D02*
G75*
G03*
X22733000Y-17780000I1J-1441825D01*
G01*
X305435000Y-38100000D02*
G75*
G03*
X303276000Y-35941000I-2158998J2D01*
G01*
X226949000Y-111760000D02*
X263209369Y-111760000D01*
X71755000Y-111760000D02*
X184723369Y-111760000D01*
X43815000Y-94869000D02*
G75*
G03*
X41656000Y-92710000I-2158998J2D01*
G01*
X191897000Y-110871000D02*
G75*
G03*
X186055000Y-110871000I-2921000J-889835D01*
G01*
X22225000Y-111760000D02*
G75*
G03*
X24384000Y-109601000I2J2158998D01*
G01*
X184723369Y-111760000D02*
G75*
G03*
X186055000Y-110871000I-1J1441825D01*
G01*
X245110000Y-16891000D02*
X157414631Y-16891000D01*
X148844000Y-16891000D02*
X24064631Y-16891000D01*
X286257999Y-19050000D02*
G75*
G03*
X284099000Y-16888541I-2161461J-1D01*
G01*
X284099000Y-16888541D02*
X271714631Y-16886305D01*
X286260644Y-33779356D02*
X286258000Y-19050000D01*
X271714631Y-16886305D02*
X253680631Y-16891000D01*
X1018644Y-109598356D02*
X1018644Y-19052644D01*
X286260644Y-33779356D02*
G75*
G03*
X288419644Y-35938356I2158998J-2D01*
G01*
X263209369Y-111760000D02*
G75*
G03*
X264541000Y-110871000I-1J1441825D01*
G01*
X70358000Y-110871000D02*
G75*
G03*
X71755000Y-111760000I1396999J653141D01*
G01*
X270383000Y-110871000D02*
G75*
G03*
X264541000Y-110871000I-2921000J-889835D01*
G01*
X224790000Y-94869000D02*
X224790000Y-109601000D01*
X26543000Y-92710000D02*
G75*
G03*
X24384000Y-94869000I-2J-2158998D01*
G01*
X43817644Y-109598356D02*
G75*
G03*
X45976644Y-111757356I2158998J-2D01*
G01*
X271780000Y-111760000D02*
X303250600Y-111760000D01*
X3177644Y-16893644D02*
G75*
G03*
X1018644Y-19052644I-2J-2158998D01*
G01*
X224790000Y-94869000D02*
G75*
G03*
X222631000Y-92710000I-2158998J2D01*
G01*
X246507000Y-17780000D02*
G75*
G03*
X252349000Y-17780000I2921000J889835D01*
G01*
X63184369Y-111760000D02*
G75*
G03*
X64516000Y-110871000I-1J1441825D01*
G01*
X43815000Y-94869000D02*
X43817644Y-109598356D01*
X303276000Y-35941000D02*
X288419644Y-35938356D01*
X212344000Y-92710000D02*
X222631000Y-92710000D01*
X303250600Y-111760000D02*
G75*
G03*
X305409600Y-109601000I2J2158998D01*
G01*
X45976644Y-111757356D02*
X63184369Y-111760000D01*
X16891000Y-17780000D02*
G75*
G03*
X22733000Y-17780000I2921000J889835D01*
G01*
X208026000Y-111762223D02*
G75*
G03*
X210185000Y-109601000I-2224J2161223D01*
G01*
X253680631Y-16891000D02*
G75*
G03*
X252349000Y-17780000I1J-1441825D01*
G01*
X15494000Y-16891000D02*
X3177644Y-16893644D01*
X150241000Y-17780000D02*
G75*
G03*
X156083000Y-17780000I2921000J889835D01*
G01*
X1018644Y-109598356D02*
G75*
G03*
X3177644Y-111757356I2158998J-2D01*
G01*
X157414631Y-16891000D02*
G75*
G03*
X156083000Y-17780000I1J-1441825D01*
G01*
X246507000Y-17780000D02*
G75*
G03*
X245110000Y-16891000I-1396999J-653141D01*
G01*
X26543000Y-92710000D02*
X41656000Y-92710000D01*
X210185000Y-109601000D02*
X210185000Y-94869000D01*
X270383000Y-110871000D02*
G75*
G03*
X271780000Y-111760000I1396999J653141D01*
G01*
X150241000Y-17780000D02*
G75*
G03*
X148844000Y-16891000I-1396999J-653141D01*
G01*
X212344000Y-92710000D02*
G75*
G03*
X210185000Y-94869000I-2J-2158998D01*
G01*
X191897000Y-110871000D02*
G75*
G03*
X193294000Y-111760000I1396999J653141D01*
G01*
X16891000Y-17780000D02*
G75*
G03*
X15494000Y-16891000I-1396999J-653141D01*
G01*
M02*
