<?xml version="1.0"?>
<!-- Generated by SVGo -->
<svg width="314.802mm" height="105.252mm"
     viewBox="0.000 0.000 314.802 105.252"
     xmlns="http://www.w3.org/2000/svg" 
     xmlns:xlink="http://www.w3.org/1999/xlink">
<polygon points="309.802,100.251 5.001,100.251 5.001,5.001 309.802,5.001" style="fill:none;stroke-width:0.050000mm;stroke:black"/>
<polygon points="124.207,83.726 124.207,84.726 123.407,84.726 123.407,87.825 124.207,87.825 124.207,88.426 84.582,88.426 84.582,85.196 77.832,85.196 77.832,88.426 77.007,88.426 77.007,91.226 77.832,91.226 77.832,97.495 79.557,97.495 79.557,98.696 82.857,98.696 82.857,97.495 84.582,97.495 84.582,93.025 124.207,93.025 124.207,93.626 123.407,93.626 123.407,96.726 124.207,96.726 124.207,97.726 138.207,97.726 138.207,96.726 139.007,96.726 139.007,93.626 138.207,93.626 138.207,93.025 177.832,93.025 177.832,97.495 179.557,97.495 179.557,98.696 182.857,98.696 182.857,97.495 184.582,97.495 184.582,91.226 185.407,91.226 185.407,88.426 184.582,88.426 184.582,85.196 177.832,85.196 177.832,88.426 138.207,88.426 138.207,87.825 139.007,87.825 139.007,84.726 138.207,84.726 138.207,83.726" style="fill:none;stroke-width:0.050000mm;stroke:black"/>
<polygon points="9.907,83.726 9.907,84.726 9.107,84.726 9.107,87.825 9.907,87.825 9.907,93.626 9.107,93.626 9.107,96.726 9.907,96.726 9.907,97.726 23.907,97.726 23.907,96.726 24.707,96.726 24.707,93.626 23.907,93.626 23.907,87.825 24.707,87.825 24.707,84.726 23.907,84.726 23.907,83.726" style="fill:none;stroke-width:0.050000mm;stroke:black"/>
<polygon points="52.769,83.726 52.769,84.726 51.969,84.726 51.969,87.825 52.769,87.825 52.769,93.626 51.969,93.626 51.969,96.726 52.769,96.726 52.769,97.726 66.769,97.726 66.769,96.726 67.569,96.726 67.569,93.626 66.769,93.626 66.769,87.825 67.569,87.825 67.569,84.726 66.769,84.726 66.769,83.726" style="fill:none;stroke-width:0.050000mm;stroke:black"/>
<polygon points="195.644,83.726 195.644,84.726 194.844,84.726 194.844,87.825 195.644,87.825 195.644,93.626 194.844,93.626 194.844,96.726 195.644,96.726 195.644,97.726 209.644,97.726 209.644,96.726 210.444,96.726 210.444,93.626 209.644,93.626 209.644,87.825 210.444,87.825 210.444,84.726 209.644,84.726 209.644,83.726" style="fill:none;stroke-width:0.050000mm;stroke:black"/>
<polygon points="233.744,83.726 233.744,84.726 232.944,84.726 232.944,87.825 233.744,87.825 233.744,93.626 232.944,93.626 232.944,96.726 233.744,96.726 233.744,97.726 247.744,97.726 247.744,96.726 248.544,96.726 248.544,93.626 247.744,93.626 247.744,87.825 248.544,87.825 248.544,84.726 247.744,84.726 247.744,83.726" style="fill:none;stroke-width:0.050000mm;stroke:black"/>
<polygon points="255.176,83.726 255.176,84.726 254.376,84.726 254.376,87.825 255.176,87.825 255.176,93.626 254.376,93.626 254.376,96.726 255.176,96.726 255.176,97.726 269.176,97.726 269.176,96.726 269.976,96.726 269.976,93.626 269.176,93.626 269.176,87.825 269.976,87.825 269.976,84.726 269.176,84.726 269.176,83.726" style="fill:none;stroke-width:0.050000mm;stroke:black"/>
<polygon points="274.226,83.726 274.226,84.726 273.426,84.726 273.426,87.825 274.226,87.825 274.226,93.626 273.426,93.626 273.426,96.726 274.226,96.726 274.226,97.726 288.226,97.726 288.226,96.726 289.026,96.726 289.026,93.626 288.226,93.626 288.226,87.825 289.026,87.825 289.026,84.726 288.226,84.726 288.226,83.726" style="fill:none;stroke-width:0.050000mm;stroke:black"/>
<polygon points="293.276,83.726 293.276,84.726 292.476,84.726 292.476,87.825 293.276,87.825 293.276,93.626 292.476,93.626 292.476,96.726 293.276,96.726 293.276,97.726 307.276,97.726 307.276,96.726 308.076,96.726 308.076,93.626 307.276,93.626 307.276,87.825 308.076,87.825 308.076,84.726 307.276,84.726 307.276,83.726" style="fill:none;stroke-width:0.050000mm;stroke:black"/>
<polygon points="19.432,64.676 19.432,65.676 18.632,65.676 18.632,68.775 19.432,68.775 19.432,69.376 17.907,69.376 17.907,66.146 11.157,66.146 11.157,69.376 10.332,69.376 10.332,72.176 11.157,72.176 11.157,78.446 12.882,78.446 12.882,79.646 16.182,79.646 16.182,78.446 17.907,78.446 17.907,73.976 19.432,73.976 19.432,74.576 18.632,74.576 18.632,77.676 19.432,77.676 19.432,78.676 33.432,78.676 33.432,77.676 34.232,77.676 34.232,74.576 33.432,74.576 33.432,73.976 34.957,73.976 34.957,78.446 36.682,78.446 36.682,79.646 39.982,79.646 39.982,78.446 41.707,78.446 41.707,72.176 42.532,72.176 42.532,69.376 41.707,69.376 41.707,66.146 34.957,66.146 34.957,69.376 33.432,69.376 33.432,68.775 34.232,68.775 34.232,65.676 33.432,65.676 33.432,64.676" style="fill:none;stroke-width:0.050000mm;stroke:black"/>
<polygon points="50.388,64.676 50.388,65.676 49.588,65.676 49.588,68.775 50.388,68.775 50.388,74.576 49.588,74.576 49.588,77.676 50.388,77.676 50.388,78.676 64.388,78.676 64.388,77.676 65.188,77.676 65.188,74.576 64.388,74.576 64.388,68.775 65.188,68.775 65.188,65.676 64.388,65.676 64.388,64.676" style="fill:none;stroke-width:0.050000mm;stroke:black"/>
<polygon points="69.438,64.676 69.438,65.676 68.638,65.676 68.638,68.775 69.438,68.775 69.438,74.576 68.638,74.576 68.638,77.676 69.438,77.676 69.438,78.676 83.438,78.676 83.438,77.676 84.238,77.676 84.238,74.576 83.438,74.576 83.438,68.775 84.238,68.775 84.238,65.676 83.438,65.676 83.438,64.676" style="fill:none;stroke-width:0.050000mm;stroke:black"/>
<polygon points="88.488,64.676 88.488,65.676 87.688,65.676 87.688,68.775 88.488,68.775 88.488,74.576 87.688,74.576 87.688,77.676 88.488,77.676 88.488,78.676 102.488,78.676 102.488,77.676 103.288,77.676 103.288,74.576 102.488,74.576 102.488,68.775 103.288,68.775 103.288,65.676 102.488,65.676 102.488,64.676" style="fill:none;stroke-width:0.050000mm;stroke:black"/>
<polygon points="107.538,64.676 107.538,65.676 106.738,65.676 106.738,68.775 107.538,68.775 107.538,74.576 106.738,74.576 106.738,77.676 107.538,77.676 107.538,78.676 121.538,78.676 121.538,77.676 122.338,77.676 122.338,74.576 121.538,74.576 121.538,68.775 122.338,68.775 122.338,65.676 121.538,65.676 121.538,64.676" style="fill:none;stroke-width:0.050000mm;stroke:black"/>
<polygon points="126.588,64.676 126.588,65.676 125.788,65.676 125.788,68.775 126.588,68.775 126.588,74.576 125.788,74.576 125.788,77.676 126.588,77.676 126.588,78.676 140.588,78.676 140.588,77.676 141.388,77.676 141.388,74.576 140.588,74.576 140.588,68.775 141.388,68.775 141.388,65.676 140.588,65.676 140.588,64.676" style="fill:none;stroke-width:0.050000mm;stroke:black"/>
<polygon points="145.638,64.676 145.638,65.676 144.838,65.676 144.838,68.775 145.638,68.775 145.638,74.576 144.838,74.576 144.838,77.676 145.638,77.676 145.638,78.676 159.638,78.676 159.638,77.676 160.438,77.676 160.438,74.576 159.638,74.576 159.638,68.775 160.438,68.775 160.438,65.676 159.638,65.676 159.638,64.676" style="fill:none;stroke-width:0.050000mm;stroke:black"/>
<polygon points="164.688,64.676 164.688,65.676 163.888,65.676 163.888,68.775 164.688,68.775 164.688,74.576 163.888,74.576 163.888,77.676 164.688,77.676 164.688,78.676 178.688,78.676 178.688,77.676 179.488,77.676 179.488,74.576 178.688,74.576 178.688,68.775 179.488,68.775 179.488,65.676 178.688,65.676 178.688,64.676" style="fill:none;stroke-width:0.050000mm;stroke:black"/>
<polygon points="183.738,64.676 183.738,65.676 182.938,65.676 182.938,68.775 183.738,68.775 183.738,74.576 182.938,74.576 182.938,77.676 183.738,77.676 183.738,78.676 197.738,78.676 197.738,77.676 198.538,77.676 198.538,74.576 197.738,74.576 197.738,68.775 198.538,68.775 198.538,65.676 197.738,65.676 197.738,64.676" style="fill:none;stroke-width:0.050000mm;stroke:black"/>
<polygon points="202.788,64.676 202.788,65.676 201.988,65.676 201.988,68.775 202.788,68.775 202.788,74.576 201.988,74.576 201.988,77.676 202.788,77.676 202.788,78.676 216.788,78.676 216.788,77.676 217.588,77.676 217.588,74.576 216.788,74.576 216.788,68.775 217.588,68.775 217.588,65.676 216.788,65.676 216.788,64.676" style="fill:none;stroke-width:0.050000mm;stroke:black"/>
<polygon points="221.838,64.676 221.838,65.676 221.038,65.676 221.038,68.775 221.838,68.775 221.838,74.576 221.038,74.576 221.038,77.676 221.838,77.676 221.838,78.676 235.838,78.676 235.838,77.676 236.638,77.676 236.638,74.576 235.838,74.576 235.838,68.775 236.638,68.775 236.638,65.676 235.838,65.676 235.838,64.676" style="fill:none;stroke-width:0.050000mm;stroke:black"/>
<polygon points="248.032,64.676 248.032,65.676 247.232,65.676 247.232,68.775 248.032,68.775 248.032,74.576 247.232,74.576 247.232,77.676 248.032,77.676 248.032,78.676 262.032,78.676 262.032,77.676 262.832,77.676 262.832,74.576 262.032,74.576 262.032,68.775 262.832,68.775 262.832,65.676 262.032,65.676 262.032,64.676" style="fill:none;stroke-width:0.050000mm;stroke:black"/>
<polygon points="274.226,64.676 274.226,65.676 273.426,65.676 273.426,68.775 274.226,68.775 274.226,74.576 273.426,74.576 273.426,77.676 274.226,77.676 274.226,78.676 288.226,78.676 288.226,77.676 289.026,77.676 289.026,74.576 288.226,74.576 288.226,68.775 289.026,68.775 289.026,65.676 288.226,65.676 288.226,64.676" style="fill:none;stroke-width:0.050000mm;stroke:black"/>
<polygon points="293.276,64.676 293.276,65.676 292.476,65.676 292.476,68.775 293.276,68.775 293.276,74.576 292.476,74.576 292.476,77.676 293.276,77.676 293.276,78.676 307.276,78.676 307.276,77.676 308.076,77.676 308.076,74.576 307.276,74.576 307.276,68.775 308.076,68.775 308.076,65.676 307.276,65.676 307.276,64.676" style="fill:none;stroke-width:0.050000mm;stroke:black"/>
<polygon points="262.319,45.626 262.319,46.626 261.518,46.626 261.518,49.726 262.319,49.726 262.319,50.326 260.794,50.326 260.794,47.096 254.044,47.096 254.044,50.326 253.219,50.326 253.219,53.126 254.044,53.126 254.044,59.395 255.769,59.395 255.769,60.596 259.068,60.596 259.068,59.395 260.794,59.395 260.794,54.926 262.319,54.926 262.319,55.526 261.518,55.526 261.518,58.626 262.319,58.626 262.319,59.626 276.319,59.626 276.319,58.626 277.119,58.626 277.119,55.526 276.319,55.526 276.319,54.926 277.844,54.926 277.844,59.395 279.569,59.395 279.569,60.596 282.869,60.596 282.869,59.395 284.594,59.395 284.594,53.126 285.419,53.126 285.419,50.326 284.594,50.326 284.594,47.096 277.844,47.096 277.844,50.326 276.319,50.326 276.319,49.726 277.119,49.726 277.119,46.626 276.319,46.626 276.319,45.626" style="fill:none;stroke-width:0.050000mm;stroke:black"/>
<polygon points="14.669,45.626 14.669,46.626 13.869,46.626 13.869,49.726 14.669,49.726 14.669,55.526 13.869,55.526 13.869,58.626 14.669,58.626 14.669,59.626 28.669,59.626 28.669,58.626 29.469,58.626 29.469,55.526 28.669,55.526 28.669,49.726 29.469,49.726 29.469,46.626 28.669,46.626 28.669,45.626" style="fill:none;stroke-width:0.050000mm;stroke:black"/>
<polygon points="40.863,45.626 40.863,46.626 40.063,46.626 40.063,49.726 40.863,49.726 40.863,55.526 40.063,55.526 40.063,58.626 40.863,58.626 40.863,59.626 54.863,59.626 54.863,58.626 55.663,58.626 55.663,55.526 54.863,55.526 54.863,49.726 55.663,49.726 55.663,46.626 54.863,46.626 54.863,45.626" style="fill:none;stroke-width:0.050000mm;stroke:black"/>
<polygon points="59.913,45.626 59.913,46.626 59.113,46.626 59.113,49.726 59.913,49.726 59.913,55.526 59.113,55.526 59.113,58.626 59.913,58.626 59.913,59.626 73.913,59.626 73.913,58.626 74.713,58.626 74.713,55.526 73.913,55.526 73.913,49.726 74.713,49.726 74.713,46.626 73.913,46.626 73.913,45.626" style="fill:none;stroke-width:0.050000mm;stroke:black"/>
<polygon points="78.963,45.626 78.963,46.626 78.163,46.626 78.163,49.726 78.963,49.726 78.963,55.526 78.163,55.526 78.163,58.626 78.963,58.626 78.963,59.626 92.963,59.626 92.963,58.626 93.763,58.626 93.763,55.526 92.963,55.526 92.963,49.726 93.763,49.726 93.763,46.626 92.963,46.626 92.963,45.626" style="fill:none;stroke-width:0.050000mm;stroke:black"/>
<polygon points="98.013,45.626 98.013,46.626 97.213,46.626 97.213,49.726 98.013,49.726 98.013,55.526 97.213,55.526 97.213,58.626 98.013,58.626 98.013,59.626 112.013,59.626 112.013,58.626 112.813,58.626 112.813,55.526 112.013,55.526 112.013,49.726 112.813,49.726 112.813,46.626 112.013,46.626 112.013,45.626" style="fill:none;stroke-width:0.050000mm;stroke:black"/>
<polygon points="117.063,45.626 117.063,46.626 116.263,46.626 116.263,49.726 117.063,49.726 117.063,55.526 116.263,55.526 116.263,58.626 117.063,58.626 117.063,59.626 131.063,59.626 131.063,58.626 131.863,58.626 131.863,55.526 131.063,55.526 131.063,49.726 131.863,49.726 131.863,46.626 131.063,46.626 131.063,45.626" style="fill:none;stroke-width:0.050000mm;stroke:black"/>
<polygon points="136.113,45.626 136.113,46.626 135.313,46.626 135.313,49.726 136.113,49.726 136.113,55.526 135.313,55.526 135.313,58.626 136.113,58.626 136.113,59.626 150.113,59.626 150.113,58.626 150.913,58.626 150.913,55.526 150.113,55.526 150.113,49.726 150.913,49.726 150.913,46.626 150.113,46.626 150.113,45.626" style="fill:none;stroke-width:0.050000mm;stroke:black"/>
<polygon points="155.163,45.626 155.163,46.626 154.363,46.626 154.363,49.726 155.163,49.726 155.163,55.526 154.363,55.526 154.363,58.626 155.163,58.626 155.163,59.626 169.163,59.626 169.163,58.626 169.963,58.626 169.963,55.526 169.163,55.526 169.163,49.726 169.963,49.726 169.963,46.626 169.163,46.626 169.163,45.626" style="fill:none;stroke-width:0.050000mm;stroke:black"/>
<polygon points="174.213,45.626 174.213,46.626 173.413,46.626 173.413,49.726 174.213,49.726 174.213,55.526 173.413,55.526 173.413,58.626 174.213,58.626 174.213,59.626 188.213,59.626 188.213,58.626 189.013,58.626 189.013,55.526 188.213,55.526 188.213,49.726 189.013,49.726 189.013,46.626 188.213,46.626 188.213,45.626" style="fill:none;stroke-width:0.050000mm;stroke:black"/>
<polygon points="193.263,45.626 193.263,46.626 192.463,46.626 192.463,49.726 193.263,49.726 193.263,55.526 192.463,55.526 192.463,58.626 193.263,58.626 193.263,59.626 207.263,59.626 207.263,58.626 208.063,58.626 208.063,55.526 207.263,55.526 207.263,49.726 208.063,49.726 208.063,46.626 207.263,46.626 207.263,45.626" style="fill:none;stroke-width:0.050000mm;stroke:black"/>
<polygon points="212.313,45.626 212.313,46.626 211.513,46.626 211.513,49.726 212.313,49.726 212.313,55.526 211.513,55.526 211.513,58.626 212.313,58.626 212.313,59.626 226.313,59.626 226.313,58.626 227.113,58.626 227.113,55.526 226.313,55.526 226.313,49.726 227.113,49.726 227.113,46.626 226.313,46.626 226.313,45.626" style="fill:none;stroke-width:0.050000mm;stroke:black"/>
<polygon points="231.363,45.626 231.363,46.626 230.563,46.626 230.563,49.726 231.363,49.726 231.363,55.526 230.563,55.526 230.563,58.626 231.363,58.626 231.363,59.626 245.363,59.626 245.363,58.626 246.163,58.626 246.163,55.526 245.363,55.526 245.363,49.726 246.163,49.726 246.163,46.626 245.363,46.626 245.363,45.626" style="fill:none;stroke-width:0.050000mm;stroke:black"/>
<polygon points="293.276,45.626 293.276,46.626 292.476,46.626 292.476,49.726 293.276,49.726 293.276,55.526 292.476,55.526 292.476,58.626 293.276,58.626 293.276,59.626 307.276,59.626 307.276,58.626 308.076,58.626 308.076,55.526 307.276,55.526 307.276,49.726 308.076,49.726 308.076,46.626 307.276,46.626 307.276,45.626" style="fill:none;stroke-width:0.050000mm;stroke:black"/>
<polygon points="12.288,26.576 12.288,27.576 11.488,27.576 11.488,30.676 12.288,30.676 12.288,36.476 11.488,36.476 11.488,39.576 12.288,39.576 12.288,40.576 26.288,40.576 26.288,39.576 27.088,39.576 27.088,36.476 26.288,36.476 26.288,30.676 27.088,30.676 27.088,27.576 26.288,27.576 26.288,26.576" style="fill:none;stroke-width:0.050000mm;stroke:black"/>
<polygon points="36.101,26.576 36.101,27.576 35.301,27.576 35.301,30.676 36.101,30.676 36.101,36.476 35.301,36.476 35.301,39.576 36.101,39.576 36.101,40.576 50.101,40.576 50.101,39.576 50.901,39.576 50.901,36.476 50.101,36.476 50.101,30.676 50.901,30.676 50.901,27.576 50.101,27.576 50.101,26.576" style="fill:none;stroke-width:0.050000mm;stroke:black"/>
<polygon points="55.151,26.576 55.151,27.576 54.351,27.576 54.351,30.676 55.151,30.676 55.151,36.476 54.351,36.476 54.351,39.576 55.151,39.576 55.151,40.576 69.151,40.576 69.151,39.576 69.951,39.576 69.951,36.476 69.151,36.476 69.151,30.676 69.951,30.676 69.951,27.576 69.151,27.576 69.151,26.576" style="fill:none;stroke-width:0.050000mm;stroke:black"/>
<polygon points="74.201,26.576 74.201,27.576 73.401,27.576 73.401,30.676 74.201,30.676 74.201,36.476 73.401,36.476 73.401,39.576 74.201,39.576 74.201,40.576 88.201,40.576 88.201,39.576 89.001,39.576 89.001,36.476 88.201,36.476 88.201,30.676 89.001,30.676 89.001,27.576 88.201,27.576 88.201,26.576" style="fill:none;stroke-width:0.050000mm;stroke:black"/>
<polygon points="93.251,26.576 93.251,27.576 92.451,27.576 92.451,30.676 93.251,30.676 93.251,36.476 92.451,36.476 92.451,39.576 93.251,39.576 93.251,40.576 107.251,40.576 107.251,39.576 108.051,39.576 108.051,36.476 107.251,36.476 107.251,30.676 108.051,30.676 108.051,27.576 107.251,27.576 107.251,26.576" style="fill:none;stroke-width:0.050000mm;stroke:black"/>
<polygon points="112.301,26.576 112.301,27.576 111.501,27.576 111.501,30.676 112.301,30.676 112.301,36.476 111.501,36.476 111.501,39.576 112.301,39.576 112.301,40.576 126.301,40.576 126.301,39.576 127.101,39.576 127.101,36.476 126.301,36.476 126.301,30.676 127.101,30.676 127.101,27.576 126.301,27.576 126.301,26.576" style="fill:none;stroke-width:0.050000mm;stroke:black"/>
<polygon points="131.351,26.576 131.351,27.576 130.550,27.576 130.550,30.676 131.351,30.676 131.351,36.476 130.550,36.476 130.550,39.576 131.351,39.576 131.351,40.576 145.351,40.576 145.351,39.576 146.151,39.576 146.151,36.476 145.351,36.476 145.351,30.676 146.151,30.676 146.151,27.576 145.351,27.576 145.351,26.576" style="fill:none;stroke-width:0.050000mm;stroke:black"/>
<polygon points="150.401,26.576 150.401,27.576 149.601,27.576 149.601,30.676 150.401,30.676 150.401,36.476 149.601,36.476 149.601,39.576 150.401,39.576 150.401,40.576 164.401,40.576 164.401,39.576 165.201,39.576 165.201,36.476 164.401,36.476 164.401,30.676 165.201,30.676 165.201,27.576 164.401,27.576 164.401,26.576" style="fill:none;stroke-width:0.050000mm;stroke:black"/>
<polygon points="169.451,26.576 169.451,27.576 168.651,27.576 168.651,30.676 169.451,30.676 169.451,36.476 168.651,36.476 168.651,39.576 169.451,39.576 169.451,40.576 183.451,40.576 183.451,39.576 184.251,39.576 184.251,36.476 183.451,36.476 183.451,30.676 184.251,30.676 184.251,27.576 183.451,27.576 183.451,26.576" style="fill:none;stroke-width:0.050000mm;stroke:black"/>
<polygon points="188.501,26.576 188.501,27.576 187.701,27.576 187.701,30.676 188.501,30.676 188.501,36.476 187.701,36.476 187.701,39.576 188.501,39.576 188.501,40.576 202.501,40.576 202.501,39.576 203.301,39.576 203.301,36.476 202.501,36.476 202.501,30.676 203.301,30.676 203.301,27.576 202.501,27.576 202.501,26.576" style="fill:none;stroke-width:0.050000mm;stroke:black"/>
<polygon points="207.551,26.576 207.551,27.576 206.751,27.576 206.751,30.676 207.551,30.676 207.551,36.476 206.751,36.476 206.751,39.576 207.551,39.576 207.551,40.576 221.551,40.576 221.551,39.576 222.351,39.576 222.351,36.476 221.551,36.476 221.551,30.676 222.351,30.676 222.351,27.576 221.551,27.576 221.551,26.576" style="fill:none;stroke-width:0.050000mm;stroke:black"/>
<polygon points="226.601,26.576 226.601,27.576 225.801,27.576 225.801,30.676 226.601,30.676 226.601,36.476 225.801,36.476 225.801,39.576 226.601,39.576 226.601,40.576 240.601,40.576 240.601,39.576 241.401,39.576 241.401,36.476 240.601,36.476 240.601,30.676 241.401,30.676 241.401,27.576 240.601,27.576 240.601,26.576" style="fill:none;stroke-width:0.050000mm;stroke:black"/>
<polygon points="245.651,26.576 245.651,27.576 244.851,27.576 244.851,30.676 245.651,30.676 245.651,36.476 244.851,36.476 244.851,39.576 245.651,39.576 245.651,40.576 259.650,40.576 259.650,39.576 260.451,39.576 260.451,36.476 259.650,36.476 259.650,30.676 260.451,30.676 260.451,27.576 259.650,27.576 259.650,26.576" style="fill:none;stroke-width:0.050000mm;stroke:black"/>
<polygon points="269.463,26.576 269.463,27.576 268.663,27.576 268.663,30.676 269.463,30.676 269.463,36.476 268.663,36.476 268.663,39.576 269.463,39.576 269.463,40.576 283.463,40.576 283.463,39.576 284.263,39.576 284.263,36.476 283.463,36.476 283.463,30.676 284.263,30.676 284.263,27.576 283.463,27.576 283.463,26.576" style="fill:none;stroke-width:0.050000mm;stroke:black"/>
<polygon points="293.276,26.576 293.276,27.576 292.476,27.576 292.476,30.676 293.276,30.676 293.276,36.476 292.476,36.476 292.476,39.576 293.276,39.576 293.276,40.576 307.276,40.576 307.276,39.576 308.076,39.576 308.076,36.476 307.276,36.476 307.276,30.676 308.076,30.676 308.076,27.576 307.276,27.576 307.276,26.576" style="fill:none;stroke-width:0.050000mm;stroke:black"/>
<polygon points="264.701,7.526 264.701,8.526 263.901,8.526 263.901,11.626 264.701,11.626 264.701,12.226 263.176,12.226 263.176,8.996 256.426,8.996 256.426,12.226 255.601,12.226 255.601,15.026 256.426,15.026 256.426,21.296 258.150,21.296 258.150,22.496 261.451,22.496 261.451,21.296 263.176,21.296 263.176,16.826 264.701,16.826 264.701,17.426 263.901,17.426 263.901,20.526 264.701,20.526 264.701,21.526 278.701,21.526 278.701,20.526 279.501,20.526 279.501,17.426 278.701,17.426 278.701,16.826 280.226,16.826 280.226,21.296 281.951,21.296 281.951,22.496 285.251,22.496 285.251,21.296 286.976,21.296 286.976,15.026 287.801,15.026 287.801,12.226 286.976,12.226 286.976,8.996 280.226,8.996 280.226,12.226 278.701,12.226 278.701,11.626 279.501,11.626 279.501,8.526 278.701,8.526 278.701,7.526" style="fill:none;stroke-width:0.050000mm;stroke:black"/>
<polygon points="7.526,7.526 7.526,8.526 6.726,8.526 6.726,11.626 7.526,11.626 7.526,17.426 6.726,17.426 6.726,20.526 7.526,20.526 7.526,21.526 21.526,21.526 21.526,20.526 22.326,20.526 22.326,17.426 21.526,17.426 21.526,11.626 22.326,11.626 22.326,8.526 21.526,8.526 21.526,7.526" style="fill:none;stroke-width:0.050000mm;stroke:black"/>
<polygon points="26.576,7.526 26.576,8.526 25.776,8.526 25.776,11.626 26.576,11.626 26.576,17.426 25.776,17.426 25.776,20.526 26.576,20.526 26.576,21.526 40.576,21.526 40.576,20.526 41.376,20.526 41.376,17.426 40.576,17.426 40.576,11.626 41.376,11.626 41.376,8.526 40.576,8.526 40.576,7.526" style="fill:none;stroke-width:0.050000mm;stroke:black"/>
<polygon points="45.626,7.526 45.626,8.526 44.826,8.526 44.826,11.626 45.626,11.626 45.626,17.426 44.826,17.426 44.826,20.526 45.626,20.526 45.626,21.526 59.626,21.526 59.626,20.526 60.426,20.526 60.426,17.426 59.626,17.426 59.626,11.626 60.426,11.626 60.426,8.526 59.626,8.526 59.626,7.526" style="fill:none;stroke-width:0.050000mm;stroke:black"/>
<polygon points="64.676,7.526 64.676,8.526 63.876,8.526 63.876,11.626 64.676,11.626 64.676,17.426 63.876,17.426 63.876,20.526 64.676,20.526 64.676,21.526 78.676,21.526 78.676,20.526 79.476,20.526 79.476,17.426 78.676,17.426 78.676,11.626 79.476,11.626 79.476,8.526 78.676,8.526 78.676,7.526" style="fill:none;stroke-width:0.050000mm;stroke:black"/>
<polygon points="83.726,7.526 83.726,8.526 82.926,8.526 82.926,11.626 83.726,11.626 83.726,17.426 82.926,17.426 82.926,20.526 83.726,20.526 83.726,21.526 97.726,21.526 97.726,20.526 98.525,20.526 98.525,17.426 97.726,17.426 97.726,11.626 98.525,11.626 98.525,8.526 97.726,8.526 97.726,7.526" style="fill:none;stroke-width:0.050000mm;stroke:black"/>
<polygon points="102.775,7.526 102.775,8.526 101.976,8.526 101.976,11.626 102.775,11.626 102.775,17.426 101.976,17.426 101.976,20.526 102.775,20.526 102.775,21.526 116.775,21.526 116.775,20.526 117.575,20.526 117.575,17.426 116.775,17.426 116.775,11.626 117.575,11.626 117.575,8.526 116.775,8.526 116.775,7.526" style="fill:none;stroke-width:0.050000mm;stroke:black"/>
<polygon points="121.825,7.526 121.825,8.526 121.025,8.526 121.025,11.626 121.825,11.626 121.825,17.426 121.025,17.426 121.025,20.526 121.825,20.526 121.825,21.526 135.826,21.526 135.826,20.526 136.626,20.526 136.626,17.426 135.826,17.426 135.826,11.626 136.626,11.626 136.626,8.526 135.826,8.526 135.826,7.526" style="fill:none;stroke-width:0.050000mm;stroke:black"/>
<polygon points="140.876,7.526 140.876,8.526 140.076,8.526 140.076,11.626 140.876,11.626 140.876,17.426 140.076,17.426 140.076,20.526 140.876,20.526 140.876,21.526 154.876,21.526 154.876,20.526 155.676,20.526 155.676,17.426 154.876,17.426 154.876,11.626 155.676,11.626 155.676,8.526 154.876,8.526 154.876,7.526" style="fill:none;stroke-width:0.050000mm;stroke:black"/>
<polygon points="159.926,7.526 159.926,8.526 159.126,8.526 159.126,11.626 159.926,11.626 159.926,17.426 159.126,17.426 159.126,20.526 159.926,20.526 159.926,21.526 173.926,21.526 173.926,20.526 174.726,20.526 174.726,17.426 173.926,17.426 173.926,11.626 174.726,11.626 174.726,8.526 173.926,8.526 173.926,7.526" style="fill:none;stroke-width:0.050000mm;stroke:black"/>
<polygon points="178.976,7.526 178.976,8.526 178.176,8.526 178.176,11.626 178.976,11.626 178.976,17.426 178.176,17.426 178.176,20.526 178.976,20.526 178.976,21.526 192.976,21.526 192.976,20.526 193.776,20.526 193.776,17.426 192.976,17.426 192.976,11.626 193.776,11.626 193.776,8.526 192.976,8.526 192.976,7.526" style="fill:none;stroke-width:0.050000mm;stroke:black"/>
<polygon points="198.026,7.526 198.026,8.526 197.226,8.526 197.226,11.626 198.026,11.626 198.026,17.426 197.226,17.426 197.226,20.526 198.026,20.526 198.026,21.526 212.026,21.526 212.026,20.526 212.826,20.526 212.826,17.426 212.026,17.426 212.026,11.626 212.826,11.626 212.826,8.526 212.026,8.526 212.026,7.526" style="fill:none;stroke-width:0.050000mm;stroke:black"/>
<polygon points="217.076,7.526 217.076,8.526 216.276,8.526 216.276,11.626 217.076,11.626 217.076,17.426 216.276,17.426 216.276,20.526 217.076,20.526 217.076,21.526 231.076,21.526 231.076,20.526 231.876,20.526 231.876,17.426 231.076,17.426 231.076,11.626 231.876,11.626 231.876,8.526 231.076,8.526 231.076,7.526" style="fill:none;stroke-width:0.050000mm;stroke:black"/>
<polygon points="236.126,7.526 236.126,8.526 235.326,8.526 235.326,11.626 236.126,11.626 236.126,17.426 235.326,17.426 235.326,20.526 236.126,20.526 236.126,21.526 250.126,21.526 250.126,20.526 250.926,20.526 250.926,17.426 250.126,17.426 250.126,11.626 250.926,11.626 250.926,8.526 250.126,8.526 250.126,7.526" style="fill:none;stroke-width:0.050000mm;stroke:black"/>
</svg>
