G04 #@! TF.GenerationSoftware,KiCad,Pcbnew,(6.0.1)*
G04 #@! TF.CreationDate,2022-06-09T20:43:53-07:00*
G04 #@! TF.ProjectId,artemis-65,61727465-6d69-4732-9d36-352e6b696361,rev?*
G04 #@! TF.SameCoordinates,Original*
G04 #@! TF.FileFunction,Legend,Top*
G04 #@! TF.FilePolarity,Positive*
%FSLAX46Y46*%
G04 Gerber Fmt 4.6, Leading zero omitted, Abs format (unit mm)*
G04 Created by KiCad (PCBNEW (6.0.1)) date 2022-06-09 20:43:53*
%MOMM*%
%LPD*%
G01*
G04 APERTURE LIST*
%ADD10C,0.150000*%
%ADD11C,0.250000*%
G04 APERTURE END LIST*
D10*
X149463809Y-109640666D02*
X149940000Y-109640666D01*
X149368571Y-109926380D02*
X149701904Y-108926380D01*
X150035238Y-109926380D01*
X150368571Y-109926380D02*
X150368571Y-109259714D01*
X150368571Y-109450190D02*
X150416190Y-109354952D01*
X150463809Y-109307333D01*
X150559047Y-109259714D01*
X150654285Y-109259714D01*
X150844761Y-109259714D02*
X151225714Y-109259714D01*
X150987619Y-108926380D02*
X150987619Y-109783523D01*
X151035238Y-109878761D01*
X151130476Y-109926380D01*
X151225714Y-109926380D01*
X151940000Y-109878761D02*
X151844761Y-109926380D01*
X151654285Y-109926380D01*
X151559047Y-109878761D01*
X151511428Y-109783523D01*
X151511428Y-109402571D01*
X151559047Y-109307333D01*
X151654285Y-109259714D01*
X151844761Y-109259714D01*
X151940000Y-109307333D01*
X151987619Y-109402571D01*
X151987619Y-109497809D01*
X151511428Y-109593047D01*
X152416190Y-109926380D02*
X152416190Y-109259714D01*
X152416190Y-109354952D02*
X152463809Y-109307333D01*
X152559047Y-109259714D01*
X152701904Y-109259714D01*
X152797142Y-109307333D01*
X152844761Y-109402571D01*
X152844761Y-109926380D01*
X152844761Y-109402571D02*
X152892380Y-109307333D01*
X152987619Y-109259714D01*
X153130476Y-109259714D01*
X153225714Y-109307333D01*
X153273333Y-109402571D01*
X153273333Y-109926380D01*
X153749523Y-109926380D02*
X153749523Y-109259714D01*
X153749523Y-108926380D02*
X153701904Y-108974000D01*
X153749523Y-109021619D01*
X153797142Y-108974000D01*
X153749523Y-108926380D01*
X153749523Y-109021619D01*
X154178095Y-109878761D02*
X154273333Y-109926380D01*
X154463809Y-109926380D01*
X154559047Y-109878761D01*
X154606666Y-109783523D01*
X154606666Y-109735904D01*
X154559047Y-109640666D01*
X154463809Y-109593047D01*
X154320952Y-109593047D01*
X154225714Y-109545428D01*
X154178095Y-109450190D01*
X154178095Y-109402571D01*
X154225714Y-109307333D01*
X154320952Y-109259714D01*
X154463809Y-109259714D01*
X154559047Y-109307333D01*
X155463809Y-108926380D02*
X155273333Y-108926380D01*
X155178095Y-108974000D01*
X155130476Y-109021619D01*
X155035238Y-109164476D01*
X154987619Y-109354952D01*
X154987619Y-109735904D01*
X155035238Y-109831142D01*
X155082857Y-109878761D01*
X155178095Y-109926380D01*
X155368571Y-109926380D01*
X155463809Y-109878761D01*
X155511428Y-109831142D01*
X155559047Y-109735904D01*
X155559047Y-109497809D01*
X155511428Y-109402571D01*
X155463809Y-109354952D01*
X155368571Y-109307333D01*
X155178095Y-109307333D01*
X155082857Y-109354952D01*
X155035238Y-109402571D01*
X154987619Y-109497809D01*
X156463809Y-108926380D02*
X155987619Y-108926380D01*
X155940000Y-109402571D01*
X155987619Y-109354952D01*
X156082857Y-109307333D01*
X156320952Y-109307333D01*
X156416190Y-109354952D01*
X156463809Y-109402571D01*
X156511428Y-109497809D01*
X156511428Y-109735904D01*
X156463809Y-109831142D01*
X156416190Y-109878761D01*
X156320952Y-109926380D01*
X156082857Y-109926380D01*
X155987619Y-109878761D01*
X155940000Y-109831142D01*
X157606666Y-109259714D02*
X157844761Y-109926380D01*
X158082857Y-109259714D01*
X158987619Y-109926380D02*
X158416190Y-109926380D01*
X158701904Y-109926380D02*
X158701904Y-108926380D01*
X158606666Y-109069238D01*
X158511428Y-109164476D01*
X158416190Y-109212095D01*
X159416190Y-109831142D02*
X159463809Y-109878761D01*
X159416190Y-109926380D01*
X159368571Y-109878761D01*
X159416190Y-109831142D01*
X159416190Y-109926380D01*
X160082857Y-108926380D02*
X160178095Y-108926380D01*
X160273333Y-108974000D01*
X160320952Y-109021619D01*
X160368571Y-109116857D01*
X160416190Y-109307333D01*
X160416190Y-109545428D01*
X160368571Y-109735904D01*
X160320952Y-109831142D01*
X160273333Y-109878761D01*
X160178095Y-109926380D01*
X160082857Y-109926380D01*
X159987619Y-109878761D01*
X159940000Y-109831142D01*
X159892380Y-109735904D01*
X159844761Y-109545428D01*
X159844761Y-109307333D01*
X159892380Y-109116857D01*
X159940000Y-109021619D01*
X159987619Y-108974000D01*
X160082857Y-108926380D01*
X115759371Y-106686680D02*
X115759371Y-105686680D01*
X116092704Y-106400966D01*
X116426038Y-105686680D01*
X116426038Y-106686680D01*
X117092704Y-105686680D02*
X117283180Y-105686680D01*
X117378419Y-105734300D01*
X117473657Y-105829538D01*
X117521276Y-106020014D01*
X117521276Y-106353347D01*
X117473657Y-106543823D01*
X117378419Y-106639061D01*
X117283180Y-106686680D01*
X117092704Y-106686680D01*
X116997466Y-106639061D01*
X116902228Y-106543823D01*
X116854609Y-106353347D01*
X116854609Y-106020014D01*
X116902228Y-105829538D01*
X116997466Y-105734300D01*
X117092704Y-105686680D01*
X117902228Y-106639061D02*
X118045085Y-106686680D01*
X118283180Y-106686680D01*
X118378419Y-106639061D01*
X118426038Y-106591442D01*
X118473657Y-106496204D01*
X118473657Y-106400966D01*
X118426038Y-106305728D01*
X118378419Y-106258109D01*
X118283180Y-106210490D01*
X118092704Y-106162871D01*
X117997466Y-106115252D01*
X117949847Y-106067633D01*
X117902228Y-105972395D01*
X117902228Y-105877157D01*
X117949847Y-105781919D01*
X117997466Y-105734300D01*
X118092704Y-105686680D01*
X118330800Y-105686680D01*
X118473657Y-105734300D01*
X118902228Y-106686680D02*
X118902228Y-105686680D01*
X108283180Y-109186680D02*
X107949847Y-108710490D01*
X107711752Y-109186680D02*
X107711752Y-108186680D01*
X108092704Y-108186680D01*
X108187942Y-108234300D01*
X108235561Y-108281919D01*
X108283180Y-108377157D01*
X108283180Y-108520014D01*
X108235561Y-108615252D01*
X108187942Y-108662871D01*
X108092704Y-108710490D01*
X107711752Y-108710490D01*
X108664133Y-109139061D02*
X108806990Y-109186680D01*
X109045085Y-109186680D01*
X109140323Y-109139061D01*
X109187942Y-109091442D01*
X109235561Y-108996204D01*
X109235561Y-108900966D01*
X109187942Y-108805728D01*
X109140323Y-108758109D01*
X109045085Y-108710490D01*
X108854609Y-108662871D01*
X108759371Y-108615252D01*
X108711752Y-108567633D01*
X108664133Y-108472395D01*
X108664133Y-108377157D01*
X108711752Y-108281919D01*
X108759371Y-108234300D01*
X108854609Y-108186680D01*
X109092704Y-108186680D01*
X109235561Y-108234300D01*
X109521276Y-108186680D02*
X110092704Y-108186680D01*
X109806990Y-109186680D02*
X109806990Y-108186680D01*
X107259371Y-104186680D02*
X107259371Y-103186680D01*
X107592704Y-103900966D01*
X107926038Y-103186680D01*
X107926038Y-104186680D01*
X108402228Y-104186680D02*
X108402228Y-103186680D01*
X108830800Y-104139061D02*
X108973657Y-104186680D01*
X109211752Y-104186680D01*
X109306990Y-104139061D01*
X109354609Y-104091442D01*
X109402228Y-103996204D01*
X109402228Y-103900966D01*
X109354609Y-103805728D01*
X109306990Y-103758109D01*
X109211752Y-103710490D01*
X109021276Y-103662871D01*
X108926038Y-103615252D01*
X108878419Y-103567633D01*
X108830800Y-103472395D01*
X108830800Y-103377157D01*
X108878419Y-103281919D01*
X108926038Y-103234300D01*
X109021276Y-103186680D01*
X109259371Y-103186680D01*
X109402228Y-103234300D01*
X110021276Y-103186680D02*
X110211752Y-103186680D01*
X110306990Y-103234300D01*
X110402228Y-103329538D01*
X110449847Y-103520014D01*
X110449847Y-103853347D01*
X110402228Y-104043823D01*
X110306990Y-104139061D01*
X110211752Y-104186680D01*
X110021276Y-104186680D01*
X109926038Y-104139061D01*
X109830800Y-104043823D01*
X109783180Y-103853347D01*
X109783180Y-103520014D01*
X109830800Y-103329538D01*
X109926038Y-103234300D01*
X110021276Y-103186680D01*
X115747466Y-103186680D02*
X116080800Y-104186680D01*
X116414133Y-103186680D01*
X117318895Y-104091442D02*
X117271276Y-104139061D01*
X117128419Y-104186680D01*
X117033180Y-104186680D01*
X116890323Y-104139061D01*
X116795085Y-104043823D01*
X116747466Y-103948585D01*
X116699847Y-103758109D01*
X116699847Y-103615252D01*
X116747466Y-103424776D01*
X116795085Y-103329538D01*
X116890323Y-103234300D01*
X117033180Y-103186680D01*
X117128419Y-103186680D01*
X117271276Y-103234300D01*
X117318895Y-103281919D01*
X118318895Y-104091442D02*
X118271276Y-104139061D01*
X118128419Y-104186680D01*
X118033180Y-104186680D01*
X117890323Y-104139061D01*
X117795085Y-104043823D01*
X117747466Y-103948585D01*
X117699847Y-103758109D01*
X117699847Y-103615252D01*
X117747466Y-103424776D01*
X117795085Y-103329538D01*
X117890323Y-103234300D01*
X118033180Y-103186680D01*
X118128419Y-103186680D01*
X118271276Y-103234300D01*
X118318895Y-103281919D01*
X116568895Y-108234300D02*
X116473657Y-108186680D01*
X116330800Y-108186680D01*
X116187942Y-108234300D01*
X116092704Y-108329538D01*
X116045085Y-108424776D01*
X115997466Y-108615252D01*
X115997466Y-108758109D01*
X116045085Y-108948585D01*
X116092704Y-109043823D01*
X116187942Y-109139061D01*
X116330800Y-109186680D01*
X116426038Y-109186680D01*
X116568895Y-109139061D01*
X116616514Y-109091442D01*
X116616514Y-108758109D01*
X116426038Y-108758109D01*
X117045085Y-109186680D02*
X117045085Y-108186680D01*
X117616514Y-109186680D01*
X117616514Y-108186680D01*
X118092704Y-109186680D02*
X118092704Y-108186680D01*
X118330800Y-108186680D01*
X118473657Y-108234300D01*
X118568895Y-108329538D01*
X118616514Y-108424776D01*
X118664133Y-108615252D01*
X118664133Y-108758109D01*
X118616514Y-108948585D01*
X118568895Y-109043823D01*
X118473657Y-109139061D01*
X118330800Y-109186680D01*
X118092704Y-109186680D01*
X107795085Y-106639061D02*
X107937942Y-106686680D01*
X108176038Y-106686680D01*
X108271276Y-106639061D01*
X108318895Y-106591442D01*
X108366514Y-106496204D01*
X108366514Y-106400966D01*
X108318895Y-106305728D01*
X108271276Y-106258109D01*
X108176038Y-106210490D01*
X107985561Y-106162871D01*
X107890323Y-106115252D01*
X107842704Y-106067633D01*
X107795085Y-105972395D01*
X107795085Y-105877157D01*
X107842704Y-105781919D01*
X107890323Y-105734300D01*
X107985561Y-105686680D01*
X108223657Y-105686680D01*
X108366514Y-105734300D01*
X109366514Y-106591442D02*
X109318895Y-106639061D01*
X109176038Y-106686680D01*
X109080800Y-106686680D01*
X108937942Y-106639061D01*
X108842704Y-106543823D01*
X108795085Y-106448585D01*
X108747466Y-106258109D01*
X108747466Y-106115252D01*
X108795085Y-105924776D01*
X108842704Y-105829538D01*
X108937942Y-105734300D01*
X109080800Y-105686680D01*
X109176038Y-105686680D01*
X109318895Y-105734300D01*
X109366514Y-105781919D01*
X109795085Y-106686680D02*
X109795085Y-105686680D01*
X110366514Y-106686680D02*
X109937942Y-106115252D01*
X110366514Y-105686680D02*
X109795085Y-106258109D01*
D11*
X115580800Y-107484300D02*
X115580800Y-109984300D01*
X110580800Y-109984300D02*
X110580800Y-107484300D01*
X110580800Y-107484300D02*
X115580800Y-107484300D01*
X115580800Y-109984300D02*
X110580800Y-109984300D01*
M02*
