M48
; DRILL file {KiCad (6.0.1)} date Thu Jun  9 20:44:05 2022
; FORMAT={-:-/ absolute / inch / decimal}
; #@! TF.CreationDate,2022-06-09T20:44:05-07:00
; #@! TF.GenerationSoftware,Kicad,Pcbnew,(6.0.1)
; #@! TF.FileFunction,NonPlated,1,2,NPTH
FMAT,2
INCH
; #@! TA.AperFunction,NonPlated,NPTH,ComponentDrill
T1C0.0689
; #@! TA.AperFunction,NonPlated,NPTH,ComponentDrill
T2C0.1200
; #@! TA.AperFunction,NonPlated,NPTH,ComponentDrill
T3C0.1570
%
G90
G05
T1
X0.2062Y-1.0312
X0.3Y-4.0312
X0.3937Y-1.7812
X0.4875Y-2.5312
X0.6062Y-1.0312
X0.675Y-3.2812
X0.7Y-4.0312
X0.7937Y-1.7812
X0.8875Y-2.5312
X0.9562Y-1.0312
X1.075Y-3.2812
X1.3313Y-1.7812
X1.3562Y-1.0312
X1.5188Y-2.5312
X1.7063Y-1.0312
X1.7312Y-1.7812
X1.8938Y-3.2812
X1.9187Y-2.5312
X1.9875Y-4.0312
X2.0812Y-1.7812
X2.1062Y-1.0312
X2.2687Y-2.5312
X2.2937Y-3.2812
X2.3875Y-4.0312
X2.4562Y-1.0312
X2.4812Y-1.7812
X2.6437Y-3.2812
X2.6687Y-2.5312
X2.8312Y-1.7812
X2.8562Y-1.0312
X3.0187Y-2.5312
X3.0437Y-3.2812
X3.2062Y-1.0312
X3.2312Y-1.7812
X3.3937Y-3.2812
X3.4187Y-2.5312
X3.5812Y-1.7812
X3.6062Y-1.0312
X3.7687Y-2.5312
X3.7937Y-3.2812
X3.9562Y-1.0312
X3.9812Y-1.7812
X4.1437Y-3.2812
X4.1688Y-2.5312
X4.3312Y-1.7812
X4.3563Y-1.0312
X4.5187Y-2.5312
X4.5438Y-3.2812
X4.7062Y-1.0312
X4.7313Y-1.7812
X4.8Y-4.0312
X4.8937Y-3.2812
X4.9188Y-2.5312
X5.0812Y-1.7812
X5.1063Y-1.0312
X5.2Y-4.0312
X5.2687Y-2.5312
X5.2938Y-3.2812
X5.4562Y-1.0312
X5.4813Y-1.7812
X5.6437Y-3.2812
X5.6688Y-2.5312
X5.8312Y-1.7812
X5.8563Y-1.0312
X6.0187Y-2.5312
X6.0438Y-3.2812
X6.2062Y-1.0312
X6.2313Y-1.7812
X6.3937Y-3.2812
X6.4188Y-2.5312
X6.5812Y-1.7812
X6.6063Y-1.0312
X6.7687Y-2.5312
X6.7938Y-3.2812
X6.9562Y-1.0312
X6.9813Y-1.7812
X7.1437Y-3.2812
X7.1688Y-2.5312
X7.3312Y-1.7812
X7.3563Y-1.0312
X7.5187Y-2.5312
X7.5438Y-3.2812
X7.6125Y-4.0312
X7.7062Y-1.0312
X7.7313Y-1.7812
X7.8937Y-3.2812
X7.9188Y-2.5312
X8.0125Y-4.0312
X8.0812Y-1.7812
X8.1062Y-1.0312
X8.2687Y-2.5312
X8.2937Y-3.2812
X8.4562Y-1.0312
X8.4812Y-1.7812
X8.6437Y-3.2812
X8.6687Y-2.5312
X8.8312Y-1.7812
X8.8562Y-1.0312
X9.0187Y-2.5312
X9.0437Y-3.2812
X9.1125Y-4.0312
X9.2062Y-1.0312
X9.2312Y-1.7812
X9.4187Y-2.5312
X9.5125Y-4.0312
X9.5812Y-1.7812
X9.6062Y-1.0312
X9.675Y-3.2812
X9.9562Y-4.0312
X9.9812Y-1.7812
X10.075Y-3.2812
X10.2375Y-2.5312
X10.3312Y-1.0312
X10.3562Y-4.0312
X10.5187Y-1.7812
X10.6375Y-2.5312
X10.7062Y-3.2812
X10.7062Y-4.0312
X10.7312Y-1.0312
X10.9187Y-1.7812
X11.1062Y-3.2812
X11.1062Y-4.0312
X11.4562Y-1.7812
X11.4562Y-2.5312
X11.4562Y-3.2812
X11.4562Y-4.0312
X11.8562Y-1.7812
X11.8562Y-2.5312
X11.8562Y-3.2812
X11.8562Y-4.0312
T2
X0.405Y-3.5562
X1.345Y-3.5562
X3.0315Y-4.3062
X6.9685Y-4.3062
X9.9675Y-2.2563
X10.0612Y-0.7562
X10.9075Y-2.2563
X11.0012Y-0.7562
T3
X0.405Y-2.9562
X0.4062Y-1.0312
X0.5Y-4.0312
X0.5938Y-1.7812
X0.6875Y-2.5312
X0.875Y-3.2812
X1.1562Y-1.0312
X1.345Y-2.9562
X1.5312Y-1.7812
X1.7188Y-2.5312
X1.9062Y-1.0312
X2.0938Y-3.2812
X2.1875Y-4.0312
X2.2812Y-1.7812
X2.4688Y-2.5312
X2.6562Y-1.0312
X2.8438Y-3.2812
X3.0312Y-1.7812
X3.0315Y-3.7062
X3.2188Y-2.5312
X3.4062Y-1.0312
X3.5938Y-3.2812
X3.7812Y-1.7812
X3.9688Y-2.5312
X4.1562Y-1.0312
X4.3438Y-3.2812
X4.5312Y-1.7812
X4.7188Y-2.5312
X4.9062Y-1.0312
X5.0Y-4.0312
X5.0938Y-3.2812
X5.2812Y-1.7812
X5.4688Y-2.5312
X5.6562Y-1.0312
X5.8438Y-3.2812
X6.0312Y-1.7812
X6.2188Y-2.5312
X6.4062Y-1.0312
X6.5938Y-3.2812
X6.7812Y-1.7812
X6.9685Y-3.7062
X6.9688Y-2.5312
X7.1562Y-1.0312
X7.3438Y-3.2812
X7.5312Y-1.7812
X7.7188Y-2.5312
X7.8125Y-4.0312
X7.9062Y-1.0312
X8.0938Y-3.2812
X8.2812Y-1.7812
X8.4688Y-2.5312
X8.6562Y-1.0312
X8.8438Y-3.2812
X9.0312Y-1.7812
X9.2188Y-2.5312
X9.3125Y-4.0312
X9.4062Y-1.0312
X9.7812Y-1.7812
X9.875Y-3.2812
X9.9675Y-2.8562
X10.0612Y-1.3562
X10.1562Y-4.0312
X10.4375Y-2.5312
X10.5312Y-1.0312
X10.7188Y-1.7812
X10.9062Y-3.2812
X10.9062Y-4.0312
X10.9075Y-2.8562
X11.0012Y-1.3562
X11.6562Y-1.7812
X11.6562Y-2.5312
X11.6562Y-3.2812
X11.6562Y-4.0312
T0
M30
