M48
; DRILL file {KiCad (6.0.1)} date Thu Jun  9 20:44:05 2022
; FORMAT={-:-/ absolute / inch / decimal}
; #@! TF.CreationDate,2022-06-09T20:44:05-07:00
; #@! TF.GenerationSoftware,Kicad,Pcbnew,(6.0.1)
; #@! TF.FileFunction,Plated,1,2,PTH
FMAT,2
INCH
; #@! TA.AperFunction,Plated,PTH,ViaDrill
T1C0.0157
; #@! TA.AperFunction,Plated,PTH,ComponentDrill
T2C0.0394
; #@! TA.AperFunction,Plated,PTH,ComponentDrill
T3C0.0579
%
G90
G05
T1
X0.14Y-0.77
X2.315Y-1.17
X2.655Y-3.435
X2.675Y-1.915
X2.85Y-2.655
X2.885Y-4.06
X3.075Y-3.84
X3.08Y-3.4
X3.22Y-4.13
X3.225Y-3.66
X3.225Y-3.705
X3.225Y-3.75
X3.225Y-3.795
X3.255Y-3.04
X3.309Y-3.91
X3.43Y-3.56
X3.51Y-3.71
X3.51Y-3.83
X3.59Y-3.91
X3.59Y-3.95
X3.59Y-3.99
X3.67Y-3.71
X3.67Y-3.83
X3.79Y-4.085
X3.825Y-4.06
X3.835Y-3.56
X3.925Y-3.695
X3.925Y-3.8
X3.925Y-3.91
X3.965Y-3.945
X3.98Y-3.86
X4.145Y-3.895
X4.18Y-3.535
X4.195Y-3.75
X4.21Y-4.13
X4.245Y-4.1823
X4.29Y-3.535
X4.315Y-4.14
X4.36Y-3.8
X4.485Y-4.02
X5.7Y-3.53
X6.42Y-3.515
X8.835Y-3.485
X11.93Y-4.305
T2
X4.402Y-4.0825
X4.402Y-4.1825
X4.402Y-4.2825
X4.502Y-4.0825
X4.502Y-4.1825
X4.502Y-4.2825
T3
X0.2562Y-0.9313
X0.3078Y-0.8738
X0.35Y-3.9312
X0.4016Y-3.8738
X0.4437Y-1.6812
X0.4953Y-1.6238
X0.5047Y-0.8541
X0.5062Y-0.8312
X0.5375Y-2.4312
X0.5891Y-2.3738
X0.5984Y-3.8541
X0.6Y-3.8312
X0.6922Y-1.6041
X0.6937Y-1.5813
X0.725Y-3.1812
X0.7766Y-3.1238
X0.7859Y-2.3541
X0.7875Y-2.3312
X0.9734Y-3.1041
X0.975Y-3.0812
X1.0062Y-0.9313
X1.0578Y-0.8738
X1.2547Y-0.8541
X1.2562Y-0.8312
X1.3812Y-1.6812
X1.4328Y-1.6238
X1.5687Y-2.4312
X1.6203Y-2.3738
X1.6297Y-1.6041
X1.6312Y-1.5813
X1.7562Y-0.9313
X1.8078Y-0.8738
X1.8172Y-2.3541
X1.8187Y-2.3312
X1.9437Y-3.1812
X1.9953Y-3.1238
X2.0047Y-0.8541
X2.0063Y-0.8312
X2.0375Y-3.9312
X2.0891Y-3.8738
X2.1313Y-1.6812
X2.1828Y-1.6238
X2.1922Y-3.1041
X2.1938Y-3.0812
X2.2859Y-3.8541
X2.2875Y-3.8312
X2.3188Y-2.4312
X2.3703Y-2.3738
X2.3797Y-1.6041
X2.3813Y-1.5813
X2.5063Y-0.9313
X2.5578Y-0.8738
X2.5672Y-2.3541
X2.5688Y-2.3312
X2.6938Y-3.1812
X2.7453Y-3.1238
X2.7547Y-0.8541
X2.7563Y-0.8312
X2.8813Y-1.6812
X2.9328Y-1.6238
X2.9422Y-3.1041
X2.9438Y-3.0812
X3.0688Y-2.4312
X3.1203Y-2.3738
X3.1297Y-1.6041
X3.1313Y-1.5813
X3.2563Y-0.9313
X3.3078Y-0.8738
X3.3172Y-2.3541
X3.3188Y-2.3312
X3.4438Y-3.1812
X3.4953Y-3.1238
X3.5047Y-0.8541
X3.5063Y-0.8312
X3.6313Y-1.6812
X3.6828Y-1.6238
X3.6922Y-3.1041
X3.6938Y-3.0812
X3.8188Y-2.4312
X3.8703Y-2.3738
X3.8797Y-1.6041
X3.8813Y-1.5813
X4.0062Y-0.9313
X4.0578Y-0.8738
X4.0672Y-2.3541
X4.0687Y-2.3312
X4.1937Y-3.1812
X4.2453Y-3.1238
X4.2547Y-0.8541
X4.2562Y-0.8312
X4.3812Y-1.6812
X4.4328Y-1.6238
X4.4422Y-3.1041
X4.4437Y-3.0812
X4.5687Y-2.4312
X4.6203Y-2.3738
X4.6297Y-1.6041
X4.6312Y-1.5813
X4.7562Y-0.9313
X4.8078Y-0.8738
X4.8172Y-2.3541
X4.8187Y-2.3312
X4.85Y-3.9312
X4.9016Y-3.8738
X4.9437Y-3.1812
X4.9953Y-3.1238
X5.0047Y-0.8541
X5.0062Y-0.8312
X5.0984Y-3.8541
X5.1Y-3.8312
X5.1312Y-1.6812
X5.1828Y-1.6238
X5.1922Y-3.1041
X5.1937Y-3.0812
X5.3187Y-2.4312
X5.3703Y-2.3738
X5.3797Y-1.6041
X5.3812Y-1.5813
X5.5062Y-0.9313
X5.5578Y-0.8738
X5.5672Y-2.3541
X5.5687Y-2.3312
X5.6937Y-3.1812
X5.7453Y-3.1238
X5.7547Y-0.8541
X5.7562Y-0.8312
X5.8812Y-1.6812
X5.9328Y-1.6238
X5.9422Y-3.1041
X5.9437Y-3.0812
X6.0687Y-2.4312
X6.1203Y-2.3738
X6.1297Y-1.6041
X6.1312Y-1.5813
X6.2562Y-0.9313
X6.3078Y-0.8738
X6.3172Y-2.3541
X6.3187Y-2.3312
X6.4437Y-3.1812
X6.4953Y-3.1238
X6.5047Y-0.8541
X6.5062Y-0.8312
X6.6312Y-1.6812
X6.6828Y-1.6238
X6.6922Y-3.1041
X6.6937Y-3.0812
X6.8187Y-2.4312
X6.8703Y-2.3738
X6.8797Y-1.6041
X6.8812Y-1.5813
X7.0062Y-0.9313
X7.0578Y-0.8738
X7.0672Y-2.3541
X7.0687Y-2.3312
X7.1937Y-3.1812
X7.2453Y-3.1238
X7.2547Y-0.8541
X7.2562Y-0.8312
X7.3812Y-1.6812
X7.4328Y-1.6238
X7.4422Y-3.1041
X7.4437Y-3.0812
X7.5687Y-2.4312
X7.6203Y-2.3738
X7.6297Y-1.6041
X7.6312Y-1.5813
X7.6625Y-3.9312
X7.7141Y-3.8738
X7.7562Y-0.9313
X7.8078Y-0.8738
X7.8172Y-2.3541
X7.8187Y-2.3312
X7.9109Y-3.8541
X7.9125Y-3.8312
X7.9437Y-3.1812
X7.9953Y-3.1238
X8.0047Y-0.8541
X8.0062Y-0.8312
X8.1312Y-1.6812
X8.1828Y-1.6238
X8.1922Y-3.1041
X8.1937Y-3.0812
X8.3187Y-2.4312
X8.3703Y-2.3738
X8.3797Y-1.6041
X8.3812Y-1.5813
X8.5062Y-0.9313
X8.5578Y-0.8738
X8.5672Y-2.3541
X8.5687Y-2.3312
X8.6937Y-3.1812
X8.7453Y-3.1238
X8.7547Y-0.8541
X8.7562Y-0.8312
X8.8812Y-1.6812
X8.9328Y-1.6238
X8.9422Y-3.1041
X8.9437Y-3.0812
X9.0687Y-2.4312
X9.1203Y-2.3738
X9.1297Y-1.6041
X9.1312Y-1.5813
X9.1625Y-3.9312
X9.2141Y-3.8738
X9.2562Y-0.9313
X9.3078Y-0.8738
X9.3172Y-2.3541
X9.3187Y-2.3312
X9.4109Y-3.8541
X9.4125Y-3.8312
X9.5047Y-0.8541
X9.5062Y-0.8312
X9.6312Y-1.6812
X9.6828Y-1.6238
X9.725Y-3.1812
X9.7766Y-3.1238
X9.8797Y-1.6041
X9.8812Y-1.5813
X9.9734Y-3.1041
X9.975Y-3.0812
X10.0062Y-3.9312
X10.0578Y-3.8738
X10.2547Y-3.8541
X10.2562Y-3.8312
X10.2875Y-2.4312
X10.3391Y-2.3738
X10.3812Y-0.9313
X10.4328Y-0.8738
X10.5359Y-2.3541
X10.5375Y-2.3312
X10.5687Y-1.6812
X10.6203Y-1.6238
X10.6297Y-0.8541
X10.6312Y-0.8312
X10.7562Y-3.1812
X10.7562Y-3.9312
X10.8078Y-3.1238
X10.8078Y-3.8738
X10.8172Y-1.6041
X10.8187Y-1.5813
X11.0047Y-3.1041
X11.0047Y-3.8541
X11.0062Y-3.0812
X11.0062Y-3.8312
X11.5062Y-1.6812
X11.5062Y-2.4312
X11.5062Y-3.1812
X11.5062Y-3.9312
X11.5578Y-1.6238
X11.5578Y-2.3738
X11.5578Y-3.1238
X11.5578Y-3.8738
X11.7547Y-1.6041
X11.7547Y-2.3541
X11.7547Y-3.1041
X11.7547Y-3.8541
X11.7562Y-1.5813
X11.7562Y-2.3312
X11.7562Y-3.0812
X11.7562Y-3.8312
T0
M30
