%TF.GenerationSoftware,KiCad,Pcbnew,(6.0.1)*%
%TF.CreationDate,2022-06-09T19:08:29-07:00*%
%TF.ProjectId,artemis-65,61727465-6d69-4732-9d36-352e6b696361,rev?*%
%TF.SameCoordinates,Original*%
%TF.FileFunction,Legend,Top*%
%TF.FilePolarity,Positive*%
%FSLAX46Y46*%
G04 Gerber Fmt 4.6, Leading zero omitted, Abs format (unit mm)*
G04 Created by KiCad (PCBNEW (6.0.1)) date 2022-06-09 19:08:29*
%MOMM*%
%LPD*%
G01*
G04 APERTURE LIST*
%ADD10C,0.150000*%
%ADD11C,0.250000*%
%ADD12C,3.987800*%
%ADD13C,1.750000*%
%ADD14C,3.048000*%
%ADD15C,1.700000*%
%ADD16R,1.700000X1.700000*%
G04 APERTURE END LIST*
D10*
X149463809Y-109640666D02*
X149940000Y-109640666D01*
X149368571Y-109926380D02*
X149701904Y-108926380D01*
X150035238Y-109926380D01*
X150368571Y-109926380D02*
X150368571Y-109259714D01*
X150368571Y-109450190D02*
X150416190Y-109354952D01*
X150463809Y-109307333D01*
X150559047Y-109259714D01*
X150654285Y-109259714D01*
X150844761Y-109259714D02*
X151225714Y-109259714D01*
X150987619Y-108926380D02*
X150987619Y-109783523D01*
X151035238Y-109878761D01*
X151130476Y-109926380D01*
X151225714Y-109926380D01*
X151940000Y-109878761D02*
X151844761Y-109926380D01*
X151654285Y-109926380D01*
X151559047Y-109878761D01*
X151511428Y-109783523D01*
X151511428Y-109402571D01*
X151559047Y-109307333D01*
X151654285Y-109259714D01*
X151844761Y-109259714D01*
X151940000Y-109307333D01*
X151987619Y-109402571D01*
X151987619Y-109497809D01*
X151511428Y-109593047D01*
X152416190Y-109926380D02*
X152416190Y-109259714D01*
X152416190Y-109354952D02*
X152463809Y-109307333D01*
X152559047Y-109259714D01*
X152701904Y-109259714D01*
X152797142Y-109307333D01*
X152844761Y-109402571D01*
X152844761Y-109926380D01*
X152844761Y-109402571D02*
X152892380Y-109307333D01*
X152987619Y-109259714D01*
X153130476Y-109259714D01*
X153225714Y-109307333D01*
X153273333Y-109402571D01*
X153273333Y-109926380D01*
X153749523Y-109926380D02*
X153749523Y-109259714D01*
X153749523Y-108926380D02*
X153701904Y-108974000D01*
X153749523Y-109021619D01*
X153797142Y-108974000D01*
X153749523Y-108926380D01*
X153749523Y-109021619D01*
X154178095Y-109878761D02*
X154273333Y-109926380D01*
X154463809Y-109926380D01*
X154559047Y-109878761D01*
X154606666Y-109783523D01*
X154606666Y-109735904D01*
X154559047Y-109640666D01*
X154463809Y-109593047D01*
X154320952Y-109593047D01*
X154225714Y-109545428D01*
X154178095Y-109450190D01*
X154178095Y-109402571D01*
X154225714Y-109307333D01*
X154320952Y-109259714D01*
X154463809Y-109259714D01*
X154559047Y-109307333D01*
X155463809Y-108926380D02*
X155273333Y-108926380D01*
X155178095Y-108974000D01*
X155130476Y-109021619D01*
X155035238Y-109164476D01*
X154987619Y-109354952D01*
X154987619Y-109735904D01*
X155035238Y-109831142D01*
X155082857Y-109878761D01*
X155178095Y-109926380D01*
X155368571Y-109926380D01*
X155463809Y-109878761D01*
X155511428Y-109831142D01*
X155559047Y-109735904D01*
X155559047Y-109497809D01*
X155511428Y-109402571D01*
X155463809Y-109354952D01*
X155368571Y-109307333D01*
X155178095Y-109307333D01*
X155082857Y-109354952D01*
X155035238Y-109402571D01*
X154987619Y-109497809D01*
X156463809Y-108926380D02*
X155987619Y-108926380D01*
X155940000Y-109402571D01*
X155987619Y-109354952D01*
X156082857Y-109307333D01*
X156320952Y-109307333D01*
X156416190Y-109354952D01*
X156463809Y-109402571D01*
X156511428Y-109497809D01*
X156511428Y-109735904D01*
X156463809Y-109831142D01*
X156416190Y-109878761D01*
X156320952Y-109926380D01*
X156082857Y-109926380D01*
X155987619Y-109878761D01*
X155940000Y-109831142D01*
X157606666Y-109259714D02*
X157844761Y-109926380D01*
X158082857Y-109259714D01*
X158987619Y-109926380D02*
X158416190Y-109926380D01*
X158701904Y-109926380D02*
X158701904Y-108926380D01*
X158606666Y-109069238D01*
X158511428Y-109164476D01*
X158416190Y-109212095D01*
X159416190Y-109831142D02*
X159463809Y-109878761D01*
X159416190Y-109926380D01*
X159368571Y-109878761D01*
X159416190Y-109831142D01*
X159416190Y-109926380D01*
X160082857Y-108926380D02*
X160178095Y-108926380D01*
X160273333Y-108974000D01*
X160320952Y-109021619D01*
X160368571Y-109116857D01*
X160416190Y-109307333D01*
X160416190Y-109545428D01*
X160368571Y-109735904D01*
X160320952Y-109831142D01*
X160273333Y-109878761D01*
X160178095Y-109926380D01*
X160082857Y-109926380D01*
X159987619Y-109878761D01*
X159940000Y-109831142D01*
X159892380Y-109735904D01*
X159844761Y-109545428D01*
X159844761Y-109307333D01*
X159892380Y-109116857D01*
X159940000Y-109021619D01*
X159987619Y-108974000D01*
X160082857Y-108926380D01*
%TO.C,J1*%
X115759371Y-106686680D02*
X115759371Y-105686680D01*
X116092704Y-106400966D01*
X116426038Y-105686680D01*
X116426038Y-106686680D01*
X117092704Y-105686680D02*
X117283180Y-105686680D01*
X117378419Y-105734300D01*
X117473657Y-105829538D01*
X117521276Y-106020014D01*
X117521276Y-106353347D01*
X117473657Y-106543823D01*
X117378419Y-106639061D01*
X117283180Y-106686680D01*
X117092704Y-106686680D01*
X116997466Y-106639061D01*
X116902228Y-106543823D01*
X116854609Y-106353347D01*
X116854609Y-106020014D01*
X116902228Y-105829538D01*
X116997466Y-105734300D01*
X117092704Y-105686680D01*
X117902228Y-106639061D02*
X118045085Y-106686680D01*
X118283180Y-106686680D01*
X118378419Y-106639061D01*
X118426038Y-106591442D01*
X118473657Y-106496204D01*
X118473657Y-106400966D01*
X118426038Y-106305728D01*
X118378419Y-106258109D01*
X118283180Y-106210490D01*
X118092704Y-106162871D01*
X117997466Y-106115252D01*
X117949847Y-106067633D01*
X117902228Y-105972395D01*
X117902228Y-105877157D01*
X117949847Y-105781919D01*
X117997466Y-105734300D01*
X118092704Y-105686680D01*
X118330800Y-105686680D01*
X118473657Y-105734300D01*
X118902228Y-106686680D02*
X118902228Y-105686680D01*
X108283180Y-109186680D02*
X107949847Y-108710490D01*
X107711752Y-109186680D02*
X107711752Y-108186680D01*
X108092704Y-108186680D01*
X108187942Y-108234300D01*
X108235561Y-108281919D01*
X108283180Y-108377157D01*
X108283180Y-108520014D01*
X108235561Y-108615252D01*
X108187942Y-108662871D01*
X108092704Y-108710490D01*
X107711752Y-108710490D01*
X108664133Y-109139061D02*
X108806990Y-109186680D01*
X109045085Y-109186680D01*
X109140323Y-109139061D01*
X109187942Y-109091442D01*
X109235561Y-108996204D01*
X109235561Y-108900966D01*
X109187942Y-108805728D01*
X109140323Y-108758109D01*
X109045085Y-108710490D01*
X108854609Y-108662871D01*
X108759371Y-108615252D01*
X108711752Y-108567633D01*
X108664133Y-108472395D01*
X108664133Y-108377157D01*
X108711752Y-108281919D01*
X108759371Y-108234300D01*
X108854609Y-108186680D01*
X109092704Y-108186680D01*
X109235561Y-108234300D01*
X109521276Y-108186680D02*
X110092704Y-108186680D01*
X109806990Y-109186680D02*
X109806990Y-108186680D01*
X107259371Y-104186680D02*
X107259371Y-103186680D01*
X107592704Y-103900966D01*
X107926038Y-103186680D01*
X107926038Y-104186680D01*
X108402228Y-104186680D02*
X108402228Y-103186680D01*
X108830800Y-104139061D02*
X108973657Y-104186680D01*
X109211752Y-104186680D01*
X109306990Y-104139061D01*
X109354609Y-104091442D01*
X109402228Y-103996204D01*
X109402228Y-103900966D01*
X109354609Y-103805728D01*
X109306990Y-103758109D01*
X109211752Y-103710490D01*
X109021276Y-103662871D01*
X108926038Y-103615252D01*
X108878419Y-103567633D01*
X108830800Y-103472395D01*
X108830800Y-103377157D01*
X108878419Y-103281919D01*
X108926038Y-103234300D01*
X109021276Y-103186680D01*
X109259371Y-103186680D01*
X109402228Y-103234300D01*
X110021276Y-103186680D02*
X110211752Y-103186680D01*
X110306990Y-103234300D01*
X110402228Y-103329538D01*
X110449847Y-103520014D01*
X110449847Y-103853347D01*
X110402228Y-104043823D01*
X110306990Y-104139061D01*
X110211752Y-104186680D01*
X110021276Y-104186680D01*
X109926038Y-104139061D01*
X109830800Y-104043823D01*
X109783180Y-103853347D01*
X109783180Y-103520014D01*
X109830800Y-103329538D01*
X109926038Y-103234300D01*
X110021276Y-103186680D01*
X115747466Y-103186680D02*
X116080800Y-104186680D01*
X116414133Y-103186680D01*
X117318895Y-104091442D02*
X117271276Y-104139061D01*
X117128419Y-104186680D01*
X117033180Y-104186680D01*
X116890323Y-104139061D01*
X116795085Y-104043823D01*
X116747466Y-103948585D01*
X116699847Y-103758109D01*
X116699847Y-103615252D01*
X116747466Y-103424776D01*
X116795085Y-103329538D01*
X116890323Y-103234300D01*
X117033180Y-103186680D01*
X117128419Y-103186680D01*
X117271276Y-103234300D01*
X117318895Y-103281919D01*
X118318895Y-104091442D02*
X118271276Y-104139061D01*
X118128419Y-104186680D01*
X118033180Y-104186680D01*
X117890323Y-104139061D01*
X117795085Y-104043823D01*
X117747466Y-103948585D01*
X117699847Y-103758109D01*
X117699847Y-103615252D01*
X117747466Y-103424776D01*
X117795085Y-103329538D01*
X117890323Y-103234300D01*
X118033180Y-103186680D01*
X118128419Y-103186680D01*
X118271276Y-103234300D01*
X118318895Y-103281919D01*
X116568895Y-108234300D02*
X116473657Y-108186680D01*
X116330800Y-108186680D01*
X116187942Y-108234300D01*
X116092704Y-108329538D01*
X116045085Y-108424776D01*
X115997466Y-108615252D01*
X115997466Y-108758109D01*
X116045085Y-108948585D01*
X116092704Y-109043823D01*
X116187942Y-109139061D01*
X116330800Y-109186680D01*
X116426038Y-109186680D01*
X116568895Y-109139061D01*
X116616514Y-109091442D01*
X116616514Y-108758109D01*
X116426038Y-108758109D01*
X117045085Y-109186680D02*
X117045085Y-108186680D01*
X117616514Y-109186680D01*
X117616514Y-108186680D01*
X118092704Y-109186680D02*
X118092704Y-108186680D01*
X118330800Y-108186680D01*
X118473657Y-108234300D01*
X118568895Y-108329538D01*
X118616514Y-108424776D01*
X118664133Y-108615252D01*
X118664133Y-108758109D01*
X118616514Y-108948585D01*
X118568895Y-109043823D01*
X118473657Y-109139061D01*
X118330800Y-109186680D01*
X118092704Y-109186680D01*
X107795085Y-106639061D02*
X107937942Y-106686680D01*
X108176038Y-106686680D01*
X108271276Y-106639061D01*
X108318895Y-106591442D01*
X108366514Y-106496204D01*
X108366514Y-106400966D01*
X108318895Y-106305728D01*
X108271276Y-106258109D01*
X108176038Y-106210490D01*
X107985561Y-106162871D01*
X107890323Y-106115252D01*
X107842704Y-106067633D01*
X107795085Y-105972395D01*
X107795085Y-105877157D01*
X107842704Y-105781919D01*
X107890323Y-105734300D01*
X107985561Y-105686680D01*
X108223657Y-105686680D01*
X108366514Y-105734300D01*
X109366514Y-106591442D02*
X109318895Y-106639061D01*
X109176038Y-106686680D01*
X109080800Y-106686680D01*
X108937942Y-106639061D01*
X108842704Y-106543823D01*
X108795085Y-106448585D01*
X108747466Y-106258109D01*
X108747466Y-106115252D01*
X108795085Y-105924776D01*
X108842704Y-105829538D01*
X108937942Y-105734300D01*
X109080800Y-105686680D01*
X109176038Y-105686680D01*
X109318895Y-105734300D01*
X109366514Y-105781919D01*
X109795085Y-106686680D02*
X109795085Y-105686680D01*
X110366514Y-106686680D02*
X109937942Y-106115252D01*
X110366514Y-105686680D02*
X109795085Y-106258109D01*
D11*
X115580800Y-107484300D02*
X115580800Y-109984300D01*
X110580800Y-109984300D02*
X110580800Y-107484300D01*
X110580800Y-107484300D02*
X115580800Y-107484300D01*
X115580800Y-109984300D02*
X110580800Y-109984300D01*
%TD*%
%LPC*%
%TO.C,G\u002A\u002A\u002A*%
G36*
X147964915Y-107022682D02*
G01*
X154023649Y-107022682D01*
X154427815Y-107022679D01*
X154813861Y-107022669D01*
X155182199Y-107022652D01*
X155533240Y-107022626D01*
X155867399Y-107022591D01*
X156185087Y-107022545D01*
X156486716Y-107022487D01*
X156772701Y-107022417D01*
X157043452Y-107022334D01*
X157299383Y-107022236D01*
X157540905Y-107022123D01*
X157768433Y-107021994D01*
X157982378Y-107021847D01*
X158183152Y-107021682D01*
X158371169Y-107021498D01*
X158546841Y-107021294D01*
X158710580Y-107021068D01*
X158862799Y-107020821D01*
X159003910Y-107020550D01*
X159134326Y-107020255D01*
X159254460Y-107019936D01*
X159364725Y-107019590D01*
X159465532Y-107019217D01*
X159557294Y-107018817D01*
X159640424Y-107018387D01*
X159715334Y-107017928D01*
X159782437Y-107017438D01*
X159842145Y-107016916D01*
X159894872Y-107016362D01*
X159941029Y-107015773D01*
X159981029Y-107015150D01*
X160015285Y-107014492D01*
X160044209Y-107013797D01*
X160068213Y-107013064D01*
X160087711Y-107012293D01*
X160103115Y-107011482D01*
X160114837Y-107010631D01*
X160123290Y-107009738D01*
X160128886Y-107008803D01*
X160130529Y-107008384D01*
X160187355Y-106982155D01*
X160234936Y-106941204D01*
X160264676Y-106898459D01*
X160284981Y-106860515D01*
X160287756Y-105989446D01*
X160288211Y-105828437D01*
X160288472Y-105684802D01*
X160288507Y-105557381D01*
X160288284Y-105445015D01*
X160287773Y-105346545D01*
X160286941Y-105260810D01*
X160285757Y-105186653D01*
X160284191Y-105122913D01*
X160282209Y-105068432D01*
X160279782Y-105022050D01*
X160276877Y-104982608D01*
X160273463Y-104948946D01*
X160269509Y-104919905D01*
X160264983Y-104894327D01*
X160259854Y-104871051D01*
X160257129Y-104860206D01*
X160247071Y-104824808D01*
X160235413Y-104791566D01*
X160221054Y-104759058D01*
X160202894Y-104725866D01*
X160179834Y-104690567D01*
X160150772Y-104651744D01*
X160114609Y-104607974D01*
X160070246Y-104557840D01*
X160016581Y-104499919D01*
X159952515Y-104432792D01*
X159876948Y-104355040D01*
X159823913Y-104300950D01*
X159736008Y-104210888D01*
X159660242Y-104131725D01*
X159595210Y-104061704D01*
X159539510Y-103999071D01*
X159491739Y-103942070D01*
X159450492Y-103888946D01*
X159414366Y-103837943D01*
X159381959Y-103787307D01*
X159351867Y-103735282D01*
X159322687Y-103680112D01*
X159314311Y-103663506D01*
X159280703Y-103592942D01*
X159252066Y-103524704D01*
X159227996Y-103456535D01*
X159208090Y-103386177D01*
X159191945Y-103311376D01*
X159179158Y-103229872D01*
X159169327Y-103139411D01*
X159162048Y-103037734D01*
X159156918Y-102922586D01*
X159153535Y-102791709D01*
X159152976Y-102760004D01*
X159151431Y-102630689D01*
X159151487Y-102517909D01*
X159153382Y-102419718D01*
X159157357Y-102334167D01*
X159163648Y-102259310D01*
X159172496Y-102193198D01*
X159184138Y-102133884D01*
X159198813Y-102079421D01*
X159216761Y-102027861D01*
X159238220Y-101977256D01*
X159252633Y-101947042D01*
X159311823Y-101847652D01*
X159384943Y-101760153D01*
X159471095Y-101685317D01*
X159569377Y-101623917D01*
X159678892Y-101576728D01*
X159686009Y-101574295D01*
X159793408Y-101544929D01*
X159909926Y-101525214D01*
X160031770Y-101515077D01*
X160155146Y-101514442D01*
X160276259Y-101523232D01*
X160391316Y-101541374D01*
X160496523Y-101568791D01*
X160557975Y-101591613D01*
X160660165Y-101643994D01*
X160749898Y-101709045D01*
X160827437Y-101787144D01*
X160893041Y-101878673D01*
X160946973Y-101984012D01*
X160989494Y-102103540D01*
X161020866Y-102237639D01*
X161027000Y-102273503D01*
X161031616Y-102308922D01*
X161035557Y-102353876D01*
X161038900Y-102410019D01*
X161041720Y-102479005D01*
X161044091Y-102562489D01*
X161046089Y-102662124D01*
X161046867Y-102711354D01*
X161051953Y-103056538D01*
X160308147Y-103056538D01*
X160308096Y-102729887D01*
X160307789Y-102636682D01*
X160306924Y-102554895D01*
X160305539Y-102485911D01*
X160303671Y-102431109D01*
X160301359Y-102391871D01*
X160298640Y-102369581D01*
X160298212Y-102367830D01*
X160279420Y-102327154D01*
X160249065Y-102289887D01*
X160212385Y-102261478D01*
X160184365Y-102249394D01*
X160137749Y-102242611D01*
X160087414Y-102244618D01*
X160040559Y-102254568D01*
X160006199Y-102270355D01*
X159981184Y-102293747D01*
X159957580Y-102326720D01*
X159950465Y-102339823D01*
X159926882Y-102387610D01*
X159930302Y-102756824D01*
X159931208Y-102849841D01*
X159932109Y-102926319D01*
X159933117Y-102988251D01*
X159934340Y-103037631D01*
X159935889Y-103076453D01*
X159937873Y-103106710D01*
X159940402Y-103130396D01*
X159943586Y-103149504D01*
X159947535Y-103166029D01*
X159952359Y-103181964D01*
X159953997Y-103186940D01*
X159968634Y-103224798D01*
X159988103Y-103263764D01*
X160013350Y-103304892D01*
X160045320Y-103349236D01*
X160084959Y-103397852D01*
X160133214Y-103451793D01*
X160191029Y-103512114D01*
X160259352Y-103579869D01*
X160339127Y-103656113D01*
X160431301Y-103741901D01*
X160536820Y-103838287D01*
X160544448Y-103845202D01*
X160650669Y-103943550D01*
X160742494Y-104033616D01*
X160821033Y-104117271D01*
X160887397Y-104196382D01*
X160942696Y-104272821D01*
X160988041Y-104348456D01*
X161024541Y-104425157D01*
X161053307Y-104504794D01*
X161075449Y-104589235D01*
X161092077Y-104680351D01*
X161104303Y-104780010D01*
X161105220Y-104789409D01*
X161107072Y-104817877D01*
X161108668Y-104862128D01*
X161110011Y-104922448D01*
X161111102Y-104999127D01*
X161111943Y-105092450D01*
X161112536Y-105202705D01*
X161112883Y-105330180D01*
X161112984Y-105475162D01*
X161112842Y-105637939D01*
X161112460Y-105818797D01*
X161112137Y-105929212D01*
X161111618Y-106089838D01*
X161111127Y-106233029D01*
X161110642Y-106359881D01*
X161110140Y-106471492D01*
X161109600Y-106568959D01*
X161109000Y-106653381D01*
X161108316Y-106725854D01*
X161107526Y-106787477D01*
X161106610Y-106839345D01*
X161105544Y-106882558D01*
X161104306Y-106918212D01*
X161102873Y-106947405D01*
X161101225Y-106971234D01*
X161099338Y-106990798D01*
X161097190Y-107007192D01*
X161094760Y-107021516D01*
X161092024Y-107034865D01*
X161089539Y-107045849D01*
X161056283Y-107163266D01*
X161013743Y-107266387D01*
X160960697Y-107357603D01*
X160895922Y-107439307D01*
X160879507Y-107456725D01*
X160811114Y-107519697D01*
X160736874Y-107572868D01*
X160654215Y-107617475D01*
X160560565Y-107654754D01*
X160453351Y-107685943D01*
X160359819Y-107706608D01*
X160353799Y-107707570D01*
X160345461Y-107708490D01*
X160334397Y-107709370D01*
X160320199Y-107710210D01*
X160302459Y-107711013D01*
X160280769Y-107711778D01*
X160254720Y-107712507D01*
X160223905Y-107713201D01*
X160187915Y-107713862D01*
X160146343Y-107714489D01*
X160098780Y-107715085D01*
X160044819Y-107715650D01*
X159984050Y-107716186D01*
X159916067Y-107716694D01*
X159840460Y-107717174D01*
X159756822Y-107717627D01*
X159664745Y-107718056D01*
X159563821Y-107718461D01*
X159453642Y-107718842D01*
X159333799Y-107719202D01*
X159203884Y-107719540D01*
X159063489Y-107719859D01*
X158912207Y-107720159D01*
X158749629Y-107720442D01*
X158575347Y-107720708D01*
X158388953Y-107720959D01*
X158190039Y-107721195D01*
X157978197Y-107721418D01*
X157753018Y-107721629D01*
X157514095Y-107721829D01*
X157261020Y-107722019D01*
X156993383Y-107722200D01*
X156710779Y-107722373D01*
X156412797Y-107722539D01*
X156099031Y-107722700D01*
X155769071Y-107722856D01*
X155422511Y-107723008D01*
X155058942Y-107723159D01*
X154677955Y-107723307D01*
X154279143Y-107723456D01*
X153974364Y-107723565D01*
X153559778Y-107723709D01*
X153163328Y-107723839D01*
X152784616Y-107723953D01*
X152423246Y-107724052D01*
X152078821Y-107724135D01*
X151750942Y-107724201D01*
X151439213Y-107724249D01*
X151143236Y-107724279D01*
X150862614Y-107724289D01*
X150596950Y-107724280D01*
X150345847Y-107724251D01*
X150108907Y-107724200D01*
X149885732Y-107724127D01*
X149675926Y-107724032D01*
X149479092Y-107723913D01*
X149294831Y-107723771D01*
X149122748Y-107723603D01*
X148962443Y-107723411D01*
X148813521Y-107723192D01*
X148675584Y-107722947D01*
X148548234Y-107722673D01*
X148431075Y-107722372D01*
X148323708Y-107722042D01*
X148225738Y-107721682D01*
X148136765Y-107721292D01*
X148056394Y-107720871D01*
X147984227Y-107720418D01*
X147919866Y-107719933D01*
X147862914Y-107719414D01*
X147812975Y-107718862D01*
X147769650Y-107718275D01*
X147732542Y-107717654D01*
X147701254Y-107716996D01*
X147675390Y-107716301D01*
X147654551Y-107715569D01*
X147638339Y-107714799D01*
X147626359Y-107713991D01*
X147618213Y-107713142D01*
X147613750Y-107712323D01*
X147534154Y-107681761D01*
X147465184Y-107636142D01*
X147407549Y-107576065D01*
X147361956Y-107502129D01*
X147359661Y-107497353D01*
X147330147Y-107435050D01*
X147330147Y-94775788D01*
X147364920Y-94705428D01*
X147409834Y-94633815D01*
X147467594Y-94572305D01*
X147535277Y-94523178D01*
X147609957Y-94488712D01*
X147660267Y-94475363D01*
X147687662Y-94471964D01*
X147728389Y-94469147D01*
X147777250Y-94467180D01*
X147829046Y-94466330D01*
X147836446Y-94466316D01*
X147964915Y-94466316D01*
X147964915Y-107022682D01*
G37*
G36*
X150098570Y-94479035D02*
G01*
X150205170Y-94479404D01*
X150329538Y-94479788D01*
X150470913Y-94480184D01*
X150628530Y-94480592D01*
X150801626Y-94481010D01*
X150989437Y-94481437D01*
X151191199Y-94481872D01*
X151406148Y-94482314D01*
X151633522Y-94482761D01*
X151872555Y-94483211D01*
X152122485Y-94483665D01*
X152382548Y-94484120D01*
X152651980Y-94484575D01*
X152930018Y-94485030D01*
X153215897Y-94485482D01*
X153508855Y-94485930D01*
X153808126Y-94486374D01*
X154112949Y-94486811D01*
X154422558Y-94487241D01*
X154736191Y-94487663D01*
X155053084Y-94488075D01*
X155372472Y-94488475D01*
X155693593Y-94488864D01*
X156015682Y-94489238D01*
X156337976Y-94489598D01*
X156659712Y-94489942D01*
X156786805Y-94490073D01*
X157209370Y-94490522D01*
X157614250Y-94490988D01*
X158001406Y-94491469D01*
X158370803Y-94491965D01*
X158722401Y-94492478D01*
X159056163Y-94493005D01*
X159372053Y-94493548D01*
X159670031Y-94494106D01*
X159950062Y-94494680D01*
X160212107Y-94495268D01*
X160456128Y-94495871D01*
X160682089Y-94496489D01*
X160889952Y-94497122D01*
X161079678Y-94497769D01*
X161251231Y-94498431D01*
X161404574Y-94499107D01*
X161539667Y-94499797D01*
X161656475Y-94500502D01*
X161754959Y-94501220D01*
X161835083Y-94501953D01*
X161896807Y-94502699D01*
X161940096Y-94503459D01*
X161964910Y-94504233D01*
X161970875Y-94504696D01*
X162047504Y-94526815D01*
X162119171Y-94564789D01*
X162183343Y-94616103D01*
X162237493Y-94678238D01*
X162279088Y-94748679D01*
X162305599Y-94824907D01*
X162308938Y-94841002D01*
X162309576Y-94853701D01*
X162310194Y-94884343D01*
X162310793Y-94932343D01*
X162311372Y-94997111D01*
X162311932Y-95078060D01*
X162312472Y-95174604D01*
X162312993Y-95286154D01*
X162313494Y-95412124D01*
X162313975Y-95551925D01*
X162314437Y-95704970D01*
X162314879Y-95870672D01*
X162315301Y-96048443D01*
X162315703Y-96237697D01*
X162316086Y-96437844D01*
X162316448Y-96648299D01*
X162316791Y-96868473D01*
X162317114Y-97097779D01*
X162317417Y-97335629D01*
X162317699Y-97581437D01*
X162317962Y-97834614D01*
X162318204Y-98094574D01*
X162318427Y-98360728D01*
X162318629Y-98632490D01*
X162318811Y-98909271D01*
X162318973Y-99190485D01*
X162319114Y-99475544D01*
X162319236Y-99763860D01*
X162319336Y-100054846D01*
X162319417Y-100347915D01*
X162319477Y-100642479D01*
X162319516Y-100937950D01*
X162319535Y-101233742D01*
X162319534Y-101529266D01*
X162319512Y-101823936D01*
X162319469Y-102117163D01*
X162319406Y-102408361D01*
X162319322Y-102696942D01*
X162319217Y-102982318D01*
X162319092Y-103263902D01*
X162318946Y-103541107D01*
X162318779Y-103813345D01*
X162318591Y-104080028D01*
X162318382Y-104340569D01*
X162318152Y-104594382D01*
X162317902Y-104840877D01*
X162317630Y-105079468D01*
X162317337Y-105309568D01*
X162317024Y-105530588D01*
X162316689Y-105741942D01*
X162316333Y-105943042D01*
X162315955Y-106133300D01*
X162315557Y-106312130D01*
X162315137Y-106478943D01*
X162314696Y-106633152D01*
X162314234Y-106774169D01*
X162313751Y-106901408D01*
X162313245Y-107014281D01*
X162312719Y-107112200D01*
X162312171Y-107194578D01*
X162311602Y-107260828D01*
X162311011Y-107310361D01*
X162310398Y-107342591D01*
X162309764Y-107356929D01*
X162309704Y-107357335D01*
X162287201Y-107432319D01*
X162249680Y-107504540D01*
X162200221Y-107569390D01*
X162141907Y-107622259D01*
X162124546Y-107634202D01*
X162084487Y-107657497D01*
X162044663Y-107674736D01*
X162001294Y-107686721D01*
X161950599Y-107694250D01*
X161888798Y-107698125D01*
X161817792Y-107699150D01*
X161670351Y-107699150D01*
X161670351Y-95152787D01*
X160342897Y-95157387D01*
X160248811Y-95157701D01*
X160138654Y-95158047D01*
X160013157Y-95158422D01*
X159873052Y-95158827D01*
X159719069Y-95159258D01*
X159551941Y-95159715D01*
X159372400Y-95160195D01*
X159181175Y-95160697D01*
X158978999Y-95161219D01*
X158766604Y-95161760D01*
X158544720Y-95162318D01*
X158314079Y-95162892D01*
X158075413Y-95163479D01*
X157829453Y-95164078D01*
X157576931Y-95164688D01*
X157318577Y-95165307D01*
X157055124Y-95165932D01*
X156787302Y-95166564D01*
X156515844Y-95167199D01*
X156241481Y-95167836D01*
X155964943Y-95168474D01*
X155686963Y-95169111D01*
X155408273Y-95169745D01*
X155129602Y-95170374D01*
X154851684Y-95170998D01*
X154575249Y-95171614D01*
X154301029Y-95172221D01*
X154029754Y-95172817D01*
X153762158Y-95173400D01*
X153498971Y-95173969D01*
X153240924Y-95174522D01*
X152988749Y-95175057D01*
X152743178Y-95175574D01*
X152504942Y-95176069D01*
X152274772Y-95176542D01*
X152053399Y-95176991D01*
X151841556Y-95177414D01*
X151639974Y-95177810D01*
X151449383Y-95178177D01*
X151270517Y-95178513D01*
X151104105Y-95178817D01*
X150950879Y-95179087D01*
X150811572Y-95179321D01*
X150686914Y-95179518D01*
X150577636Y-95179676D01*
X150484471Y-95179793D01*
X150408149Y-95179868D01*
X150349403Y-95179899D01*
X150334871Y-95179900D01*
X149929453Y-95179851D01*
X149929453Y-100841799D01*
X149141785Y-100841799D01*
X149141785Y-95179851D01*
X148539450Y-95179851D01*
X148539450Y-94473245D01*
X150098570Y-94479035D01*
G37*
G36*
X150726185Y-103915317D02*
G01*
X150726336Y-103758728D01*
X150726568Y-103604831D01*
X150726879Y-103454803D01*
X150727270Y-103309820D01*
X150727741Y-103171055D01*
X150728292Y-103039686D01*
X150728922Y-102916887D01*
X150729631Y-102803833D01*
X150730420Y-102701701D01*
X150731289Y-102611665D01*
X150732236Y-102534900D01*
X150733263Y-102472583D01*
X150734369Y-102425889D01*
X150735554Y-102395993D01*
X150736146Y-102388001D01*
X150755369Y-102252008D01*
X150784312Y-102130410D01*
X150823751Y-102021373D01*
X150874460Y-101923059D01*
X150937217Y-101833632D01*
X150999756Y-101764093D01*
X151085510Y-101688409D01*
X151178094Y-101627157D01*
X151278950Y-101579812D01*
X151389520Y-101545848D01*
X151511245Y-101524738D01*
X151645568Y-101515958D01*
X151680858Y-101515627D01*
X151824279Y-101523142D01*
X151956741Y-101545433D01*
X152078149Y-101582454D01*
X152188407Y-101634162D01*
X152287417Y-101700510D01*
X152375083Y-101781454D01*
X152450578Y-101875885D01*
X152497561Y-101955476D01*
X152539374Y-102048655D01*
X152574404Y-102150819D01*
X152601040Y-102257368D01*
X152615840Y-102347636D01*
X152617258Y-102367010D01*
X152618564Y-102401112D01*
X152619757Y-102450227D01*
X152620841Y-102514642D01*
X152621816Y-102594643D01*
X152622684Y-102690514D01*
X152623447Y-102802542D01*
X152624106Y-102931013D01*
X152624664Y-103076212D01*
X152625121Y-103238425D01*
X152625479Y-103417938D01*
X152625740Y-103615036D01*
X152625905Y-103830005D01*
X152625976Y-104063132D01*
X152625980Y-104140741D01*
X152625979Y-104354623D01*
X152625969Y-104550811D01*
X152625932Y-104730146D01*
X152625847Y-104893466D01*
X152625694Y-105041613D01*
X152625453Y-105175426D01*
X152625104Y-105295745D01*
X152624627Y-105403410D01*
X152624002Y-105499260D01*
X152623209Y-105584136D01*
X152622229Y-105658877D01*
X152621040Y-105724323D01*
X152619624Y-105781315D01*
X152617960Y-105830691D01*
X152616029Y-105873292D01*
X152613809Y-105909958D01*
X152611282Y-105941529D01*
X152608428Y-105968844D01*
X152605225Y-105992744D01*
X152601655Y-106014068D01*
X152597698Y-106033655D01*
X152593333Y-106052347D01*
X152588540Y-106070983D01*
X152583300Y-106090402D01*
X152579255Y-106105279D01*
X152566712Y-106144359D01*
X152548447Y-106192318D01*
X152527415Y-106241661D01*
X152515363Y-106267446D01*
X152457143Y-106368531D01*
X152387193Y-106456044D01*
X152304904Y-106530456D01*
X152209666Y-106592241D01*
X152100870Y-106641870D01*
X151986659Y-106677615D01*
X151950999Y-106686055D01*
X151916916Y-106692319D01*
X151880299Y-106696813D01*
X151837033Y-106699938D01*
X151783007Y-106702100D01*
X151722558Y-106703541D01*
X151635061Y-106704310D01*
X151563511Y-106702797D01*
X151505453Y-106698911D01*
X151466200Y-106693890D01*
X151342538Y-106665110D01*
X151222094Y-106620363D01*
X151170496Y-106595489D01*
X151073176Y-106534610D01*
X150987230Y-106459425D01*
X150913000Y-106370522D01*
X150850828Y-106268486D01*
X150801057Y-106153907D01*
X150764029Y-106027370D01*
X150740087Y-105889464D01*
X150735920Y-105850445D01*
X150734700Y-105827907D01*
X150733561Y-105788080D01*
X150732504Y-105732140D01*
X150731528Y-105661262D01*
X150730633Y-105576621D01*
X150729819Y-105479394D01*
X150729085Y-105370755D01*
X150728433Y-105251880D01*
X150727861Y-105123944D01*
X150727370Y-104988123D01*
X150726960Y-104845591D01*
X150726630Y-104697526D01*
X150726380Y-104545101D01*
X150726211Y-104389492D01*
X150726122Y-104231875D01*
X150726115Y-104108307D01*
X151509424Y-104108307D01*
X151509431Y-104318621D01*
X151509456Y-104511206D01*
X151509507Y-104686864D01*
X151509591Y-104846401D01*
X151509716Y-104990619D01*
X151509890Y-105120323D01*
X151510119Y-105236317D01*
X151510412Y-105339403D01*
X151510776Y-105430387D01*
X151511218Y-105510071D01*
X151511746Y-105579260D01*
X151512367Y-105638757D01*
X151513089Y-105689366D01*
X151513920Y-105731892D01*
X151514866Y-105767137D01*
X151515936Y-105795905D01*
X151517136Y-105819001D01*
X151518475Y-105837228D01*
X151519960Y-105851390D01*
X151521598Y-105862291D01*
X151523396Y-105870734D01*
X151525364Y-105877523D01*
X151525944Y-105879231D01*
X151539685Y-105910640D01*
X151556156Y-105937581D01*
X151564448Y-105947205D01*
X151605940Y-105974267D01*
X151655484Y-105988138D01*
X151707567Y-105988253D01*
X151756675Y-105974045D01*
X151768055Y-105968065D01*
X151805174Y-105936002D01*
X151832873Y-105889826D01*
X151846963Y-105845017D01*
X151848352Y-105830924D01*
X151849630Y-105801934D01*
X151850800Y-105757775D01*
X151851862Y-105698173D01*
X151852818Y-105622856D01*
X151853670Y-105531551D01*
X151854419Y-105423984D01*
X151855067Y-105299883D01*
X151855615Y-105158976D01*
X151856066Y-105000988D01*
X151856420Y-104825648D01*
X151856680Y-104632681D01*
X151856846Y-104421816D01*
X151856920Y-104192780D01*
X151856925Y-104114432D01*
X151856933Y-103902051D01*
X151856942Y-103707407D01*
X151856928Y-103529703D01*
X151856868Y-103368142D01*
X151856738Y-103221927D01*
X151856515Y-103090262D01*
X151856175Y-102972349D01*
X151855694Y-102867392D01*
X151855049Y-102774595D01*
X151854217Y-102693160D01*
X151853174Y-102622290D01*
X151851897Y-102561189D01*
X151850361Y-102509061D01*
X151848544Y-102465107D01*
X151846422Y-102428532D01*
X151843971Y-102398539D01*
X151841168Y-102374330D01*
X151837990Y-102355110D01*
X151834412Y-102340081D01*
X151830412Y-102328447D01*
X151825965Y-102319411D01*
X151821049Y-102312175D01*
X151815639Y-102305944D01*
X151809713Y-102299920D01*
X151803246Y-102293307D01*
X151803156Y-102293212D01*
X151761203Y-102261345D01*
X151711341Y-102244015D01*
X151657996Y-102241928D01*
X151605599Y-102255792D01*
X151596307Y-102260190D01*
X151570837Y-102276824D01*
X151551288Y-102299965D01*
X151534126Y-102332006D01*
X151509424Y-102384703D01*
X151509424Y-104108307D01*
X150726115Y-104108307D01*
X150726113Y-104073425D01*
X150726185Y-103915317D01*
G37*
G36*
X149246035Y-101546105D02*
G01*
X149378155Y-101546175D01*
X149493239Y-101546435D01*
X149592784Y-101546983D01*
X149678287Y-101547915D01*
X149751243Y-101549331D01*
X149813152Y-101551328D01*
X149865508Y-101554004D01*
X149909810Y-101557458D01*
X149947554Y-101561787D01*
X149980237Y-101567089D01*
X150009356Y-101573463D01*
X150036407Y-101581005D01*
X150062889Y-101589815D01*
X150090297Y-101599991D01*
X150094627Y-101601659D01*
X150189649Y-101647721D01*
X150272232Y-101707454D01*
X150341911Y-101780381D01*
X150398220Y-101866026D01*
X150436213Y-101951174D01*
X150445954Y-101978048D01*
X150454405Y-102002250D01*
X150461665Y-102025262D01*
X150467833Y-102048569D01*
X150473007Y-102073653D01*
X150477286Y-102101997D01*
X150480771Y-102135086D01*
X150483559Y-102174402D01*
X150485749Y-102221428D01*
X150487441Y-102277649D01*
X150488734Y-102344546D01*
X150489726Y-102423604D01*
X150490516Y-102516306D01*
X150491204Y-102624136D01*
X150491888Y-102748576D01*
X150492105Y-102788817D01*
X150492768Y-102915205D01*
X150493278Y-103024520D01*
X150493603Y-103118225D01*
X150493716Y-103197780D01*
X150493585Y-103264646D01*
X150493181Y-103320285D01*
X150492474Y-103366158D01*
X150491435Y-103403726D01*
X150490033Y-103434450D01*
X150488240Y-103459791D01*
X150486025Y-103481210D01*
X150483358Y-103500169D01*
X150480210Y-103518128D01*
X150476913Y-103534779D01*
X150449135Y-103634830D01*
X150409603Y-103721769D01*
X150358804Y-103795005D01*
X150297226Y-103853946D01*
X150225355Y-103898003D01*
X150156361Y-103923354D01*
X150119601Y-103935296D01*
X150101077Y-103946596D01*
X150100847Y-103957705D01*
X150118975Y-103969073D01*
X150155522Y-103981150D01*
X150164568Y-103983566D01*
X150257039Y-104016117D01*
X150337130Y-104062446D01*
X150404759Y-104122464D01*
X150459843Y-104196084D01*
X150502299Y-104283219D01*
X150529555Y-104372734D01*
X150532321Y-104385778D01*
X150534755Y-104400500D01*
X150536877Y-104418105D01*
X150538708Y-104439794D01*
X150540270Y-104466770D01*
X150541583Y-104500235D01*
X150542668Y-104541391D01*
X150543547Y-104591441D01*
X150544241Y-104651587D01*
X150544771Y-104723032D01*
X150545157Y-104806978D01*
X150545420Y-104904628D01*
X150545583Y-105017183D01*
X150545665Y-105145847D01*
X150545688Y-105291821D01*
X150545688Y-105294444D01*
X150545670Y-105440266D01*
X150545600Y-105568768D01*
X150545456Y-105681166D01*
X150545216Y-105778674D01*
X150544857Y-105862505D01*
X150544358Y-105933875D01*
X150543695Y-105993998D01*
X150542846Y-106044088D01*
X150541789Y-106085359D01*
X150540502Y-106119026D01*
X150538963Y-106146303D01*
X150537148Y-106168405D01*
X150535036Y-106186545D01*
X150532604Y-106201938D01*
X150529830Y-106215799D01*
X150528637Y-106221113D01*
X150497331Y-106322219D01*
X150452917Y-106410230D01*
X150395353Y-106485192D01*
X150324600Y-106547152D01*
X150240616Y-106596156D01*
X150180912Y-106620392D01*
X150153749Y-106629514D01*
X150127294Y-106637460D01*
X150100110Y-106644311D01*
X150070758Y-106650148D01*
X150037800Y-106655051D01*
X149999797Y-106659102D01*
X149955312Y-106662380D01*
X149902905Y-106664966D01*
X149841139Y-106666942D01*
X149768576Y-106668387D01*
X149683777Y-106669383D01*
X149585304Y-106670010D01*
X149471718Y-106670349D01*
X149341581Y-106670481D01*
X149287735Y-106670493D01*
X148641383Y-106670548D01*
X148641383Y-106005824D01*
X149419785Y-106005824D01*
X149510136Y-106001275D01*
X149562218Y-105996939D01*
X149606324Y-105989953D01*
X149637226Y-105981149D01*
X149637553Y-105981011D01*
X149684955Y-105953300D01*
X149721614Y-105913643D01*
X149745764Y-105870206D01*
X149767286Y-105822645D01*
X149769961Y-105175598D01*
X149770479Y-105042785D01*
X149770806Y-104927174D01*
X149770858Y-104827431D01*
X149770551Y-104742227D01*
X149769800Y-104670228D01*
X149768523Y-104610103D01*
X149766636Y-104560521D01*
X149764053Y-104520148D01*
X149760692Y-104487655D01*
X149756469Y-104461708D01*
X149751300Y-104440976D01*
X149745101Y-104424127D01*
X149737788Y-104409830D01*
X149729278Y-104396752D01*
X149720148Y-104384430D01*
X149692643Y-104354946D01*
X149659892Y-104333935D01*
X149618381Y-104320080D01*
X149564592Y-104312067D01*
X149519402Y-104309290D01*
X149419785Y-104305491D01*
X149419785Y-106005824D01*
X148641383Y-106005824D01*
X148641383Y-103668140D01*
X149419785Y-103668140D01*
X149514769Y-103667435D01*
X149558366Y-103666075D01*
X149598067Y-103662994D01*
X149628222Y-103658719D01*
X149639242Y-103655851D01*
X149685934Y-103629046D01*
X149722769Y-103586642D01*
X149737972Y-103558619D01*
X149742152Y-103549201D01*
X149745714Y-103539451D01*
X149748718Y-103527870D01*
X149751218Y-103512959D01*
X149753273Y-103493219D01*
X149754940Y-103467150D01*
X149756276Y-103433252D01*
X149757338Y-103390027D01*
X149758183Y-103335975D01*
X149758869Y-103269596D01*
X149759452Y-103189392D01*
X149759990Y-103093863D01*
X149760539Y-102981509D01*
X149760620Y-102964392D01*
X149761140Y-102841614D01*
X149761402Y-102735926D01*
X149761325Y-102645882D01*
X149760827Y-102570040D01*
X149759830Y-102506956D01*
X149758251Y-102455186D01*
X149756010Y-102413286D01*
X149753026Y-102379813D01*
X149749219Y-102353323D01*
X149744508Y-102332373D01*
X149738812Y-102315518D01*
X149732050Y-102301315D01*
X149724142Y-102288320D01*
X149722700Y-102286159D01*
X149701873Y-102259909D01*
X149677988Y-102241058D01*
X149647513Y-102228304D01*
X149606914Y-102220347D01*
X149552660Y-102215884D01*
X149529239Y-102214887D01*
X149419785Y-102210985D01*
X149419785Y-103668140D01*
X148641383Y-103668140D01*
X148641383Y-101546067D01*
X149246035Y-101546105D01*
G37*
G36*
X152897330Y-104546937D02*
G01*
X152915537Y-104360769D01*
X152933860Y-104173468D01*
X152952208Y-103985945D01*
X152970494Y-103799110D01*
X152988627Y-103613874D01*
X153006519Y-103431149D01*
X153024081Y-103251846D01*
X153041222Y-103076876D01*
X153057856Y-102907150D01*
X153073891Y-102743579D01*
X153089239Y-102587075D01*
X153103811Y-102438548D01*
X153117517Y-102298909D01*
X153130270Y-102169070D01*
X153141978Y-102049941D01*
X153152554Y-101942435D01*
X153161908Y-101847461D01*
X153169951Y-101765932D01*
X153176593Y-101698757D01*
X153181746Y-101646849D01*
X153185321Y-101611119D01*
X153187228Y-101592477D01*
X153187494Y-101590084D01*
X153193068Y-101546067D01*
X154289502Y-101546067D01*
X154539969Y-104105991D01*
X154790435Y-106665914D01*
X154401807Y-106668333D01*
X154318881Y-106668793D01*
X154241917Y-106669112D01*
X154172844Y-106669289D01*
X154113589Y-106669326D01*
X154066080Y-106669222D01*
X154032245Y-106668976D01*
X154014011Y-106668590D01*
X154011335Y-106668333D01*
X154010362Y-106658911D01*
X154008209Y-106632627D01*
X154004995Y-106591108D01*
X154000842Y-106535977D01*
X153995870Y-106468862D01*
X153990199Y-106391387D01*
X153983950Y-106305179D01*
X153977243Y-106211863D01*
X153970963Y-106123813D01*
X153963843Y-106024165D01*
X153956976Y-105929104D01*
X153950496Y-105840406D01*
X153944536Y-105759848D01*
X153939229Y-105689206D01*
X153934710Y-105630257D01*
X153931110Y-105584776D01*
X153928563Y-105554540D01*
X153927348Y-105542328D01*
X153922262Y-105502944D01*
X153728229Y-105502944D01*
X153670475Y-105503260D01*
X153619504Y-105504143D01*
X153578039Y-105505496D01*
X153548804Y-105507222D01*
X153534521Y-105509223D01*
X153533554Y-105509894D01*
X153532833Y-105520128D01*
X153530974Y-105547257D01*
X153528084Y-105589686D01*
X153524273Y-105645820D01*
X153519647Y-105714062D01*
X153514316Y-105792818D01*
X153508387Y-105880490D01*
X153501969Y-105975485D01*
X153495170Y-106076205D01*
X153494146Y-106091379D01*
X153455380Y-106665914D01*
X153073154Y-106668334D01*
X152991020Y-106668728D01*
X152914937Y-106668853D01*
X152846836Y-106668721D01*
X152788647Y-106668349D01*
X152742303Y-106667751D01*
X152709736Y-106666941D01*
X152692876Y-106665935D01*
X152690927Y-106665408D01*
X152691817Y-106655448D01*
X152694426Y-106627955D01*
X152698666Y-106583839D01*
X152704448Y-106524011D01*
X152711682Y-106449383D01*
X152720279Y-106360866D01*
X152730150Y-106259371D01*
X152741207Y-106145808D01*
X152753359Y-106021089D01*
X152766518Y-105886126D01*
X152780594Y-105741829D01*
X152795498Y-105589109D01*
X152811142Y-105428878D01*
X152827436Y-105262046D01*
X152844291Y-105089525D01*
X152861618Y-104912225D01*
X152870226Y-104824159D01*
X153580397Y-104824159D01*
X153585129Y-104828754D01*
X153600521Y-104832055D01*
X153628550Y-104834217D01*
X153671194Y-104835395D01*
X153728797Y-104835743D01*
X153784480Y-104835585D01*
X153824263Y-104834918D01*
X153850775Y-104833456D01*
X153866647Y-104830910D01*
X153874511Y-104826992D01*
X153876997Y-104821416D01*
X153877088Y-104819526D01*
X153876492Y-104807136D01*
X153874759Y-104777773D01*
X153871989Y-104732955D01*
X153868283Y-104674202D01*
X153863740Y-104603031D01*
X153858460Y-104520963D01*
X153852544Y-104429516D01*
X153846092Y-104330208D01*
X153839202Y-104224558D01*
X153831977Y-104114085D01*
X153824515Y-104000309D01*
X153816916Y-103884747D01*
X153809281Y-103768919D01*
X153801709Y-103654343D01*
X153794301Y-103542539D01*
X153787156Y-103435024D01*
X153780374Y-103333318D01*
X153774057Y-103238940D01*
X153768303Y-103153409D01*
X153763212Y-103078242D01*
X153758885Y-103014960D01*
X153755421Y-102965080D01*
X153752921Y-102930122D01*
X153751485Y-102911604D01*
X153751391Y-102910588D01*
X153745738Y-102875427D01*
X153737866Y-102855673D01*
X153729185Y-102852053D01*
X153721102Y-102865297D01*
X153715528Y-102892054D01*
X153714338Y-102905413D01*
X153711988Y-102935657D01*
X153708585Y-102981279D01*
X153704233Y-103040771D01*
X153699039Y-103112624D01*
X153693108Y-103195331D01*
X153686545Y-103287383D01*
X153679455Y-103387273D01*
X153671945Y-103493492D01*
X153664119Y-103604532D01*
X153656084Y-103718885D01*
X153647944Y-103835043D01*
X153639805Y-103951498D01*
X153631772Y-104066742D01*
X153623952Y-104179266D01*
X153616449Y-104287563D01*
X153609369Y-104390124D01*
X153602818Y-104485441D01*
X153596901Y-104572007D01*
X153591723Y-104648313D01*
X153587389Y-104712851D01*
X153584007Y-104764113D01*
X153581680Y-104800591D01*
X153580514Y-104820776D01*
X153580397Y-104824159D01*
X152870226Y-104824159D01*
X152879327Y-104731059D01*
X152897330Y-104546937D01*
G37*
G36*
X155593718Y-101548236D02*
G01*
X155720342Y-101548819D01*
X155829847Y-101549375D01*
X155923645Y-101549948D01*
X156003153Y-101550584D01*
X156069782Y-101551329D01*
X156124947Y-101552227D01*
X156170062Y-101553323D01*
X156206541Y-101554662D01*
X156235797Y-101556290D01*
X156259245Y-101558252D01*
X156278297Y-101560593D01*
X156294369Y-101563357D01*
X156308873Y-101566591D01*
X156323224Y-101570340D01*
X156328103Y-101571679D01*
X156433503Y-101608429D01*
X156525203Y-101656960D01*
X156603653Y-101717793D01*
X156669306Y-101791446D01*
X156722611Y-101878437D01*
X156764020Y-101979285D01*
X156793982Y-102094508D01*
X156797201Y-102111336D01*
X156799647Y-102128131D01*
X156801779Y-102150901D01*
X156803615Y-102180819D01*
X156805173Y-102219062D01*
X156806473Y-102266804D01*
X156807532Y-102325221D01*
X156808370Y-102395488D01*
X156809004Y-102478781D01*
X156809454Y-102576274D01*
X156809737Y-102689144D01*
X156809872Y-102818565D01*
X156809889Y-102917538D01*
X156809868Y-103051635D01*
X156809812Y-103168518D01*
X156809688Y-103269506D01*
X156809463Y-103355919D01*
X156809103Y-103429075D01*
X156808574Y-103490295D01*
X156807842Y-103540898D01*
X156806873Y-103582202D01*
X156805635Y-103615527D01*
X156804093Y-103642193D01*
X156802213Y-103663519D01*
X156799962Y-103680824D01*
X156797305Y-103695427D01*
X156794210Y-103708648D01*
X156790643Y-103721806D01*
X156789201Y-103726909D01*
X156754269Y-103823738D01*
X156708085Y-103909524D01*
X156651883Y-103982895D01*
X156586896Y-104042483D01*
X156514356Y-104086918D01*
X156441174Y-104113448D01*
X156411056Y-104123661D01*
X156399450Y-104134495D01*
X156406358Y-104145955D01*
X156431785Y-104158047D01*
X156469971Y-104169338D01*
X156555641Y-104198665D01*
X156627985Y-104240351D01*
X156688462Y-104295574D01*
X156738526Y-104365513D01*
X156758322Y-104402664D01*
X156768644Y-104423648D01*
X156777879Y-104442594D01*
X156786089Y-104460596D01*
X156793339Y-104478751D01*
X156799691Y-104498154D01*
X156805211Y-104519901D01*
X156809962Y-104545088D01*
X156814008Y-104574810D01*
X156817413Y-104610164D01*
X156820239Y-104652244D01*
X156822553Y-104702147D01*
X156824416Y-104760969D01*
X156825893Y-104829805D01*
X156827048Y-104909750D01*
X156827945Y-105001901D01*
X156828647Y-105107354D01*
X156829218Y-105227203D01*
X156829723Y-105362546D01*
X156830224Y-105514477D01*
X156830651Y-105644262D01*
X156834103Y-106670548D01*
X156054736Y-106670548D01*
X156054684Y-105658162D01*
X156054600Y-105477836D01*
X156054363Y-105315661D01*
X156053969Y-105171254D01*
X156053416Y-105044232D01*
X156052699Y-104934213D01*
X156051815Y-104840814D01*
X156050759Y-104763653D01*
X156049529Y-104702348D01*
X156048121Y-104656515D01*
X156046530Y-104625772D01*
X156044754Y-104609738D01*
X156044508Y-104608709D01*
X156027620Y-104565008D01*
X156002563Y-104531845D01*
X155967332Y-104508180D01*
X155919923Y-104492976D01*
X155858332Y-104485196D01*
X155802854Y-104483608D01*
X155711869Y-104483608D01*
X155711869Y-106670548D01*
X154933466Y-106670548D01*
X154933466Y-103844207D01*
X155711869Y-103844207D01*
X155802219Y-103844155D01*
X155845715Y-103843143D01*
X155886154Y-103840477D01*
X155917277Y-103836639D01*
X155926936Y-103834559D01*
X155965773Y-103815490D01*
X156002077Y-103782767D01*
X156030812Y-103741098D01*
X156034184Y-103734312D01*
X156037238Y-103726695D01*
X156039878Y-103716833D01*
X156042133Y-103703410D01*
X156044033Y-103685110D01*
X156045608Y-103660618D01*
X156046888Y-103628616D01*
X156047903Y-103587790D01*
X156048683Y-103536824D01*
X156049257Y-103474400D01*
X156049656Y-103399204D01*
X156049910Y-103309919D01*
X156050047Y-103205230D01*
X156050099Y-103083820D01*
X156050103Y-103033371D01*
X156050093Y-102906153D01*
X156050038Y-102796137D01*
X156049903Y-102701992D01*
X156049650Y-102622384D01*
X156049244Y-102555984D01*
X156048648Y-102501459D01*
X156047825Y-102457478D01*
X156046740Y-102422709D01*
X156045355Y-102395821D01*
X156043634Y-102375481D01*
X156041541Y-102360359D01*
X156039040Y-102349123D01*
X156036093Y-102340441D01*
X156032665Y-102332982D01*
X156030852Y-102329470D01*
X156000834Y-102291694D01*
X155971477Y-102271554D01*
X155951762Y-102262244D01*
X155931632Y-102256101D01*
X155906603Y-102252492D01*
X155872196Y-102250782D01*
X155823929Y-102250336D01*
X155711869Y-102250336D01*
X155711869Y-103844207D01*
X154933466Y-103844207D01*
X154933466Y-101545260D01*
X155593718Y-101548236D01*
G37*
G36*
X157596970Y-101546067D02*
G01*
X157722069Y-101546242D01*
X157836123Y-101546756D01*
X157938060Y-101547592D01*
X158026806Y-101548733D01*
X158101290Y-101550162D01*
X158160436Y-101551863D01*
X158203174Y-101553819D01*
X158228082Y-101555963D01*
X158357638Y-101581431D01*
X158474069Y-101619978D01*
X158577390Y-101671618D01*
X158667614Y-101736366D01*
X158744753Y-101814236D01*
X158808822Y-101905241D01*
X158859834Y-102009396D01*
X158897803Y-102126716D01*
X158922741Y-102257214D01*
X158927122Y-102293585D01*
X158928523Y-102312376D01*
X158929790Y-102341602D01*
X158930923Y-102381799D01*
X158931925Y-102433507D01*
X158932798Y-102497263D01*
X158933545Y-102573607D01*
X158934167Y-102663075D01*
X158934667Y-102766207D01*
X158935047Y-102883540D01*
X158935308Y-103015613D01*
X158935454Y-103162964D01*
X158935485Y-103326132D01*
X158935405Y-103505653D01*
X158935215Y-103702068D01*
X158934917Y-103915913D01*
X158934515Y-104147728D01*
X158934493Y-104159274D01*
X158934087Y-104371698D01*
X158933706Y-104566403D01*
X158933339Y-104744203D01*
X158932976Y-104905914D01*
X158932606Y-105052351D01*
X158932221Y-105184327D01*
X158931810Y-105302657D01*
X158931362Y-105408156D01*
X158930868Y-105501639D01*
X158930317Y-105583921D01*
X158929700Y-105655815D01*
X158929006Y-105718136D01*
X158928225Y-105771700D01*
X158927347Y-105817320D01*
X158926362Y-105855812D01*
X158925260Y-105887990D01*
X158924031Y-105914668D01*
X158922664Y-105936661D01*
X158921150Y-105954785D01*
X158919478Y-105969852D01*
X158917639Y-105982679D01*
X158915621Y-105994079D01*
X158913416Y-106004868D01*
X158911492Y-106013689D01*
X158876520Y-106142077D01*
X158831287Y-106255203D01*
X158775243Y-106353593D01*
X158707837Y-106437771D01*
X158628519Y-106508262D01*
X158536739Y-106565590D01*
X158431947Y-106610280D01*
X158313592Y-106642856D01*
X158237042Y-106656626D01*
X158213076Y-106659678D01*
X158184317Y-106662272D01*
X158149250Y-106664442D01*
X158106361Y-106666221D01*
X158054135Y-106667641D01*
X157991057Y-106668734D01*
X157915612Y-106669534D01*
X157826285Y-106670071D01*
X157721562Y-106670380D01*
X157599927Y-106670492D01*
X157590690Y-106670493D01*
X157037005Y-106670548D01*
X157037005Y-105966279D01*
X157806141Y-105966279D01*
X157905758Y-105966244D01*
X157953570Y-105965618D01*
X157987149Y-105963388D01*
X158010768Y-105958970D01*
X158028698Y-105951778D01*
X158034146Y-105948666D01*
X158063023Y-105924564D01*
X158087246Y-105889181D01*
X158108261Y-105839932D01*
X158123757Y-105788743D01*
X158144375Y-105711445D01*
X158144375Y-102495903D01*
X158123793Y-102430480D01*
X158098740Y-102365269D01*
X158068617Y-102316596D01*
X158031062Y-102282666D01*
X157983715Y-102261681D01*
X157924213Y-102251845D01*
X157887224Y-102250539D01*
X157806141Y-102250336D01*
X157806141Y-105966279D01*
X157037005Y-105966279D01*
X157037005Y-101546067D01*
X157596970Y-101546067D01*
G37*
G36*
X158992491Y-97841079D02*
G01*
X158992756Y-97639539D01*
X158993126Y-97453769D01*
X158993597Y-97284026D01*
X158994170Y-97130572D01*
X158994842Y-96993666D01*
X158995612Y-96873567D01*
X158996479Y-96770536D01*
X158997441Y-96684832D01*
X158998498Y-96616715D01*
X158999647Y-96566444D01*
X159000887Y-96534280D01*
X159001733Y-96523278D01*
X159026453Y-96379600D01*
X159064352Y-96248838D01*
X159115250Y-96131164D01*
X159178967Y-96026753D01*
X159255325Y-95935776D01*
X159344144Y-95858407D01*
X159445244Y-95794819D01*
X159558447Y-95745184D01*
X159683572Y-95709676D01*
X159820441Y-95688466D01*
X159871888Y-95684405D01*
X160004668Y-95683691D01*
X160132995Y-95697329D01*
X160255052Y-95724685D01*
X160369021Y-95765124D01*
X160473086Y-95818012D01*
X160565429Y-95882716D01*
X160638108Y-95951735D01*
X160707109Y-96040002D01*
X160767044Y-96141036D01*
X160815524Y-96250313D01*
X160845216Y-96343527D01*
X160850227Y-96362599D01*
X160854823Y-96380480D01*
X160859024Y-96398004D01*
X160862846Y-96416003D01*
X160866308Y-96435310D01*
X160869427Y-96456758D01*
X160872221Y-96481179D01*
X160874708Y-96509406D01*
X160876906Y-96542272D01*
X160878832Y-96580609D01*
X160880506Y-96625250D01*
X160881943Y-96677028D01*
X160883163Y-96736776D01*
X160884183Y-96805326D01*
X160885021Y-96883511D01*
X160885695Y-96972164D01*
X160886222Y-97072116D01*
X160886621Y-97184202D01*
X160886910Y-97309254D01*
X160887105Y-97448104D01*
X160887226Y-97601585D01*
X160887289Y-97770530D01*
X160887314Y-97955772D01*
X160887317Y-98158143D01*
X160887315Y-98307359D01*
X160887309Y-98519030D01*
X160887283Y-98712991D01*
X160887232Y-98890066D01*
X160887146Y-99051076D01*
X160887020Y-99196847D01*
X160886844Y-99328200D01*
X160886612Y-99445959D01*
X160886315Y-99550947D01*
X160885947Y-99643987D01*
X160885499Y-99725904D01*
X160884964Y-99797519D01*
X160884334Y-99859657D01*
X160883603Y-99913140D01*
X160882761Y-99958791D01*
X160881802Y-99997435D01*
X160880718Y-100029893D01*
X160879501Y-100056990D01*
X160878144Y-100079548D01*
X160876639Y-100098392D01*
X160874978Y-100114343D01*
X160873154Y-100128225D01*
X160871160Y-100140862D01*
X160870331Y-100145649D01*
X160839169Y-100280386D01*
X160795678Y-100401295D01*
X160739768Y-100508460D01*
X160671353Y-100601969D01*
X160590344Y-100681905D01*
X160496652Y-100748357D01*
X160390191Y-100801409D01*
X160270872Y-100841148D01*
X160138606Y-100867659D01*
X160129093Y-100868990D01*
X160068639Y-100874640D01*
X159996374Y-100877366D01*
X159918779Y-100877243D01*
X159842333Y-100874348D01*
X159773514Y-100868756D01*
X159740487Y-100864438D01*
X159614240Y-100836933D01*
X159497689Y-100795544D01*
X159392020Y-100740929D01*
X159298421Y-100673744D01*
X159218077Y-100594647D01*
X159189376Y-100559103D01*
X159146906Y-100498778D01*
X159112715Y-100440159D01*
X159083458Y-100376743D01*
X159055789Y-100302025D01*
X159053151Y-100294190D01*
X159045943Y-100272779D01*
X159039328Y-100252920D01*
X159033279Y-100233780D01*
X159027771Y-100214523D01*
X159022780Y-100194314D01*
X159018279Y-100172320D01*
X159014244Y-100147706D01*
X159010648Y-100119636D01*
X159007468Y-100087277D01*
X159004676Y-100049793D01*
X159002249Y-100006350D01*
X159000160Y-99956113D01*
X158998384Y-99898247D01*
X158996896Y-99831919D01*
X158995671Y-99756293D01*
X158994683Y-99670534D01*
X158993906Y-99573808D01*
X158993317Y-99465281D01*
X158992888Y-99344117D01*
X158992595Y-99209482D01*
X158992412Y-99060542D01*
X158992314Y-98896461D01*
X158992276Y-98716405D01*
X158992272Y-98519539D01*
X158992277Y-98305029D01*
X158992277Y-98290424D01*
X158992280Y-98279559D01*
X159775313Y-98279559D01*
X159775319Y-98490479D01*
X159775345Y-98683665D01*
X159775396Y-98859914D01*
X159775481Y-99020027D01*
X159775606Y-99164802D01*
X159775779Y-99295037D01*
X159776008Y-99411532D01*
X159776300Y-99515085D01*
X159776662Y-99606496D01*
X159777101Y-99686562D01*
X159777625Y-99756083D01*
X159778242Y-99815858D01*
X159778958Y-99866685D01*
X159779781Y-99909363D01*
X159780718Y-99944691D01*
X159781778Y-99973468D01*
X159782966Y-99996493D01*
X159784291Y-100014564D01*
X159785760Y-100028480D01*
X159787380Y-100039041D01*
X159789159Y-100047044D01*
X159791103Y-100053289D01*
X159791694Y-100054871D01*
X159807262Y-100086280D01*
X159826737Y-100114350D01*
X159833593Y-100121759D01*
X159871498Y-100146133D01*
X159918333Y-100158316D01*
X159968587Y-100157739D01*
X160016753Y-100143830D01*
X160022093Y-100141258D01*
X160056439Y-100115328D01*
X160086134Y-100077184D01*
X160106267Y-100033142D01*
X160106353Y-100032859D01*
X160107892Y-100018550D01*
X160109335Y-99986837D01*
X160110681Y-99938850D01*
X160111930Y-99875720D01*
X160113082Y-99798574D01*
X160114138Y-99708544D01*
X160115097Y-99606758D01*
X160115959Y-99494347D01*
X160116724Y-99372439D01*
X160117392Y-99242165D01*
X160117964Y-99104655D01*
X160118439Y-98961037D01*
X160118817Y-98812441D01*
X160119098Y-98659998D01*
X160119283Y-98504836D01*
X160119370Y-98348085D01*
X160119361Y-98190876D01*
X160119256Y-98034337D01*
X160119053Y-97879598D01*
X160118753Y-97727790D01*
X160118357Y-97580040D01*
X160117864Y-97437480D01*
X160117275Y-97301238D01*
X160116588Y-97172445D01*
X160115805Y-97052230D01*
X160114925Y-96941723D01*
X160113948Y-96842052D01*
X160112874Y-96754349D01*
X160111704Y-96679742D01*
X160110436Y-96619361D01*
X160109072Y-96574336D01*
X160107612Y-96545797D01*
X160106353Y-96535526D01*
X160082329Y-96483055D01*
X160046597Y-96444923D01*
X159999409Y-96421309D01*
X159941017Y-96412396D01*
X159934514Y-96412321D01*
X159884175Y-96419092D01*
X159843863Y-96440340D01*
X159811414Y-96477468D01*
X159798479Y-96500368D01*
X159775313Y-96546688D01*
X159775313Y-98279559D01*
X158992280Y-98279559D01*
X158992331Y-98058127D01*
X158992491Y-97841079D01*
G37*
G36*
X152236859Y-96412092D02*
G01*
X151896309Y-96414523D01*
X151555758Y-96416954D01*
X151555758Y-97797691D01*
X151854608Y-97800136D01*
X152153459Y-97802581D01*
X152153459Y-98506336D01*
X151854608Y-98508781D01*
X151555758Y-98511226D01*
X151553390Y-99324378D01*
X151551023Y-100137530D01*
X152283193Y-100137530D01*
X152283193Y-100841799D01*
X150781989Y-100841799D01*
X150781989Y-95717319D01*
X152236859Y-95717319D01*
X152236859Y-96412092D01*
G37*
G36*
X154214694Y-95765969D02*
G01*
X154215795Y-95779152D01*
X154218120Y-95809532D01*
X154221583Y-95855946D01*
X154226103Y-95917228D01*
X154231594Y-95992214D01*
X154237974Y-96079738D01*
X154245160Y-96178636D01*
X154253067Y-96287744D01*
X154261612Y-96405896D01*
X154270713Y-96531928D01*
X154280284Y-96664675D01*
X154290243Y-96802973D01*
X154300506Y-96945656D01*
X154310990Y-97091560D01*
X154321611Y-97239519D01*
X154332285Y-97388371D01*
X154342930Y-97536948D01*
X154353462Y-97684088D01*
X154363797Y-97828625D01*
X154373851Y-97969394D01*
X154383542Y-98105231D01*
X154392785Y-98234970D01*
X154401497Y-98357448D01*
X154409595Y-98471499D01*
X154416995Y-98575958D01*
X154423614Y-98669662D01*
X154429368Y-98751444D01*
X154434174Y-98820141D01*
X154437948Y-98874588D01*
X154440606Y-98913620D01*
X154442065Y-98936071D01*
X154442332Y-98941192D01*
X154447648Y-98951098D01*
X154459187Y-98949859D01*
X154470334Y-98939696D01*
X154474024Y-98930544D01*
X154475153Y-98919163D01*
X154477555Y-98890275D01*
X154481156Y-98844859D01*
X154485883Y-98783893D01*
X154491663Y-98708354D01*
X154498422Y-98619221D01*
X154506087Y-98517472D01*
X154514584Y-98404085D01*
X154523841Y-98280038D01*
X154533784Y-98146308D01*
X154544340Y-98003875D01*
X154555435Y-97853715D01*
X154566997Y-97696808D01*
X154578951Y-97534131D01*
X154590537Y-97376056D01*
X154602839Y-97208078D01*
X154614829Y-97044497D01*
X154626433Y-96886327D01*
X154637576Y-96734582D01*
X154648182Y-96590275D01*
X154658178Y-96454420D01*
X154667488Y-96328030D01*
X154676038Y-96212119D01*
X154683753Y-96107699D01*
X154690558Y-96015785D01*
X154696378Y-95937389D01*
X154701140Y-95873526D01*
X154704767Y-95825209D01*
X154707186Y-95793451D01*
X154708267Y-95779869D01*
X154713727Y-95717319D01*
X155860136Y-95717319D01*
X155860136Y-100841799D01*
X155165134Y-100841799D01*
X155165161Y-99569946D01*
X155165299Y-99327809D01*
X155165697Y-99096061D01*
X155166350Y-98875323D01*
X155167251Y-98666221D01*
X155168392Y-98469378D01*
X155169768Y-98285418D01*
X155171372Y-98114966D01*
X155173197Y-97958644D01*
X155175236Y-97817078D01*
X155177484Y-97690891D01*
X155179933Y-97580706D01*
X155182578Y-97487149D01*
X155185410Y-97410843D01*
X155188425Y-97352411D01*
X155188593Y-97349775D01*
X155190922Y-97309399D01*
X155191298Y-97284198D01*
X155189290Y-97270877D01*
X155184469Y-97266142D01*
X155177712Y-97266429D01*
X155175599Y-97268028D01*
X155173331Y-97272531D01*
X155170822Y-97280692D01*
X155167981Y-97293264D01*
X155164722Y-97310999D01*
X155160955Y-97334652D01*
X155156592Y-97364976D01*
X155151545Y-97402723D01*
X155145726Y-97448647D01*
X155139045Y-97503500D01*
X155131415Y-97568037D01*
X155122747Y-97643011D01*
X155112953Y-97729174D01*
X155101945Y-97827280D01*
X155089633Y-97938083D01*
X155075930Y-98062334D01*
X155060748Y-98200788D01*
X155043997Y-98354198D01*
X155025590Y-98523316D01*
X155005438Y-98708897D01*
X154983453Y-98911693D01*
X154969111Y-99044115D01*
X154949671Y-99223681D01*
X154930767Y-99398370D01*
X154912495Y-99567286D01*
X154894951Y-99729533D01*
X154878233Y-99884213D01*
X154862437Y-100030432D01*
X154847660Y-100167291D01*
X154833999Y-100293895D01*
X154821549Y-100409348D01*
X154810409Y-100512752D01*
X154800674Y-100603211D01*
X154792442Y-100679830D01*
X154785808Y-100741710D01*
X154780870Y-100787957D01*
X154777725Y-100817673D01*
X154776469Y-100829962D01*
X154776450Y-100830216D01*
X154772441Y-100833392D01*
X154759754Y-100835974D01*
X154736935Y-100838010D01*
X154702527Y-100839552D01*
X154655074Y-100840651D01*
X154593121Y-100841357D01*
X154515212Y-100841720D01*
X154443526Y-100841799D01*
X154111119Y-100841799D01*
X154105686Y-100797782D01*
X154104149Y-100784159D01*
X154100732Y-100753037D01*
X154095536Y-100705345D01*
X154088659Y-100642013D01*
X154080203Y-100563969D01*
X154070268Y-100472142D01*
X154058954Y-100367460D01*
X154046362Y-100250854D01*
X154032592Y-100123251D01*
X154017743Y-99985580D01*
X154001917Y-99838770D01*
X153985213Y-99683751D01*
X153967732Y-99521450D01*
X153949575Y-99352797D01*
X153930840Y-99178721D01*
X153913362Y-99016261D01*
X153894218Y-98838627D01*
X153875530Y-98665905D01*
X153857399Y-98498998D01*
X153839925Y-98338811D01*
X153823211Y-98186247D01*
X153807356Y-98042213D01*
X153792463Y-97907612D01*
X153778631Y-97783349D01*
X153765962Y-97670327D01*
X153754557Y-97569452D01*
X153744517Y-97481629D01*
X153735943Y-97407760D01*
X153728936Y-97348752D01*
X153723596Y-97305508D01*
X153720025Y-97278932D01*
X153718367Y-97269953D01*
X153707570Y-97264826D01*
X153701133Y-97277259D01*
X153699143Y-97306774D01*
X153701690Y-97352899D01*
X153702114Y-97357523D01*
X153704538Y-97392636D01*
X153706907Y-97445291D01*
X153709212Y-97514494D01*
X153711440Y-97599255D01*
X153713581Y-97698581D01*
X153715624Y-97811480D01*
X153717557Y-97936960D01*
X153719369Y-98074029D01*
X153721049Y-98221695D01*
X153722586Y-98378965D01*
X153723969Y-98544848D01*
X153725187Y-98718352D01*
X153726228Y-98898485D01*
X153727082Y-99084254D01*
X153727737Y-99274668D01*
X153728183Y-99468734D01*
X153728408Y-99665460D01*
X153728425Y-99704313D01*
X153728797Y-100841799D01*
X153033795Y-100841799D01*
X153033795Y-95717319D01*
X154209331Y-95717319D01*
X154214694Y-95765969D01*
G37*
G36*
X157215389Y-95719488D02*
G01*
X157341972Y-95720069D01*
X157451435Y-95720622D01*
X157545188Y-95721191D01*
X157624644Y-95721822D01*
X157691215Y-95722560D01*
X157746314Y-95723451D01*
X157791353Y-95724541D01*
X157827743Y-95725874D01*
X157856896Y-95727497D01*
X157880226Y-95729455D01*
X157899143Y-95731793D01*
X157915061Y-95734557D01*
X157929390Y-95737792D01*
X157943544Y-95741545D01*
X157949237Y-95743134D01*
X158055767Y-95781332D01*
X158148937Y-95832367D01*
X158228819Y-95896312D01*
X158295489Y-95973236D01*
X158349020Y-96063213D01*
X158389487Y-96166312D01*
X158389623Y-96166753D01*
X158397011Y-96191368D01*
X158403569Y-96215411D01*
X158409349Y-96240086D01*
X158414398Y-96266600D01*
X158418767Y-96296158D01*
X158422504Y-96329965D01*
X158425659Y-96369227D01*
X158428281Y-96415148D01*
X158430419Y-96468935D01*
X158432123Y-96531792D01*
X158433441Y-96604926D01*
X158434424Y-96689541D01*
X158435119Y-96786842D01*
X158435578Y-96898036D01*
X158435848Y-97024327D01*
X158435979Y-97166921D01*
X158436019Y-97301923D01*
X158435933Y-97454851D01*
X158435642Y-97597377D01*
X158435155Y-97728617D01*
X158434482Y-97847686D01*
X158433629Y-97953699D01*
X158432607Y-98045772D01*
X158431424Y-98123021D01*
X158430087Y-98184562D01*
X158428607Y-98229508D01*
X158426991Y-98256977D01*
X158426665Y-98260186D01*
X158414847Y-98343009D01*
X158398946Y-98414329D01*
X158377056Y-98481049D01*
X158347275Y-98550072D01*
X158345918Y-98552926D01*
X158294070Y-98640981D01*
X158228846Y-98716411D01*
X158150953Y-98778637D01*
X158061100Y-98827081D01*
X157972524Y-98857901D01*
X157920561Y-98870409D01*
X157866249Y-98880070D01*
X157806471Y-98887162D01*
X157738113Y-98891958D01*
X157658058Y-98894736D01*
X157563192Y-98895771D01*
X157544600Y-98895794D01*
X157342806Y-98895794D01*
X157342806Y-100841799D01*
X156555137Y-100841799D01*
X156555137Y-98220800D01*
X157342714Y-98220800D01*
X157460910Y-98217746D01*
X157510781Y-98216169D01*
X157546013Y-98214021D01*
X157570503Y-98210640D01*
X157588144Y-98205365D01*
X157602832Y-98197535D01*
X157610413Y-98192364D01*
X157634924Y-98168054D01*
X157658348Y-98133159D01*
X157666013Y-98118231D01*
X157690307Y-98066425D01*
X157690307Y-96537421D01*
X157668365Y-96499130D01*
X157642207Y-96465889D01*
X157609033Y-96439828D01*
X157608408Y-96439474D01*
X157589895Y-96430185D01*
X157570772Y-96423987D01*
X157546705Y-96420244D01*
X157513356Y-96418319D01*
X157466389Y-96417575D01*
X157458917Y-96417531D01*
X157347439Y-96416954D01*
X157345077Y-97318877D01*
X157342714Y-98220800D01*
X156555137Y-98220800D01*
X156555137Y-95716511D01*
X157215389Y-95719488D01*
G37*
%TD*%
D12*
%TO.C,MX38*%
X177006250Y-64293750D03*
D13*
X182086250Y-64293750D03*
X171926250Y-64293750D03*
%TD*%
D12*
%TO.C,MX20*%
X96043750Y-45243750D03*
D13*
X101123750Y-45243750D03*
X90963750Y-45243750D03*
%TD*%
%TO.C,MX8*%
X38576250Y-64293750D03*
X48736250Y-64293750D03*
D12*
X43656250Y-64293750D03*
%TD*%
D13*
%TO.C,MX44*%
X200501250Y-83343750D03*
D12*
X205581250Y-83343750D03*
D13*
X210661250Y-83343750D03*
%TD*%
D14*
%TO.C,MX61*%
X279431750Y-19208750D03*
D13*
X272573750Y-26193750D03*
D12*
X255555750Y-34448750D03*
X279431750Y-34448750D03*
X267493750Y-26193750D03*
D14*
X255555750Y-19208750D03*
D13*
X262413750Y-26193750D03*
%TD*%
%TO.C,MX28*%
X129698750Y-26193750D03*
X119538750Y-26193750D03*
D12*
X124618750Y-26193750D03*
%TD*%
D13*
%TO.C,MX47*%
X205263750Y-45243750D03*
X215423750Y-45243750D03*
D12*
X210343750Y-45243750D03*
%TD*%
D13*
%TO.C,MX62*%
X267176250Y-45243750D03*
X277336250Y-45243750D03*
D12*
X272256250Y-45243750D03*
%TD*%
D13*
%TO.C,MX58*%
X270192500Y-64293750D03*
D12*
X277050500Y-72548750D03*
D14*
X253174500Y-57308750D03*
D12*
X265112500Y-64293750D03*
X253174500Y-72548750D03*
D13*
X260032500Y-64293750D03*
D14*
X277050500Y-57308750D03*
%TD*%
D13*
%TO.C,MX63*%
X290988750Y-45243750D03*
D12*
X296068750Y-45243750D03*
D13*
X301148750Y-45243750D03*
%TD*%
D12*
%TO.C,MX37*%
X172243750Y-45243750D03*
D13*
X177323750Y-45243750D03*
X167163750Y-45243750D03*
%TD*%
D12*
%TO.C,MX59*%
X277018750Y-83343750D03*
D13*
X282098750Y-83343750D03*
X271938750Y-83343750D03*
%TD*%
%TO.C,MX56*%
X243998750Y-26193750D03*
X233838750Y-26193750D03*
D12*
X238918750Y-26193750D03*
%TD*%
D13*
%TO.C,MX64*%
X301148750Y-64293750D03*
D12*
X296068750Y-64293750D03*
D13*
X290988750Y-64293750D03*
%TD*%
%TO.C,MX32*%
X138588750Y-26193750D03*
D12*
X143668750Y-26193750D03*
D13*
X148748750Y-26193750D03*
%TD*%
%TO.C,MX46*%
X195738750Y-26193750D03*
X205898750Y-26193750D03*
D12*
X200818750Y-26193750D03*
%TD*%
D13*
%TO.C,MX50*%
X252888750Y-102393750D03*
D12*
X257968750Y-102393750D03*
D13*
X263048750Y-102393750D03*
%TD*%
D12*
%TO.C,MX49*%
X224631250Y-83343750D03*
D13*
X229711250Y-83343750D03*
X219551250Y-83343750D03*
%TD*%
%TO.C,MX23*%
X110648750Y-26193750D03*
D12*
X105568750Y-26193750D03*
D13*
X100488750Y-26193750D03*
%TD*%
%TO.C,MX15*%
X62388750Y-26193750D03*
X72548750Y-26193750D03*
D12*
X67468750Y-26193750D03*
%TD*%
D13*
%TO.C,MX5*%
X17780000Y-102393750D03*
X7620000Y-102393750D03*
D12*
X12700000Y-102393750D03*
%TD*%
%TO.C,MX33*%
X153193750Y-45243750D03*
D13*
X158273750Y-45243750D03*
X148113750Y-45243750D03*
%TD*%
%TO.C,MX2*%
X20161250Y-45243750D03*
D12*
X15081250Y-45243750D03*
D13*
X10001250Y-45243750D03*
%TD*%
D12*
%TO.C,MX57*%
X248443750Y-45243750D03*
D13*
X253523750Y-45243750D03*
X243363750Y-45243750D03*
%TD*%
%TO.C,MX31*%
X143351250Y-83343750D03*
X153511250Y-83343750D03*
D12*
X148431250Y-83343750D03*
%TD*%
D13*
%TO.C,MX21*%
X105886250Y-64293750D03*
X95726250Y-64293750D03*
D12*
X100806250Y-64293750D03*
%TD*%
%TO.C,MX29*%
X134143750Y-45243750D03*
D13*
X129063750Y-45243750D03*
X139223750Y-45243750D03*
%TD*%
%TO.C,MX22*%
X115411250Y-83343750D03*
D12*
X110331250Y-83343750D03*
D13*
X105251250Y-83343750D03*
%TD*%
%TO.C,MX18*%
X86201250Y-83343750D03*
D12*
X91281250Y-83343750D03*
D13*
X96361250Y-83343750D03*
%TD*%
%TO.C,MX10*%
X60642500Y-102393750D03*
D12*
X55562500Y-102393750D03*
D13*
X50482500Y-102393750D03*
%TD*%
%TO.C,MX55*%
X271938750Y-102393750D03*
D12*
X277018750Y-102393750D03*
D13*
X282098750Y-102393750D03*
%TD*%
D12*
%TO.C,MX27*%
X127000000Y-102393750D03*
X77000100Y-94138750D03*
D14*
X176999900Y-109378750D03*
X77000100Y-109378750D03*
D13*
X132080000Y-102393750D03*
X121920000Y-102393750D03*
D12*
X176999900Y-94138750D03*
%TD*%
D13*
%TO.C,MX3*%
X22542500Y-64293750D03*
D12*
X17462500Y-64293750D03*
D13*
X12382500Y-64293750D03*
%TD*%
%TO.C,MX6*%
X34448750Y-26193750D03*
X24288750Y-26193750D03*
D12*
X29368750Y-26193750D03*
%TD*%
D13*
%TO.C,MX45*%
X241617500Y-102393750D03*
X231457500Y-102393750D03*
D12*
X236537500Y-102393750D03*
%TD*%
D13*
%TO.C,MX16*%
X82073750Y-45243750D03*
D12*
X76993750Y-45243750D03*
D13*
X71913750Y-45243750D03*
%TD*%
%TO.C,MX53*%
X239236250Y-64293750D03*
X229076250Y-64293750D03*
D12*
X234156250Y-64293750D03*
%TD*%
%TO.C,MX39*%
X186531250Y-83343750D03*
D13*
X181451250Y-83343750D03*
X191611250Y-83343750D03*
%TD*%
%TO.C,MX30*%
X133826250Y-64293750D03*
D12*
X138906250Y-64293750D03*
D13*
X143986250Y-64293750D03*
%TD*%
%TO.C,MX14*%
X67151250Y-83343750D03*
D12*
X72231250Y-83343750D03*
D13*
X77311250Y-83343750D03*
%TD*%
%TO.C,MX60*%
X290988750Y-102393750D03*
X301148750Y-102393750D03*
D12*
X296068750Y-102393750D03*
%TD*%
D13*
%TO.C,MX36*%
X167798750Y-26193750D03*
X157638750Y-26193750D03*
D12*
X162718750Y-26193750D03*
%TD*%
D14*
%TO.C,MX4*%
X34163000Y-90328750D03*
D13*
X27305000Y-83343750D03*
D12*
X10287000Y-75088750D03*
D13*
X17145000Y-83343750D03*
D14*
X10287000Y-90328750D03*
D12*
X34163000Y-75088750D03*
X22225000Y-83343750D03*
%TD*%
D15*
%TO.C,J1*%
X111810800Y-103694300D03*
X114350800Y-103694300D03*
X111810800Y-106234300D03*
X114350800Y-106234300D03*
X111810800Y-108774300D03*
D16*
X114350800Y-108774300D03*
%TD*%
D12*
%TO.C,MX19*%
X86518750Y-26193750D03*
D13*
X91598750Y-26193750D03*
X81438750Y-26193750D03*
%TD*%
D12*
%TO.C,MX48*%
X215106250Y-64293750D03*
D13*
X210026250Y-64293750D03*
X220186250Y-64293750D03*
%TD*%
D12*
%TO.C,MX24*%
X115093750Y-45243750D03*
D13*
X110013750Y-45243750D03*
X120173750Y-45243750D03*
%TD*%
%TO.C,MX17*%
X76676250Y-64293750D03*
X86836250Y-64293750D03*
D12*
X81756250Y-64293750D03*
%TD*%
D13*
%TO.C,MX9*%
X58261250Y-83343750D03*
D12*
X53181250Y-83343750D03*
D13*
X48101250Y-83343750D03*
%TD*%
%TO.C,MX35*%
X172561250Y-83343750D03*
X162401250Y-83343750D03*
D12*
X167481250Y-83343750D03*
%TD*%
D13*
%TO.C,MX13*%
X57626250Y-64293750D03*
D12*
X62706250Y-64293750D03*
D13*
X67786250Y-64293750D03*
%TD*%
D12*
%TO.C,MX51*%
X219868750Y-26193750D03*
D13*
X224948750Y-26193750D03*
X214788750Y-26193750D03*
%TD*%
D12*
%TO.C,MX42*%
X191293750Y-45243750D03*
D13*
X186213750Y-45243750D03*
X196373750Y-45243750D03*
%TD*%
%TO.C,MX40*%
X203517500Y-102393750D03*
D12*
X198437500Y-102393750D03*
D13*
X193357500Y-102393750D03*
%TD*%
D12*
%TO.C,MX1*%
X10318750Y-26193750D03*
D13*
X15398750Y-26193750D03*
X5238750Y-26193750D03*
%TD*%
D12*
%TO.C,MX65*%
X296068750Y-83343750D03*
D13*
X290988750Y-83343750D03*
X301148750Y-83343750D03*
%TD*%
D12*
%TO.C,MX54*%
X250825000Y-83343750D03*
D13*
X245745000Y-83343750D03*
X255905000Y-83343750D03*
%TD*%
%TO.C,MX12*%
X63023750Y-45243750D03*
D12*
X57943750Y-45243750D03*
D13*
X52863750Y-45243750D03*
%TD*%
%TO.C,MX11*%
X43338750Y-26193750D03*
D12*
X48418750Y-26193750D03*
D13*
X53498750Y-26193750D03*
%TD*%
%TO.C,MX41*%
X186848750Y-26193750D03*
X176688750Y-26193750D03*
D12*
X181768750Y-26193750D03*
%TD*%
%TO.C,MX34*%
X157956250Y-64293750D03*
D13*
X163036250Y-64293750D03*
X152876250Y-64293750D03*
%TD*%
%TO.C,MX26*%
X134461250Y-83343750D03*
D12*
X129381250Y-83343750D03*
D13*
X124301250Y-83343750D03*
%TD*%
%TO.C,MX43*%
X201136250Y-64293750D03*
D12*
X196056250Y-64293750D03*
D13*
X190976250Y-64293750D03*
%TD*%
%TO.C,MX7*%
X43973750Y-45243750D03*
D12*
X38893750Y-45243750D03*
D13*
X33813750Y-45243750D03*
%TD*%
%TO.C,MX25*%
X114776250Y-64293750D03*
D12*
X119856250Y-64293750D03*
D13*
X124936250Y-64293750D03*
%TD*%
%TO.C,MX52*%
X234473750Y-45243750D03*
X224313750Y-45243750D03*
D12*
X229393750Y-45243750D03*
%TD*%
M02*
